<?xml version="1.0" encoding="UTF-8" standalone="no"?>
<svg
   version="1.1"
   id="enterovirus_virion"
   x="0px"
   y="0px"
   viewBox="0 0 465.333 199.333"
   enable-background="new 0 0 465.333 199.333"
   xml:space="preserve"
   class="inline_svg"
   sodipodi:docname="enterovirus_virion_image.svg"
   inkscape:version="1.3.2 (091e20e, 2023-11-25, custom)"
   inkscape:export-filename="enterovirus_virion_image.png"
   inkscape:export-xdpi="300"
   inkscape:export-ydpi="300"
   xmlns:inkscape="http://www.inkscape.org/namespaces/inkscape"
   xmlns:sodipodi="http://sodipodi.sourceforge.net/DTD/sodipodi-0.dtd"
   xmlns="http://www.w3.org/2000/svg"
   xmlns:svg="http://www.w3.org/2000/svg"><defs
   id="defs141" /><sodipodi:namedview
   id="namedview141"
   pagecolor="#ffffff"
   bordercolor="#000000"
   borderopacity="0.25"
   inkscape:showpageshadow="2"
   inkscape:pageopacity="0.0"
   inkscape:pagecheckerboard="0"
   inkscape:deskcolor="#d1d1d1"
   inkscape:zoom="2.8484977"
   inkscape:cx="226.08409"
   inkscape:cy="120.76541"
   inkscape:window-width="1718"
   inkscape:window-height="1368"
   inkscape:window-x="1706"
   inkscape:window-y="0"
   inkscape:window-maximized="0"
   inkscape:current-layer="Layer_5" />
<polygon
   fill="#D6AF86"
   stroke="#030303"
   stroke-width="0.5"
   points="174.981,57.604 98.732,14.483 23.234,59.014 24.143,146.685 &#10; 100.228,189.787 175.729,145.255 "
   id="polygon1" />
<g
   id="VP3">
	<g
   id="css:colorshift_3_"
   class="colorshift">
		<g
   id="highlight:enterovirus_genome:VP3">
			<path
   fill="#84C953"
   stroke="#000000"
   stroke-width="0.5"
   d="M156.405,25.593c-3.084-2.277-6.321-4.379-9.706-6.287&#10;    l-12.175,21.53c3.712,2.148,8.092,4.989,11.315,7.452c3.115-0.092,6.115-0.785,8.826-2.005l5.025-5.116&#10;    C155.238,37.342,153.805,30.951,156.405,25.593z"
   id="path1"
   style="fill:#ef8b6d;fill-opacity:1" />
			<path
   fill="#84C953"
   stroke="#000000"
   stroke-width="0.5"
   d="M194.417,112.694c0.439-3.867,0.634-7.722,0.599-11.545&#10;    l-24.819,0.222c-0.005,4.287-0.274,9.502-0.795,13.527c1.637,2.65,3.736,4.9,6.148,6.641l6.943,1.793&#10;    C183.585,117.536,188.44,113.087,194.417,112.694z"
   id="path2"
   style="fill:#ef8b6d;fill-opacity:1" />
			<path
   fill="#84C953"
   stroke="#000000"
   stroke-width="0.5"
   d="M135.606,162.72c-3.716,2.137-8.368,4.512-12.111,6.072&#10;    c-1.479,2.746-2.379,5.688-2.679,8.646l1.919,6.91c5.538-1.941,11.787,0.008,15.129,4.938c3.517-1.527,6.955-3.279,10.304-5.25&#10;    L135.606,162.72z"
   id="path3"
   style="fill:#ef8b6d;fill-opacity:1" />
			<path
   fill="#84C953"
   stroke="#000000"
   stroke-width="0.5"
   d="M45.249,157.892l-5.025,5.115c4.45,3.826,5.886,10.217,3.286,15.576&#10;    c3.082,2.275,6.319,4.377,9.705,6.285l12.176-21.529c-3.712-2.148-8.093-4.988-11.316-7.453&#10;    C50.958,155.98,47.959,156.673,45.249,157.892z"
   id="path4"
   style="fill:#ef8b6d;fill-opacity:1" />
			<path
   fill="#84C953"
   stroke="#000000"
   stroke-width="0.5"
   d="M24.363,82.639l-6.942-1.794&#10;    c-1.092,5.794-5.946,10.243-11.924,10.636c-0.438,3.868-0.634,7.722-0.599,11.546l24.817-0.222&#10;    c0.007-4.287,0.276-9.501,0.797-13.526C28.875,86.628,26.775,84.377,24.363,82.639z"
   id="path5"
   style="fill:#ef8b6d;fill-opacity:1" />
			<path
   fill="#84C953"
   stroke="#000000"
   stroke-width="0.5"
   d="M77.178,19.828c-5.537,1.942-11.786-0.009-15.128-4.937&#10;    c-3.515,1.528-6.957,3.278-10.305,5.25l12.563,21.316c3.715-2.139,8.366-4.514,12.11-6.073c1.478-2.746,2.378-5.688,2.677-8.648&#10;    L77.178,19.828z"
   id="path6"
   style="fill:#ef8b6d;fill-opacity:1" />
			<polygon
   fill="#64AD2A"
   stroke="#000000"
   stroke-width="0.5"
   points="369.63,193.9 369.62,187.917 346.398,182.598 &#10;    340.042,182.347    "
   id="polygon6"
   style="fill:#ef8b6d;fill-opacity:1" />
			<polygon
   fill="#76BC3F"
   stroke="#000000"
   stroke-width="0.5"
   points="450.199,55.416 458.657,57.437 437.523,28.451 &#10;    441.412,41.526    "
   id="polygon7"
   style="fill:#ef8b6d;fill-opacity:1" />
			<polygon
   fill="#81AA66"
   stroke="#00005E"
   stroke-width="0.5"
   points="459.781,68.122 458.657,57.437 445.056,54.187 &#10;    451.54,66.554    "
   id="polygon8"
   style="fill:#ef8b6d;fill-opacity:1" />
			<polygon
   fill="#84C953"
   stroke="#000000"
   stroke-width="0.5"
   points="315.564,152.155 307.589,169.672 345.848,177.449 &#10;    331.445,154.891    "
   id="polygon9"
   style="fill:#ef8b6d;fill-opacity:1" />
			<polygon
   fill="#6CAF31"
   stroke="#000000"
   stroke-width="0.5"
   points="417.989,139.871 409.861,122.188 384.201,160.495 &#10;    406.718,156.235    "
   id="polygon10"
   style="fill:#ef8b6d;fill-opacity:1" />
			<polygon
   fill="#94CC69"
   stroke="#000000"
   stroke-width="0.5"
   points="310.441,74.453 301.856,52.478 283.833,90.425 &#10;    301.356,94.625    "
   id="polygon11"
   style="fill:#ef8b6d;fill-opacity:1" />
			<polygon
   fill="#A5D182"
   stroke="#000000"
   stroke-width="0.5"
   points="347.491,18.119 369.291,1.707 326.095,10.878 &#10;    324.116,22.173    "
   id="polygon12"
   style="fill:#ef8b6d;fill-opacity:1" />
			<polygon
   fill="#84C953"
   stroke="#000000"
   stroke-width="0.5"
   points="414.042,35.153 436.902,52.238 429.629,24.584 &#10;    412.898,21.585    "
   id="polygon13"
   style="fill:#ef8b6d;fill-opacity:1" />
			<polygon
   fill="#A9EA86"
   stroke="#000000"
   stroke-width="0.5"
   points="293.82,54.428 301.856,52.478 308.647,26.283 &#10;    296.525,43.316    "
   id="polygon14"
   style="fill:#ef8b6d;fill-opacity:1" />
			<polygon
   fill="#84C953"
   stroke="#000000"
   stroke-width="0.5"
   points="391.015,17.943 369.291,1.707 369.347,33.803 &#10;    391.073,33.674    "
   id="polygon15"
   style="fill:#ef8b6d;fill-opacity:1" />
			<polygon
   fill="#84C953"
   stroke="#000000"
   stroke-width="0.5"
   points="307.589,169.672 306.293,170.973 274.88,109.276    "
   id="polygon16"
   style="fill:#ef8b6d;fill-opacity:1" />
			<polygon
   fill="#94CC69"
   stroke="#000000"
   stroke-width="0.5"
   points="326.789,33.707 301.856,52.478 350.415,52.391 &#10;    350.337,33.749    "
   id="polygon17"
   style="fill:#ef8b6d;fill-opacity:1" />
			<polygon
   fill="#62A52D"
   stroke="#000000"
   stroke-width="0.5"
   points="423.375,151.593 431.583,169.453 453.804,128.075 &#10;    434.519,132.84    "
   id="polygon18"
   style="fill:#ef8b6d;fill-opacity:1" />
			<polygon
   fill="#76BC3F"
   stroke="#000000"
   stroke-width="0.5"
   points="356.051,122.283 329.145,122.331 356.12,162.297 &#10;    369.539,142.266    "
   id="polygon19"
   style="fill:#ef8b6d;fill-opacity:1" />
			<polygon
   fill="#84C953"
   stroke="#000000"
   stroke-width="0.5"
   points="322.133,137.729 329.145,122.331 295.473,114.23 &#10;    306.109,134.333    "
   id="polygon20"
   style="fill:#ef8b6d;fill-opacity:1" />
			<polygon
   fill="#76BC3F"
   stroke="#000000"
   stroke-width="0.5"
   points="428.696,73.525 436.902,52.238 393.516,52.313 &#10;    405.891,73.565    "
   id="polygon21"
   style="fill:#ef8b6d;fill-opacity:1" />
			<polygon
   fill="#6CAF31"
   stroke="#000000"
   stroke-width="0.5"
   points="420.109,95.711 409.861,122.188 447.934,112.887 &#10;    436.37,92.589    "
   id="polygon22"
   style="fill:#ef8b6d;fill-opacity:1" />
			<polygon
   fill="#A5D182"
   stroke="#000000"
   stroke-width="0.5"
   points="287.351,55.998 280.122,57.752 277.025,88.194 &#10;    286.386,70.377    "
   id="polygon23"
   style="fill:#ef8b6d;fill-opacity:1" />
			<polygon
   fill="#62A52D"
   stroke="#000000"
   stroke-width="0.5"
   points="445.056,54.187 436.902,52.238 452.629,85.054 &#10;    451.54,66.554    "
   id="polygon24"
   style="fill:#ef8b6d;fill-opacity:1" />
			<polygon
   fill="#82C44E"
   stroke="#000000"
   stroke-width="0.5"
   points="382.956,122.236 409.861,122.188 382.875,75.634 &#10;    369.462,98.959    "
   id="polygon25"
   style="fill:#ef8b6d;fill-opacity:1" />
			<polygon
   fill="#84C953"
   stroke="#000000"
   stroke-width="0.5"
   points="319.001,96.077 329.145,122.331 355.969,75.682 &#10;    330.661,75.726    "
   id="polygon26"
   style="fill:#ef8b6d;fill-opacity:1" />
		</g>
	</g>
</g>
<g
   id="VP2">
	<g
   id="css:colorshift_2_"
   class="colorshift">
		<g
   id="highlight:enterovirus_genome:VP2">
			<path
   fill="#9BDD7C"
   stroke="#000000"
   stroke-width="0.5"
   d="M121.272,19.44l-1.796,6.942c0.353,2.954,1.303,5.879,2.831,8.598&#10;    c3.772,1.493,8.465,3.784,12.217,5.856l12.175-21.53c-3.329-1.877-6.803-3.565-10.404-5.05&#10;    C133.038,19.227,126.834,21.28,121.272,19.44z"
   id="path26"
   style="fill:#f9c4c1;fill-opacity:1" />
			<path
   fill="#9BDD7C"
   stroke="#000000"
   stroke-width="0.5"
   d="M194.2,89.617c-5.977-0.292-10.906-4.653-12.101-10.422&#10;    l-6.908,1.917c-2.382,1.781-4.44,4.067-6.03,6.75c0.592,4.013,0.955,9.222,1.036,13.508l24.819-0.222&#10;    C194.98,97.267,194.704,93.417,194.2,89.617z"
   id="path27"
   style="fill:#f9c4c1;fill-opacity:1" />
			<path
   fill="#9BDD7C"
   stroke="#000000"
   stroke-width="0.5"
   d="M160.762,161.939l-5.116-5.023&#10;    c-2.733-1.174-5.743-1.813-8.858-1.848c-3.181,2.52-7.51,5.438-11.182,7.652l12.562,21.316c3.294-1.941,6.493-4.102,9.583-6.473&#10;    C155.06,172.253,156.38,165.843,160.762,161.939z"
   id="path28"
   style="fill:#f9c4c1;fill-opacity:1" />
			<path
   fill="#9BDD7C"
   stroke="#000000"
   stroke-width="0.5"
   d="M77.608,169.197c-3.773-1.494-8.466-3.785-12.218-5.857&#10;    l-12.176,21.529c3.33,1.877,6.804,3.566,10.405,5.051c3.255-4.971,9.46-7.025,15.024-5.184l1.794-6.941&#10;    C80.085,174.841,79.135,171.914,77.608,169.197z"
   id="path29"
   style="fill:#f9c4c1;fill-opacity:1" />
			<path
   fill="#9BDD7C"
   stroke="#000000"
   stroke-width="0.5"
   d="M4.898,103.027c0.038,3.882,0.313,7.732,0.818,11.533&#10;    c5.977,0.293,10.904,4.652,12.097,10.42l6.909-1.916c2.383-1.781,4.44-4.068,6.03-6.75c-0.594-4.012-0.954-9.222-1.037-13.508&#10;    L4.898,103.027z"
   id="path30"
   style="fill:#f9c4c1;fill-opacity:1" />
			<path
   fill="#9BDD7C"
   stroke="#000000"
   stroke-width="0.5"
   d="M42.163,26.613c2.69,5.31,1.369,11.721-3.012,15.624l5.114,5.025&#10;    c2.734,1.17,5.744,1.811,8.861,1.848c3.181-2.521,7.509-5.439,11.182-7.653L51.746,20.141&#10;    C48.452,22.082,45.251,24.241,42.163,26.613z"
   id="path31"
   style="fill:#f9c4c1;fill-opacity:1" />
			<polygon
   fill="#85B76A"
   stroke="#000000"
   stroke-width="0.5"
   points="383.152,184.71 404.833,180.01 369.63,193.9 &#10;    369.624,189.986    "
   id="polygon31"
   style="fill:#f9c4c1;fill-opacity:1" />
			<polygon
   fill="#9BDD7C"
   stroke="#000000"
   stroke-width="0.5"
   points="323.025,172.811 346.398,182.598 340.628,182.37 &#10;    307.589,169.672    "
   id="polygon32"
   style="fill:#f9c4c1;fill-opacity:1" />
			<polygon
   fill="#8EC172"
   stroke="#00005E"
   stroke-width="0.5"
   points="433.376,38.834 436.902,52.238 450.199,55.416 &#10;    441.412,41.526    "
   id="polygon33"
   style="fill:#f9c4c1;fill-opacity:1" />
			<polygon
   fill="#9BDD7C"
   stroke="#000000"
   stroke-width="0.5"
   points="298.052,152.064 307.589,169.672 322.133,137.729 &#10;    306.109,134.333    "
   id="polygon34"
   style="fill:#f9c4c1;fill-opacity:1" />
			<polygon
   fill="#AFEF8E"
   stroke="#000000"
   stroke-width="0.5"
   points="294.122,68.763 301.856,52.478 287.351,55.998 &#10;    286.386,70.377    "
   id="polygon35"
   style="fill:#f9c4c1;fill-opacity:1" />
			<polygon
   fill="#9BDD7C"
   stroke="#000000"
   stroke-width="0.5"
   points="339.917,138.287 329.145,122.331 315.564,152.155 &#10;    331.445,154.891    "
   id="polygon36"
   style="fill:#f9c4c1;fill-opacity:1" />
			<polygon
   fill="#9BDD7C"
   stroke="#000000"
   stroke-width="0.5"
   points="309.386,117.577 329.145,122.331 310.441,74.453 &#10;    301.356,94.625    "
   id="polygon37"
   style="fill:#f9c4c1;fill-opacity:1" />
			<polygon
   fill="#B0DB9A"
   stroke="#000000"
   stroke-width="0.5"
   points="306.194,35.744 301.856,52.478 347.491,18.119 &#10;    324.116,22.173    "
   id="polygon38"
   style="fill:#f9c4c1;fill-opacity:1" />
			<polygon
   fill="#9BDD7C"
   stroke="#000000"
   stroke-width="0.5"
   points="409.721,52.287 436.902,52.238 391.015,17.943 &#10;    391.073,33.674    "
   id="polygon39"
   style="fill:#f9c4c1;fill-opacity:1" />
			<polygon
   fill="#9BDD7C"
   stroke="#000000"
   stroke-width="0.5"
   points="369.317,16.605 369.291,1.707 326.789,33.707 &#10;    350.337,33.749    "
   id="polygon40"
   style="fill:#f9c4c1;fill-opacity:1" />
			<polygon
   fill="#B5F291"
   stroke="#000000"
   stroke-width="0.5"
   points="289.348,45.003 280.122,57.752 293.82,54.428 &#10;    296.525,43.316    "
   id="polygon41"
   style="fill:#f9c4c1;fill-opacity:1" />
			<polygon
   fill="#8ABF6D"
   stroke="#000000"
   stroke-width="0.5"
   points="427.576,117.86 409.861,122.188 423.375,151.593 &#10;    434.519,132.84    "
   id="polygon42"
   style="fill:#f9c4c1;fill-opacity:1" />
			<polygon
   fill="#93C476"
   stroke="#000000"
   stroke-width="0.5"
   points="396.445,142.219 409.861,122.188 356.051,122.283 &#10;    369.539,142.266    "
   id="polygon43"
   style="fill:#f9c4c1;fill-opacity:1" />
			<polygon
   fill="#9BDD7C"
   stroke="#000000"
   stroke-width="0.5"
   points="396.367,98.911 409.861,122.188 428.696,73.525 &#10;    405.891,73.565    "
   id="polygon44"
   style="fill:#f9c4c1;fill-opacity:1" />
			<polygon
   fill="#95CE76"
   stroke="#000000"
   stroke-width="0.5"
   points="394.658,7 369.291,1.707 414.042,35.153 412.898,21.585    &#10;    "
   id="polygon45"
   style="fill:#f9c4c1;fill-opacity:1" />
			<polygon
   fill="#9BDD7C"
   stroke="#000000"
   stroke-width="0.5"
   points="321.947,52.442 301.856,52.478 319.001,96.077 &#10;    330.661,75.726    "
   id="polygon46"
   style="fill:#f9c4c1;fill-opacity:1" />
			<polygon
   fill="#9BDD7C"
   stroke="#000000"
   stroke-width="0.5"
   points="342.555,99.006 329.145,122.331 382.956,122.236 &#10;    369.462,98.959    "
   id="polygon47"
   style="fill:#f9c4c1;fill-opacity:1" />
			<polygon
   fill="#93C977"
   stroke="#000000"
   stroke-width="0.5"
   points="445.841,70.89 436.902,52.238 420.109,95.711 &#10;    436.37,92.589    "
   id="polygon48"
   style="fill:#f9c4c1;fill-opacity:1" />
			<polygon
   fill="#7FA567"
   stroke="#000000"
   stroke-width="0.5"
   points="414.947,172.896 431.583,169.453 417.989,139.871 &#10;    406.718,156.235    "
   id="polygon49"
   style="fill:#f9c4c1;fill-opacity:1" />
		</g>
	</g>
</g>
<g
   id="VP1">
	<g
   id="highlight:enterovirus_genome:VP1">
		<g
   id="css:colorshift_1_"
   class="colorshift"
   style="display:inline">
			<path
   fill="#6bb5b1"
   stroke="#00005e"
   stroke-width="0.5"
   d="m 87.554,7.838 c -0.338,5.93 -4.685,10.808 -10.42,11.997 l 1.918,6.909 c 1.781,2.382 4.067,4.44 6.748,6.03 4.014,-0.592 9.223,-0.955 13.511,-1.036 L 99.09,7.029 C 95.207,7.063 91.356,7.336 87.554,7.838 Z"
   id="path49"
   style="fill:#ec6175;fill-opacity:1" />
			<path
   fill="#6bb5b1"
   stroke="#00005e"
   stroke-width="0.5"
   d="m 187.056,64.109 c -1.532,-3.515 -3.286,-6.954 -5.263,-10.298 l -21.31,12.558 c 2.141,3.717 4.514,8.367 6.074,12.113 2.744,1.478 5.688,2.377 8.645,2.676 l 6.912,-1.917 c -1.944,-5.541 0.011,-11.792 4.942,-15.132 z"
   id="path50"
   style="fill:#ec6175;fill-opacity:1" />
			<path
   fill="#6bb5b1"
   stroke="#00005e"
   stroke-width="0.5"
   d="m 159.706,41.214 -5.026,5.114 c -1.171,2.734 -1.811,5.744 -1.847,8.862 2.521,3.179 5.438,7.509 7.651,11.179 l 21.31,-12.558 c -1.944,-3.291 -4.109,-6.488 -6.486,-9.576 -5.307,2.677 -11.705,1.354 -15.602,-3.021 z"
   id="path51"
   style="fill:#ec6175;fill-opacity:1" />
			<path
   fill="#6bb5b1"
   stroke="#00005e"
   stroke-width="0.5"
   d="M 110.638,7.637 C 106.77,7.195 102.915,6.996 99.09,7.029 l 0.221,24.708 c 4.286,0.005 9.5,0.274 13.524,0.796 2.652,-1.638 4.903,-3.736 6.641,-6.15 l 1.796,-6.943 C 115.514,18.355 111.085,13.56 110.638,7.637 Z"
   id="path52"
   style="fill:#ec6175;fill-opacity:1" />
			<path
   fill="#6bb5b1"
   stroke="#00005e"
   stroke-width="0.5"
   d="m 24.646,123.265 -6.911,1.916 c 1.942,5.539 -0.01,11.791 -4.942,15.131 1.531,3.514 3.284,6.954 5.263,10.299 l 21.311,-12.559 c -2.142,-3.717 -4.516,-8.365 -6.076,-12.111 -2.745,-1.479 -5.688,-2.378 -8.645,-2.676 z"
   id="path53"
   style="fill:#ec6175;fill-opacity:1" />
			<path
   fill="#6bb5b1"
   stroke="#00005e"
   stroke-width="0.5"
   d="m 47.018,149.234 c -2.521,-3.182 -5.44,-7.51 -7.652,-11.182 l -21.311,12.559 c 1.946,3.289 4.108,6.488 6.485,9.574 5.305,-2.678 11.706,-1.352 15.604,3.023 l 5.023,-5.113 c 1.173,-2.734 1.813,-5.744 1.851,-8.861 z"
   id="path54"
   style="fill:#ec6175;fill-opacity:1" />
			<path
   fill="#6bb5b1"
   stroke="#00005e"
   stroke-width="0.5"
   d="m 87.078,171.642 c -2.652,1.639 -4.902,3.736 -6.642,6.148 l -1.792,6.945 c 5.754,1.084 10.187,5.881 10.63,11.803 3.869,0.443 7.725,0.641 11.549,0.607 l -0.219,-24.707 c -4.287,-0.005 -9.502,-0.274 -13.526,-0.796 z"
   id="path55"
   style="fill:#ec6175;fill-opacity:1" />
			<path
   fill="#6bb5b1"
   stroke="#00005e"
   stroke-width="0.5"
   d="m 114.113,171.402 c -4.014,0.594 -9.221,0.957 -13.509,1.037 l 0.219,24.707 c 3.886,-0.033 7.736,-0.307 11.537,-0.809 0.337,-5.93 4.683,-10.807 10.419,-11.996 l -1.917,-6.908 c -1.782,-2.383 -4.067,-4.441 -6.749,-6.031 z"
   id="path56"
   style="fill:#ec6175;fill-opacity:1" />
			<path
   fill="#6bb5b1"
   stroke="#00005e"
   stroke-width="0.5"
   d="m 161.136,136.765 c -2.148,3.709 -4.989,8.092 -7.451,11.315 0.094,3.117 0.784,6.115 2.004,8.828 l 5.115,5.023 c 3.826,-4.449 10.213,-5.885 15.572,-3.287 2.281,-3.082 4.384,-6.318 6.297,-9.699 z"
   id="path57"
   style="fill:#ec6175;fill-opacity:1" />
			<path
   fill="#6bb5b1"
   stroke="#00005e"
   stroke-width="0.5"
   d="m 182.533,123.511 -6.941,-1.795 c -2.955,0.352 -5.879,1.305 -8.596,2.832 -1.495,3.771 -3.785,8.463 -5.859,12.217 l 21.537,12.18 c 1.882,-3.329 3.575,-6.799 5.063,-10.397 -4.986,-3.254 -7.047,-9.465 -5.204,-15.037 z"
   id="path58"
   style="fill:#ec6175;fill-opacity:1" />
			<path
   fill="#6bb5b1"
   stroke="#00005e"
   stroke-width="0.5"
   d="m 39.109,42.245 c -3.824,4.451 -10.212,5.885 -15.57,3.288 -2.28,3.081 -4.385,6.317 -6.299,9.699 l 21.537,12.18 c 2.149,-3.71 4.988,-8.092 7.451,-11.316 -0.093,-3.117 -0.783,-6.115 -2.006,-8.827 z"
   id="path59"
   style="fill:#ec6175;fill-opacity:1" />
			<path
   fill="#6bb5b1"
   stroke="#00005e"
   stroke-width="0.5"
   d="m 12.176,65.629 c 4.985,3.253 7.048,9.466 5.204,15.036 l 6.942,1.794 c 2.952,-0.353 5.879,-1.303 8.598,-2.829 1.493,-3.774 3.783,-8.465 5.856,-12.218 L 17.24,55.232 c -1.881,3.328 -3.574,6.798 -5.064,10.397 z"
   id="path60"
   style="display:inline;fill:#ec6175;fill-opacity:1" />
			<polygon
   fill="#64ad2a"
   stroke="#000000"
   stroke-width="0.5"
   points="404.833,180.01 431.583,169.453 383.513,179.401 383.152,184.71 "
   id="polygon60"
   style="fill:#ec6175;fill-opacity:1" />
			<polygon
   fill="#4b9988"
   stroke="#00005e"
   stroke-width="0.5"
   points="383.513,179.401 369.61,182.278 369.624,189.986 383.152,184.71 "
   id="polygon61"
   style="fill:#ec6175;fill-opacity:1" />
			<polygon
   fill="#4b9988"
   stroke="#00005e"
   stroke-width="0.5"
   points="369.61,182.278 323.025,172.811 346.398,182.598 369.62,187.917 "
   id="polygon62"
   style="fill:#ec6175;fill-opacity:1" />
			<polygon
   fill="#49918b"
   stroke="#00005e"
   stroke-width="0.5"
   points="426.765,13.698 433.376,38.834 441.412,41.526 437.523,28.451 "
   id="polygon63"
   style="fill:#ec6175;fill-opacity:1" />
			<polygon
   fill="#49918b"
   stroke="#00005e"
   stroke-width="0.5"
   points="464.079,108.942 459.781,68.122 451.54,66.554 452.629,85.054 "
   id="polygon64"
   style="fill:#ec6175;fill-opacity:1" />
			<polygon
   fill="#6bb5b1"
   stroke="#00005e"
   stroke-width="0.5"
   points="426.765,13.698 395.234,7.12 412.898,21.585 429.629,24.584 "
   id="polygon65"
   style="fill:#ec6175;fill-opacity:1" />
			<polygon
   fill="#539b8f"
   stroke="#00005e"
   stroke-width="0.5"
   points="369.61,182.278 414.947,172.896 406.718,156.235 384.201,160.495 "
   id="polygon66"
   style="fill:#ec6175;fill-opacity:1" />
			<polygon
   fill="#7bb8c7"
   stroke="#00005e"
   stroke-width="0.5"
   points="369.379,52.357 369.317,16.605 350.337,33.749 350.415,52.391 "
   id="polygon67"
   style="fill:#ec6175;fill-opacity:1" />
			<polygon
   fill="#6bb5b1"
   stroke="#00005e"
   stroke-width="0.5"
   points="369.379,52.357 409.721,52.287 391.073,33.674 369.347,33.803 "
   id="polygon68"
   style="fill:#ec6175;fill-opacity:1" />
			<polygon
   fill="#a3c4ff"
   stroke="#00005e"
   stroke-width="0.5"
   points="296.525,43.316 289.348,45.003 311.857,13.901 308.647,26.283 "
   id="polygon69"
   style="fill:#ec6175;fill-opacity:1" />
			<polygon
   fill="#6bb5b1"
   stroke="#00005e"
   stroke-width="0.5"
   points="274.88,109.276 298.052,152.064 306.109,134.333 295.041,114.126 "
   id="polygon70"
   style="fill:#ec6175;fill-opacity:1" />
			<polygon
   fill="#5da89d"
   stroke="#00005e"
   stroke-width="0.5"
   points="369.61,182.278 396.445,142.219 369.539,142.266 356.12,162.297 "
   id="polygon71"
   style="fill:#ec6175;fill-opacity:1" />
			<polygon
   fill="#49918b"
   stroke="#00005e"
   stroke-width="0.5"
   points="464.079,108.942 427.576,117.86 434.519,132.84 453.804,128.075 "
   id="polygon72"
   style="fill:#ec6175;fill-opacity:1" />
			<polygon
   fill="#8cbde0"
   stroke="#00005e"
   stroke-width="0.5"
   points="311.857,13.901 306.194,35.744 324.116,22.173 326.095,10.878 "
   id="polygon73"
   style="fill:#ec6175;fill-opacity:1" />
			<polygon
   fill="#5da89d"
   stroke="#00005e"
   stroke-width="0.5"
   points="369.379,52.357 396.367,98.911 405.891,73.565 393.516,52.313 "
   id="polygon74"
   style="fill:#ec6175;fill-opacity:1" />
			<polygon
   fill="#7bb8c7"
   stroke="#00005e"
   stroke-width="0.5"
   points="274.88,109.276 309.386,117.577 301.356,94.625 283.833,90.425 "
   id="polygon75"
   style="fill:#ec6175;fill-opacity:1" />
			<polygon
   fill="#69b0ac"
   stroke="#00005e"
   stroke-width="0.5"
   points="369.379,52.357 342.555,99.006 369.462,98.959 382.875,75.634 "
   id="polygon76"
   style="fill:#ec6175;fill-opacity:1" />
			<polygon
   fill="#539b8f"
   stroke="#00005e"
   stroke-width="0.5"
   points="464.079,108.942 445.841,70.89 436.37,92.589 447.934,112.887 "
   id="polygon77"
   style="fill:#ec6175;fill-opacity:1" />
			<polygon
   fill="#6bb5b1"
   stroke="#00005e"
   stroke-width="0.5"
   points="369.61,182.278 339.917,138.287 331.445,154.891 345.848,177.449 "
   id="polygon78"
   style="fill:#ec6175;fill-opacity:1" />
			<polygon
   fill="#8cbde0"
   stroke="#00005e"
   stroke-width="0.5"
   points="274.88,109.276 294.122,68.763 286.386,70.377 277.025,88.194 "
   id="polygon79"
   style="fill:#ec6175;fill-opacity:1" />
			<polygon
   fill="#6bb5b1"
   stroke="#00005e"
   stroke-width="0.5"
   points="369.379,52.357 321.947,52.442 330.661,75.726 355.969,75.682 "
   id="polygon80"
   style="fill:#ec6175;fill-opacity:1" />
		</g>
	</g>
</g>
<g
   id="VPG">
	<g
   id="css:colorshift"
   class="colorshift">
		<g
   id="highlight:enterovirus_genome:VPG">
			<ellipse
   fill="#91F2ED"
   stroke="#000000"
   stroke-width="0.5"
   cx="60.209"
   cy="132.42"
   rx="9.308"
   ry="8.775"
   id="ellipse80"
   style="fill:#67c5cd;fill-opacity:1" />
		</g>
	</g>
</g>
<g
   id="g96">
	<path
   fill="none"
   stroke="#33852B"
   d="M130.41,139.997c-8.347,0-13.041-18.185-13.041-45.027c0-14.144,0.956-43.296,4.852-43.296&#10;  c3.896,0,4.851,29.152,4.851,43.296c0,26.842-4.691,45.027-13.041,45.027s-13.04-18.185-13.04-45.027&#10;  c0-14.144,0.954-43.296,4.85-43.296c3.896,0,4.85,29.152,4.85,43.296c0,26.842-4.692,45.027-13.04,45.027&#10;  c-8.349,0-13.041-18.185-13.041-45.027c0-14.146,0.955-43.297,4.851-43.297c3.896,0,4.851,29.152,4.851,43.297&#10;  c0,26.842-4.691,45.027-13.042,45.027c-8.348,0-13.04-18.185-13.04-45.027c0-14.146,0.955-43.297,4.85-43.297&#10;  c3.897,0,4.851,29.152,4.851,43.297c0,26.842-4.692,45.027-13.04,45.027"
   id="path80" />
	<g
   id="g93">
		<g
   id="g92">
			<path
   d="M122.681,135.182c-0.027,0.241-0.055,0.48-0.083,0.719c-0.135-0.218-0.27-0.444-0.405-0.68&#10;    c0.097-0.713,0.194-1.442,0.291-2.187c0.157,0.241,0.315,0.47,0.472,0.687c0.59,1.729,1.181,3.366,1.771,4.931&#10;    c-0.139-0.137-0.279-0.282-0.418-0.435c-0.185-0.508-0.37-1.023-0.555-1.547C123.397,136.232,123.039,135.737,122.681,135.182z&#10;     M123.599,136.192c-0.171-0.485-0.342-0.978-0.513-1.478c-0.111-0.333-0.2-0.62-0.288-0.904c-0.004-0.007-0.009-0.013-0.014-0.02&#10;    c0.002,0.159-0.001,0.325-0.015,0.47c-0.028,0.221-0.056,0.44-0.083,0.658C122.991,135.386,123.295,135.81,123.599,136.192z"
   id="path81" />
			<path
   d="M125.435,138.322c-0.027,0.298-0.055,0.595-0.083,0.89c-0.135-0.11-0.27-0.227-0.405-0.352&#10;    c0.097-0.904,0.194-1.823,0.291-2.759c0.157,0.114,0.314,0.217,0.472,0.312c0.591,1.378,1.181,2.692,1.772,3.962&#10;    c-0.139-0.041-0.278-0.088-0.417-0.143c-0.186-0.411-0.371-0.828-0.556-1.25C126.151,138.811,125.793,138.592,125.435,138.322z&#10;     M126.354,138.587c-0.171-0.389-0.342-0.784-0.514-1.183c-0.111-0.268-0.2-0.506-0.288-0.74&#10;    c-0.004-0.003-0.009-0.006-0.013-0.009c0.002,0.178-0.001,0.366-0.015,0.542c-0.028,0.275-0.056,0.549-0.083,0.822&#10;    C125.745,138.245,126.049,138.434,126.354,138.587z"
   id="path82" />
			<path
   d="M128.189,139.466c-0.027,0.351-0.055,0.701-0.082,1.049c-0.135-0.021-0.27-0.048-0.405-0.081&#10;    c0.097-1.082,0.194-2.178,0.291-3.289c0.157,0.009,0.315,0.011,0.472,0.004c0.59,1.113,1.181,2.189,1.771,3.249&#10;    c-0.139,0.035-0.279,0.065-0.418,0.09c-0.185-0.342-0.37-0.686-0.555-1.033C128.905,139.498,128.547,139.502,128.189,139.466z&#10;     M129.108,139.121c-0.171-0.318-0.342-0.639-0.514-0.962c-0.111-0.219-0.2-0.421-0.288-0.618c-0.004,0-0.009,0-0.013,0&#10;    c0.002,0.196-0.001,0.407-0.015,0.612c-0.028,0.326-0.055,0.65-0.083,0.973C128.5,139.152,128.804,139.15,129.108,139.121z"
   id="path83" />
			<path
   d="M130.943,139.012c-0.027,0.4-0.055,0.799-0.083,1.197c-0.135,0.048-0.27,0.092-0.404,0.131&#10;    c0.097-1.245,0.194-2.504,0.291-3.777c0.157-0.072,0.315-0.15,0.472-0.234c0.59,0.934,1.181,1.859,1.771,2.794&#10;    c-0.139,0.091-0.278,0.178-0.417,0.261c-0.185-0.298-0.371-0.597-0.556-0.895C131.66,138.691,131.301,138.867,130.943,139.012z&#10;     M131.862,138.191c-0.171-0.272-0.342-0.544-0.513-0.817c-0.111-0.188-0.2-0.365-0.288-0.537&#10;    c-0.004,0.002-0.009,0.005-0.014,0.007c0.002,0.213-0.001,0.447-0.015,0.68c-0.028,0.372-0.056,0.743-0.083,1.112&#10;    C131.253,138.509,131.558,138.36,131.862,138.191z"
   id="path84" />
			<path
   d="M133.698,137.363c-0.027,0.445-0.055,0.889-0.083,1.333c-0.135,0.097-0.27,0.191-0.405,0.282&#10;    c0.097-1.394,0.194-2.801,0.291-4.221c0.157-0.131,0.315-0.266,0.472-0.404c0.59,0.84,1.181,1.7,1.771,2.597&#10;    c-0.139,0.126-0.279,0.25-0.418,0.372c-0.185-0.283-0.371-0.562-0.556-0.839C134.414,136.793,134.056,137.088,133.698,137.363z&#10;     M134.616,136.197c-0.171-0.25-0.342-0.499-0.513-0.745c-0.111-0.171-0.2-0.337-0.288-0.498&#10;    c-0.004,0.004-0.009,0.008-0.013,0.011c0.002,0.232-0.001,0.488-0.015,0.746c-0.028,0.415-0.056,0.828-0.083,1.24&#10;    C134.008,136.713,134.312,136.461,134.616,136.197z"
   id="path85" />
			<path
   d="M136.452,134.917c-0.027,0.486-0.055,0.972-0.083,1.456c-0.135,0.126-0.27,0.252-0.405,0.376&#10;    c0.097-1.529,0.194-3.07,0.291-4.625c0.157-0.167,0.314-0.334,0.472-0.505c0.591,0.832,1.181,1.711,1.772,2.655&#10;    c-0.139,0.142-0.279,0.282-0.418,0.423c-0.185-0.294-0.371-0.582-0.556-0.864C137.168,134.202,136.81,134.564,136.452,134.917z&#10;     M137.371,133.54c-0.171-0.254-0.342-0.503-0.514-0.748c-0.111-0.171-0.2-0.339-0.288-0.5c-0.004,0.005-0.009,0.01-0.013,0.014&#10;    c0.002,0.251-0.001,0.528-0.015,0.81c-0.028,0.452-0.055,0.903-0.083,1.353C136.762,134.166,137.066,133.855,137.371,133.54z"
   id="path86" />
			<path
   d="M139.206,132.073c-0.027,0.523-0.055,1.046-0.083,1.567c-0.135,0.137-0.27,0.275-0.404,0.412&#10;    c0.097-1.65,0.194-3.313,0.291-4.986c0.157-0.18,0.315-0.359,0.472-0.538c0.59,0.91,1.181,1.895,1.771,2.973&#10;    c-0.139,0.136-0.279,0.273-0.418,0.411c-0.185-0.332-0.37-0.654-0.555-0.969C139.922,131.317,139.564,131.695,139.206,132.073z&#10;     M140.125,130.62c-0.171-0.282-0.342-0.557-0.513-0.826c-0.111-0.188-0.2-0.371-0.288-0.544c-0.004,0.005-0.009,0.01-0.014,0.016&#10;    c0.002,0.27,0,0.567-0.015,0.871c-0.028,0.486-0.055,0.971-0.083,1.456C139.517,131.267,139.82,130.942,140.125,130.62z"
   id="path87" />
			<path
   d="M141.96,129.232c-0.027,0.556-0.055,1.112-0.083,1.667c-0.135,0.127-0.27,0.257-0.405,0.387&#10;    c0.097-1.757,0.194-3.525,0.291-5.304c0.157-0.169,0.315-0.337,0.472-0.502c0.59,1.074,1.181,2.25,1.771,3.545&#10;    c-0.139,0.111-0.278,0.225-0.417,0.341c-0.186-0.396-0.371-0.781-0.556-1.154C142.676,128.54,142.318,128.881,141.96,129.232z&#10;     M142.879,127.834c-0.171-0.335-0.342-0.661-0.513-0.979c-0.111-0.219-0.2-0.429-0.288-0.631&#10;    c-0.004,0.005-0.009,0.01-0.014,0.015c0.002,0.29-0.001,0.609-0.015,0.931c-0.028,0.517-0.056,1.033-0.083,1.547&#10;    C142.271,128.415,142.575,128.12,142.879,127.834z"
   id="path88" />
			<path
   d="M144.715,126.794c-0.027,0.586-0.055,1.17-0.083,1.754c-0.135,0.099-0.27,0.201-0.405,0.305&#10;    c0.097-1.85,0.194-3.71,0.291-5.581c0.157-0.136,0.314-0.269,0.472-0.397c0.591,1.323,1.181,2.775,1.772,4.376&#10;    c-0.139,0.065-0.279,0.135-0.418,0.209c-0.185-0.488-0.371-0.962-0.556-1.422C145.431,126.268,145.073,126.521,144.715,126.794z&#10;     M145.633,125.586c-0.171-0.413-0.342-0.814-0.514-1.205c-0.111-0.268-0.2-0.519-0.288-0.759&#10;    c-0.004,0.004-0.009,0.007-0.013,0.011c0.002,0.31-0.001,0.647-0.015,0.988c-0.028,0.542-0.056,1.084-0.083,1.625&#10;    C145.025,126.011,145.329,125.79,145.633,125.586z"
   id="path89" />
			<path
   d="M147.469,125.158c-0.027,0.61-0.055,1.22-0.082,1.829c-0.135,0.051-0.27,0.106-0.405,0.165&#10;    c0.097-1.929,0.194-3.868,0.291-5.816c0.157-0.081,0.315-0.156,0.472-0.225c0.59,1.658,1.181,3.474,1.771,5.465&#10;    c-0.139,0-0.278,0.005-0.417,0.016c-0.185-0.606-0.371-1.195-0.556-1.768C148.185,124.902,147.827,125.015,147.469,125.158z&#10;     M148.388,124.273c-0.171-0.516-0.342-1.018-0.514-1.506c-0.111-0.333-0.2-0.637-0.288-0.928&#10;    c-0.004,0.001-0.009,0.003-0.013,0.005c0.001,0.33-0.001,0.689-0.015,1.044c-0.028,0.564-0.055,1.128-0.083,1.691&#10;    C147.779,124.455,148.083,124.352,148.388,124.273z"
   id="path90" />
			<path
   d="M150.223,124.725c-0.027,0.632-0.055,1.263-0.083,1.893c-0.135-0.018-0.27-0.029-0.404-0.036&#10;    c0.097-1.993,0.194-3.996,0.291-6.006c0.157-0.002,0.315,0.003,0.472,0.016c0.59,2.079,1.181,4.343,1.771,6.809&#10;    c-0.139-0.086-0.279-0.165-0.418-0.236c-0.185-0.751-0.37-1.483-0.555-2.196C150.939,124.844,150.581,124.764,150.223,124.725z&#10;     M151.142,124.295c-0.171-0.643-0.342-1.27-0.513-1.881c-0.111-0.413-0.2-0.783-0.288-1.14c-0.004,0-0.009,0-0.014-0.001&#10;    c0.002,0.351-0.001,0.728-0.015,1.096c-0.028,0.583-0.056,1.166-0.083,1.747C150.533,124.146,150.837,124.205,151.142,124.295z"
   id="path91" />
			<path
   d="M152.978,125.893c-0.027,0.649-0.055,1.298-0.083,1.945c-0.135-0.105-0.27-0.204-0.405-0.295&#10;    c0.097-2.044,0.194-4.096,0.291-6.156c0.157,0.099,0.314,0.208,0.472,0.326c0.591,2.585,1.181,5.383,1.772,8.412&#10;    c-0.139-0.192-0.278-0.376-0.417-0.551c-0.186-0.924-0.371-1.825-0.556-2.705C153.693,126.49,153.335,126.166,152.978,125.893z&#10;     M153.896,126.054c-0.171-0.795-0.342-1.573-0.513-2.332c-0.112-0.511-0.201-0.961-0.288-1.394&#10;    c-0.004-0.003-0.009-0.006-0.013-0.009c0.002,0.371-0.001,0.767-0.015,1.147c-0.028,0.597-0.056,1.192-0.083,1.788&#10;    C153.288,125.483,153.592,125.749,153.896,126.054z"
   id="path92" />
		</g>
	</g>
	<g
   id="g95">
		<path
   d="M54.293,134.636l-2.226-6.469h0.957l1.058,3.187c0.282,0.873,0.534,1.67,0.725,2.418h0.02&#10;   c0.191-0.748,0.463-1.564,0.775-2.408l1.148-3.196h0.937l-2.427,6.469H54.293z"
   id="path93" />
		<path
   d="M58.42,128.253c0.423-0.076,0.977-0.134,1.682-0.134c0.866,0,1.5,0.191,1.903,0.537c0.373,0.308,0.604,0.777,0.604,1.354&#10;   c0,0.585-0.182,1.046-0.534,1.382c-0.463,0.471-1.218,0.71-2.074,0.71c-0.262,0-0.504-0.009-0.705-0.058v2.592H58.42V128.253z&#10;    M59.296,131.364c0.191,0.048,0.443,0.066,0.725,0.066c1.067,0,1.702-0.499,1.702-1.372c0-0.864-0.634-1.276-1.601-1.276&#10;   c-0.383,0-0.675,0.038-0.826,0.067V131.364z"
   id="path94" />
		<path
   d="M67.915,133.955c0,1.075-0.231,1.718-0.695,2.131c-0.483,0.413-1.168,0.557-1.782,0.557c-0.584,0-1.229-0.135-1.622-0.384&#10;   l0.222-0.652c0.322,0.201,0.826,0.374,1.43,0.374c0.906,0,1.571-0.451,1.571-1.632v-0.509h-0.02&#10;   c-0.262,0.433-0.796,0.777-1.551,0.777c-1.209,0-2.075-0.979-2.075-2.274c0-1.574,1.078-2.457,2.206-2.457&#10;   c0.846,0,1.299,0.413,1.521,0.797h0.02l0.03-0.691h0.786c-0.03,0.326-0.041,0.701-0.041,1.268V133.955z M67.029,131.815&#10;   c0-0.135-0.01-0.26-0.05-0.375c-0.161-0.499-0.584-0.902-1.239-0.902c-0.846,0-1.45,0.682-1.45,1.767&#10;   c0,0.902,0.494,1.67,1.44,1.67c0.554,0,1.047-0.326,1.229-0.874c0.05-0.134,0.07-0.297,0.07-0.45V131.815z"
   id="path95" />
	</g>
</g>
<g
   id="VP4">
	<g
   id="css:colorshift_4_"
   class="colorshift">
		<g
   id="highlight:enterovirus_genome:VP4">
			<path
   fill="#8BD1C9"
   stroke="#000000"
   stroke-width="0.5"
   d="M85.8,32.773c-2.681-1.59-4.967-3.648-6.748-6.03&#10;    c0.011,0.015,0.024,0.028,0.035,0.042c-0.304,2.943-1.2,5.868-2.669,8.598c-3.548,1.478-7.9,3.686-11.509,5.732&#10;    c2.144,2.833,5.222,4.677,8.575,5.301c3.373-1.589,6.914-2.935,10.628-3.967c3.45-0.96,6.913-1.622,10.36-2.017&#10;    c2.408-2.233,4-5.288,4.378-8.684C94.653,31.847,89.673,32.202,85.8,32.773z"
   id="path96"
   style="fill:#ef899e;fill-opacity:1" />
			<path
   fill="#8BD1C9"
   stroke="#000000"
   stroke-width="0.5"
   d="M53.124,49.11c-3.117-0.036-6.125-0.676-8.859-1.848&#10;    c0.017,0.007,0.035,0.012,0.052,0.019c1.208,2.701,1.894,5.682,1.987,8.781c-2.333,3.054-4.999,7.142-7.101,10.719&#10;    c3.273,1.382,6.861,1.44,10.077,0.303c2.126-3.063,4.521-5.999,7.221-8.75c2.508-2.556,5.176-4.861,7.964-6.927&#10;    c0.969-3.138,0.82-6.58-0.55-9.709C60.327,43.882,56.192,46.679,53.124,49.11z"
   id="path97"
   style="fill:#ef899e;fill-opacity:1" />
			<path
   fill="#8BD1C9"
   stroke="#000000"
   stroke-width="0.5"
   d="M32.959,79.809c-2.717,1.527-5.643,2.478-8.596,2.83&#10;    c0.018-0.002,0.037-0.008,0.055-0.01c2.397,1.735,4.481,3.974,6.111,6.611c-0.494,3.812-0.758,8.685-0.79,12.833&#10;    c3.525-0.44,6.662-2.184,8.878-4.776c0.31-3.716,0.916-7.455,1.878-11.188c0.894-3.468,2.052-6.798,3.434-9.98&#10;    c-0.729-3.203-2.579-6.108-5.331-8.134C36.583,71.68,34.4,76.169,32.959,79.809z"
   id="path98"
   style="fill:#ef899e;fill-opacity:1" />
			<path
   fill="#8BD1C9"
   stroke="#000000"
   stroke-width="0.5"
   d="M30.676,116.516c-1.59,2.681-3.648,4.968-6.03,6.749&#10;    c0.014-0.012,0.028-0.025,0.042-0.036c2.943,0.305,5.867,1.2,8.598,2.669c1.478,3.548,3.686,7.9,5.732,11.509&#10;    c2.833-2.144,4.677-5.222,5.301-8.574c-1.589-3.374-2.935-6.915-3.967-10.628c-0.959-3.451-1.622-6.914-2.017-10.36&#10;    c-2.233-2.409-5.288-4-8.684-4.379C29.75,107.664,30.104,112.643,30.676,116.516z"
   id="path99"
   style="fill:#ef899e;fill-opacity:1" />
			<path
   fill="#8BD1C9"
   stroke="#000000"
   stroke-width="0.5"
   d="M47.016,149.236c-0.037,3.115-0.676,6.125-1.848,8.859&#10;    c0.006-0.018,0.012-0.037,0.019-0.053c2.701-1.207,5.681-1.895,8.78-1.988c3.054,2.334,7.142,5,10.719,7.102&#10;    c1.381-3.273,1.439-6.861,0.304-10.076c-3.063-2.127-6-4.521-8.75-7.22c-2.557-2.51-4.862-5.177-6.927-7.964&#10;    c-3.138-0.971-6.58-0.821-9.709,0.549C41.788,142.032,44.585,146.168,47.016,149.236z"
   id="path100"
   style="fill:#ef899e;fill-opacity:1" />
			<path
   fill="#8BD1C9"
   stroke="#000000"
   stroke-width="0.5"
   d="M77.606,169.193c1.526,2.719,2.478,5.645,2.83,8.598&#10;    c-0.002-0.018-0.008-0.037-0.01-0.057c1.736-2.395,3.973-4.479,6.61-6.109c3.812,0.494,8.685,0.758,12.833,0.789&#10;    c-0.44-3.525-2.184-6.66-4.775-8.879c-3.717-0.309-7.456-0.914-11.188-1.877c-3.469-0.895-6.799-2.053-9.98-3.434&#10;    c-3.203,0.729-6.109,2.578-8.134,5.33C69.478,165.57,73.967,167.753,77.606,169.193z"
   id="path101"
   style="fill:#ef899e;fill-opacity:1" />
			<path
   fill="#8BD1C9"
   stroke="#000000"
   stroke-width="0.5"
   d="M114.067,171.408c2.681,1.592,4.968,3.648,6.749,6.031&#10;    c-0.011-0.014-0.025-0.029-0.036-0.043c0.305-2.943,1.201-5.867,2.669-8.598c3.548-1.479,7.9-3.686,11.508-5.732&#10;    c-2.144-2.832-5.221-4.676-8.574-5.301c-3.374,1.59-6.915,2.936-10.627,3.967c-3.452,0.959-6.914,1.623-10.36,2.018&#10;    c-2.41,2.232-4.001,5.287-4.379,8.684C105.215,172.335,110.195,171.98,114.067,171.408z"
   id="path102"
   style="fill:#ef899e;fill-opacity:1" />
			<path
   fill="#8BD1C9"
   stroke="#000000"
   stroke-width="0.5"
   d="M146.786,155.068c3.117,0.037,6.126,0.676,8.86,1.848&#10;    c-0.016-0.006-0.036-0.012-0.053-0.02c-1.207-2.701-1.894-5.68-1.987-8.779c2.333-3.054,4.999-7.143,7.1-10.719&#10;    c-3.272-1.381-6.86-1.439-10.076-0.304c-2.126,3.063-4.52,5.999-7.22,8.75c-2.51,2.556-5.177,4.861-7.963,6.925&#10;    c-0.971,3.139-0.822,6.58,0.549,9.711C139.583,160.296,143.719,157.5,146.786,155.068z"
   id="path103"
   style="fill:#ef899e;fill-opacity:1" />
			<path
   fill="#8BD1C9"
   stroke="#000000"
   stroke-width="0.5"
   d="M166.954,124.368c2.718-1.526,5.644-2.478,8.597-2.83&#10;    c-0.017,0.004-0.037,0.009-0.055,0.011c-2.396-1.735-4.48-3.973-6.111-6.61c0.494-3.812,0.758-8.686,0.79-12.833&#10;    c-3.524,0.44-6.661,2.184-8.878,4.775c-0.31,3.716-0.915,7.455-1.877,11.188c-0.896,3.468-2.053,6.798-3.434,9.979&#10;    c0.729,3.203,2.578,6.109,5.331,8.135C163.33,132.498,165.513,128.008,166.954,124.368z"
   id="path104"
   style="fill:#ef899e;fill-opacity:1" />
			<path
   fill="#8BD1C9"
   stroke="#000000"
   stroke-width="0.5"
   d="M169.173,87.907c1.59-2.681,3.648-4.968,6.03-6.749&#10;    c-0.013,0.012-0.028,0.026-0.042,0.037c-2.942-0.306-5.866-1.201-8.597-2.67c-1.478-3.548-3.687-7.9-5.733-11.508&#10;    c-2.832,2.144-4.676,5.221-5.301,8.575c1.589,3.373,2.935,6.914,3.968,10.627c0.958,3.451,1.622,6.914,2.016,10.359&#10;    c2.233,2.41,5.288,4.002,8.684,4.38C170.1,96.759,169.745,91.779,169.173,87.907z"
   id="path105"
   style="fill:#ef899e;fill-opacity:1" />
			<path
   fill="#8BD1C9"
   stroke="#000000"
   stroke-width="0.5"
   d="M152.832,55.188c0.037-3.117,0.676-6.126,1.847-8.86&#10;    c-0.005,0.017-0.011,0.037-0.018,0.053c-2.701,1.207-5.681,1.893-8.78,1.986c-3.054-2.333-7.143-4.999-10.719-7.1&#10;    c-1.381,3.272-1.439,6.859-0.303,10.076c3.063,2.126,5.999,4.52,8.75,7.219c2.555,2.51,4.861,5.177,6.925,7.963&#10;    c3.139,0.971,6.581,0.822,9.711-0.549C158.061,62.391,155.264,58.255,152.832,55.188z"
   id="path106"
   style="fill:#ef899e;fill-opacity:1" />
			<path
   fill="#8BD1C9"
   stroke="#000000"
   stroke-width="0.5"
   d="M122.306,34.98c-1.526-2.718-2.478-5.644-2.83-8.597&#10;    c0.004,0.017,0.009,0.037,0.011,0.055c-1.736,2.396-3.973,4.48-6.611,6.11c-3.812-0.494-8.685-0.757-12.833-0.789&#10;    c0.44,3.524,2.183,6.66,4.775,8.877c3.716,0.31,7.455,0.915,11.188,1.877c3.467,0.896,6.798,2.052,9.979,3.434&#10;    c3.204-0.729,6.11-2.578,8.135-5.331C130.436,38.604,125.946,36.42,122.306,34.98z"
   id="path107"
   style="fill:#ef899e;fill-opacity:1" />
		</g>
	</g>
</g>
<g
   id="Layer_5">
	<g
   id="g109"
   style="display:inline">
		<g
   id="g108">
			<line
   fill="none"
   stroke="#000000"
   x1="213.882"
   y1="87.728996"
   x2="198.257"
   y2="94.021004"
   id="line107" />
			<path
   d="m 196.449,95.854 c 1.72,-0.154 2.889,-0.129 4.318,-0.13 l -1.884,-4.68 c -0.356,0.387 -1.856,1.818 -3.204,2.898 -1.441,1.157 -2.793,2.096 -3.71,2.605 1.014,-0.268 2.639,-0.528 4.48,-0.693 z"
   id="path108" />
		</g>
	</g>
	<g
   id="g111"
   style="display:inline">
		<g
   id="g110">
			<line
   fill="none"
   stroke="#000000"
   x1="215.257"
   y1="111.021"
   x2="198.257"
   y2="108.021"
   id="line109" />
			<path
   d="m 195.753,108.619 c 1.541,0.779 2.52,1.419 3.733,2.174 l 0.876,-4.968 c -0.507,0.14 -2.537,0.561 -4.252,0.765 -1.835,0.219 -3.479,0.3 -4.526,0.248 1.003,0.309 2.52,0.948 4.169,1.781 z"
   id="path109" />
		</g>
	</g>
	<g
   id="g113"
   style="display:inline">
		<g
   id="g112">
			<line
   fill="none"
   stroke="#000000"
   x1="213.591"
   y1="138.021"
   x2="169.77901"
   y2="121.543"
   id="line111" />
			<path
   d="m 167.208,121.671 c 1.372,1.05 2.215,1.858 3.27,2.823 l 1.776,-4.722 c -0.524,0.044 -2.597,0.084 -4.32,-0.031 -1.845,-0.122 -3.475,-0.345 -4.495,-0.589 0.927,0.489 2.3,1.396 3.769,2.519 z"
   id="path111" />
		</g>
	</g>
	<g
   id="g115"
   style="display:inline">
		<path
   d="m 219.874,142.109 -3.011,-9.184 h 1.294 l 1.431,4.524 c 0.381,1.24 0.722,2.371 0.981,3.434 h 0.027 c 0.259,-1.063 0.627,-2.221 1.049,-3.42 l 1.553,-4.538 h 1.267 l -3.284,9.184 z"
   id="path113" />
		<path
   d="m 225.464,133.048 c 0.572,-0.109 1.322,-0.19 2.275,-0.19 1.172,0 2.03,0.272 2.575,0.763 0.504,0.436 0.818,1.104 0.818,1.921 0,0.831 -0.245,1.485 -0.722,1.962 -0.627,0.667 -1.649,1.008 -2.807,1.008 -0.354,0 -0.681,-0.014 -0.954,-0.082 v 3.679 h -1.186 v -9.061 z m 1.186,4.415 c 0.259,0.068 0.6,0.095 0.981,0.095 1.444,0 2.303,-0.708 2.303,-1.948 0,-1.227 -0.858,-1.813 -2.167,-1.813 -0.518,0 -0.913,0.055 -1.117,0.096 z"
   id="path114" />
		<path
   d="m 236,142.109 v -2.412 h -4.115 v -0.777 l 3.951,-5.668 h 1.294 v 5.519 h 1.24 v 0.927 h -1.24 v 2.412 H 236 Z m 0,-3.338 V 135.8 c 0,-0.463 0.014,-0.926 0.041,-1.39 H 236 c -0.272,0.518 -0.49,0.899 -0.736,1.322 l -2.167,3.011 v 0.027 H 236 Z"
   id="path115" />
	</g>
	<g
   id="g118">
		<path
   d="M358.833,85.223l-3.011-9.184h1.294l1.431,4.524c0.382,1.24,0.723,2.371,0.981,3.434h0.027&#10;   c0.259-1.063,0.627-2.221,1.049-3.42l1.554-4.538h1.268l-3.284,9.184H358.833z"
   id="path116" />
		<path
   d="M364.424,76.162c0.572-0.109,1.322-0.19,2.276-0.19c1.172,0,2.03,0.272,2.575,0.763c0.504,0.436,0.817,1.104,0.817,1.921&#10;   c0,0.831-0.245,1.485-0.723,1.962c-0.626,0.667-1.648,1.008-2.807,1.008c-0.354,0-0.682-0.014-0.954-0.082v3.679h-1.186V76.162z&#10;    M365.61,80.577c0.259,0.068,0.6,0.095,0.981,0.095c1.444,0,2.303-0.708,2.303-1.948c0-1.227-0.858-1.813-2.166-1.813&#10;   c-0.519,0-0.913,0.055-1.118,0.096V80.577z"
   id="path117" />
		<path
   d="M373.858,77.483h-0.027l-1.54,0.832l-0.231-0.913l1.935-1.036h1.022v8.857h-1.158V77.483z"
   id="path118" />
	</g>
	<g
   id="g121"
   style="display:inline">
		<path
   d="m 346.32,115.848 -3.012,-9.184 h 1.294 l 1.431,4.524 c 0.382,1.24 0.723,2.371 0.981,3.434 h 0.027 c 0.259,-1.063 0.627,-2.221 1.049,-3.42 l 1.554,-4.538 h 1.268 l -3.284,9.184 z"
   id="path119" />
		<path
   d="m 351.91,106.786 c 0.572,-0.109 1.322,-0.19 2.276,-0.19 1.172,0 2.03,0.272 2.575,0.763 0.504,0.436 0.817,1.104 0.817,1.921 0,0.831 -0.245,1.485 -0.723,1.962 -0.626,0.667 -1.648,1.008 -2.807,1.008 -0.354,0 -0.682,-0.014 -0.954,-0.082 v 3.679 h -1.186 v -9.061 z m 1.185,4.415 c 0.259,0.068 0.6,0.095 0.981,0.095 1.444,0 2.303,-0.708 2.303,-1.948 0,-1.227 -0.858,-1.813 -2.166,-1.813 -0.519,0 -0.913,0.055 -1.118,0.096 z"
   id="path120" />
		<path
   d="m 358.741,115.848 v -0.736 l 0.94,-0.913 c 2.262,-2.153 3.297,-3.297 3.297,-4.633 0,-0.899 -0.422,-1.73 -1.744,-1.73 -0.804,0 -1.472,0.409 -1.88,0.75 l -0.382,-0.845 c 0.6,-0.504 1.485,-0.899 2.507,-0.899 1.895,0 2.698,1.308 2.698,2.575 0,1.635 -1.186,2.957 -3.052,4.756 l -0.695,0.654 v 0.027 h 3.965 v 0.995 h -5.654 z"
   id="path121" />
	</g>
	<g
   id="g124"
   style="display:inline">
		<path
   d="m 380.3,111.529 -3.011,-9.184 h 1.294 l 1.431,4.524 c 0.382,1.24 0.723,2.371 0.981,3.434 h 0.027 c 0.259,-1.063 0.627,-2.221 1.049,-3.42 l 1.554,-4.538 h 1.268 l -3.284,9.184 z"
   id="path122" />
		<path
   d="m 385.891,102.468 c 0.572,-0.109 1.322,-0.19 2.276,-0.19 1.172,0 2.03,0.272 2.575,0.763 0.504,0.436 0.817,1.104 0.817,1.921 0,0.831 -0.245,1.485 -0.723,1.962 -0.626,0.667 -1.648,1.008 -2.807,1.008 -0.354,0 -0.682,-0.014 -0.954,-0.082 v 3.679 h -1.186 v -9.061 z m 1.186,4.415 c 0.259,0.068 0.6,0.095 0.981,0.095 1.444,0 2.303,-0.708 2.303,-1.948 0,-1.227 -0.858,-1.813 -2.166,-1.813 -0.519,0 -0.913,0.055 -1.118,0.096 z"
   id="path123" />
		<path
   d="m 393.008,110.167 c 0.341,0.205 1.117,0.545 1.962,0.545 1.526,0 2.017,-0.968 2.003,-1.717 -0.014,-1.24 -1.131,-1.771 -2.289,-1.771 h -0.668 v -0.899 h 0.668 c 0.872,0 1.976,-0.45 1.976,-1.499 0,-0.708 -0.449,-1.335 -1.553,-1.335 -0.709,0 -1.391,0.313 -1.771,0.586 l -0.327,-0.872 c 0.477,-0.34 1.376,-0.681 2.33,-0.681 1.744,0 2.534,1.036 2.534,2.112 0,0.927 -0.559,1.704 -1.635,2.099 v 0.027 c 1.09,0.204 1.976,1.022 1.976,2.262 0,1.417 -1.117,2.657 -3.229,2.657 -0.994,0 -1.866,-0.313 -2.303,-0.6 z"
   id="path124" />
	</g>
	<g
   id="g127"
   style="display:inline">
		<path
   d="m 219.873,64.948 -3.011,-9.184 h 1.294 l 1.431,4.524 c 0.381,1.24 0.722,2.371 0.981,3.434 h 0.027 c 0.259,-1.063 0.627,-2.221 1.049,-3.42 l 1.553,-4.538 h 1.267 l -3.284,9.184 z"
   id="path125" />
		<path
   d="m 225.463,55.887 c 0.572,-0.109 1.322,-0.19 2.275,-0.19 1.172,0 2.03,0.272 2.575,0.763 0.504,0.436 0.818,1.104 0.818,1.921 0,0.831 -0.245,1.485 -0.722,1.962 -0.627,0.667 -1.649,1.008 -2.807,1.008 -0.354,0 -0.681,-0.014 -0.954,-0.082 v 3.679 h -1.186 v -9.061 z m 1.186,4.415 c 0.259,0.068 0.6,0.095 0.981,0.095 1.444,0 2.303,-0.708 2.303,-1.948 0,-1.227 -0.858,-1.813 -2.167,-1.813 -0.518,0 -0.913,0.055 -1.117,0.096 z"
   id="path126" />
		<path
   d="m 234.896,57.208 h -0.027 l -1.54,0.832 -0.232,-0.913 1.935,-1.036 h 1.022 v 8.857 h -1.158 z"
   id="path127" />
	</g>
	<g
   id="g130"
   style="display:inline">
		<path
   d="m 219.874,90.668 -3.011,-9.184 h 1.294 l 1.431,4.524 c 0.381,1.24 0.722,2.371 0.981,3.434 h 0.027 c 0.259,-1.063 0.627,-2.221 1.049,-3.42 l 1.553,-4.538 h 1.267 l -3.284,9.184 z"
   id="path128" />
		<path
   d="m 225.464,81.606 c 0.572,-0.109 1.322,-0.19 2.275,-0.19 1.172,0 2.03,0.272 2.575,0.763 0.504,0.436 0.818,1.104 0.818,1.921 0,0.831 -0.245,1.485 -0.722,1.962 -0.627,0.667 -1.649,1.008 -2.807,1.008 -0.354,0 -0.681,-0.014 -0.954,-0.082 v 3.679 h -1.186 v -9.061 z m 1.185,4.415 c 0.259,0.068 0.6,0.095 0.981,0.095 1.444,0 2.303,-0.708 2.303,-1.948 0,-1.227 -0.858,-1.813 -2.167,-1.813 -0.518,0 -0.913,0.055 -1.117,0.096 z"
   id="path129" />
		<path
   d="m 232.294,90.668 v -0.736 l 0.94,-0.913 c 2.262,-2.153 3.298,-3.297 3.298,-4.633 0,-0.899 -0.422,-1.73 -1.744,-1.73 -0.804,0 -1.472,0.409 -1.88,0.75 l -0.382,-0.845 c 0.6,-0.504 1.485,-0.899 2.507,-0.899 1.894,0 2.698,1.308 2.698,2.575 0,1.635 -1.185,2.957 -3.052,4.756 l -0.695,0.654 v 0.027 h 3.965 v 0.995 h -5.655 z"
   id="path130" />
	</g>
	<g
   id="g133"
   style="display:inline">
		<path
   d="m 219.874,116.388 -3.011,-9.184 h 1.294 l 1.431,4.524 c 0.381,1.24 0.722,2.371 0.981,3.434 h 0.027 c 0.259,-1.063 0.627,-2.221 1.049,-3.42 l 1.553,-4.538 h 1.267 l -3.284,9.184 z"
   id="path131" />
		<path
   d="m 225.464,107.327 c 0.572,-0.109 1.322,-0.19 2.275,-0.19 1.172,0 2.03,0.272 2.575,0.763 0.504,0.436 0.818,1.104 0.818,1.921 0,0.831 -0.245,1.485 -0.722,1.962 -0.627,0.667 -1.649,1.008 -2.807,1.008 -0.354,0 -0.681,-0.014 -0.954,-0.082 v 3.679 h -1.186 v -9.061 z m 1.185,4.415 c 0.259,0.068 0.6,0.095 0.981,0.095 1.444,0 2.303,-0.708 2.303,-1.948 0,-1.227 -0.858,-1.813 -2.167,-1.813 -0.518,0 -0.913,0.055 -1.117,0.096 z"
   id="path132" />
		<path
   d="m 232.58,115.025 c 0.34,0.205 1.117,0.545 1.962,0.545 1.526,0 2.017,-0.968 2.003,-1.717 -0.014,-1.24 -1.131,-1.771 -2.29,-1.771 h -0.667 v -0.899 h 0.667 c 0.872,0 1.976,-0.45 1.976,-1.499 0,-0.708 -0.45,-1.335 -1.554,-1.335 -0.708,0 -1.39,0.313 -1.771,0.586 l -0.327,-0.872 c 0.477,-0.34 1.376,-0.681 2.33,-0.681 1.744,0 2.534,1.036 2.534,2.112 0,0.927 -0.559,1.704 -1.635,2.099 v 0.027 c 1.09,0.204 1.976,1.022 1.976,2.262 0,1.417 -1.117,2.657 -3.229,2.657 -0.995,0 -1.867,-0.313 -2.303,-0.6 z"
   id="path133" />
	</g>
	<g
   id="g135">
		<g
   id="g134">
			<line
   fill="none"
   stroke="#000000"
   x1="212.971"
   y1="60.838"
   x2="194.441"
   y2="62.445"
   id="line133" />
			<path
   d="M192.176,63.67c1.69,0.355,2.801,0.72,4.168,1.136l-0.436-5.025c-0.453,0.266-2.307,1.196-3.91,1.836&#10;    c-1.717,0.686-3.284,1.188-4.309,1.408C188.738,63.065,190.368,63.291,192.176,63.67z"
   id="path134" />
		</g>
	</g>
</g>
<g
   id="g136">
</g>
<g
   id="g137">
</g>
<g
   id="g138">
</g>
<g
   id="g139">
</g>
<g
   id="g140">
</g>
<g
   id="g141">
</g>
</svg>
