<svg version="1.1" id="enterovirus_genome" xmlns="http://www.w3.org/2000/svg" xmlns:xlink="http://www.w3.org/1999/xlink" x="0px" y="0px" viewBox="0 0 677.333 276" enable-background="new 0 0 677.333 276" xml:space="preserve" class="inline_svg">
<rect x="84.994" y="97.103" fill="#D8D8D8" stroke="#000000" stroke-width="0.5" width="420.667" height="25.903"/>
<g id="uniprot:P03300">
	
	
	
	
	
	
	
	
	
	
	
	
	
	
	
	
	
	
	
	
	
	
	
	
	
	
	
	
	
<a href="https://www.uniprot.org/uniprotkb/P03300/entry" target="_blank"><title/><g id="VPG">
		<g id="highlight:enterovirus_virion:VPG">
			<g id="css:colorshift_4_" class="colorshift">
				<g id="Layer_22">
					<rect x="374.504" y="28.206" fill="#91F2ED" stroke="#000000" stroke-width="0.5" width="15.157" height="25.902"/>
					<ellipse fill="#91F2ED" stroke="#000000" stroke-width="0.5" cx="29.125" cy="53.398" rx="10.923" ry="9.09"/>
					<rect x="542.17" y="248.496" fill="#91F2ED" stroke="#000000" stroke-width="0.5" width="12.824" height="25.902"/>
				</g>
			</g>
		</g>
	</g><g id="VP4">
		<g id="highlight:enterovirus_virion:VP4">
			<g id="css:colorshift_3_" class="colorshift">
				<g id="Layer_13">
					<rect x="83.41" y="28.206" fill="#8BD1C9" stroke="#000000" stroke-width="0.5" width="24.917" height="25.902"/>
					<rect x="84.41" y="228.312" fill="#8BD1C9" stroke="#000000" stroke-width="0.5" width="20.584" height="25.902"/>
				</g>
			</g>
		</g>
	</g><g id="VP3">
		<g id="highlight:enterovirus_virion:VP3">
			<g id="css:colorshift_2_" class="colorshift">
				<g id="Layer_5">
					<rect x="138.358" y="28.206" fill="#82C44E" stroke="#000000" stroke-width="0.5" width="40.704" height="25.902"/>
					<rect x="139.905" y="195.83" fill="#82C44E" stroke="#000000" stroke-width="0.5" width="38.847" height="25.902"/>
				</g>
			</g>
		</g>
	</g><g id="VP2">
		<g id="highlight:enterovirus_virion:VP2">
			<g id="css:colorshift_1_" class="colorshift">
				<g id="Layer_9">
					<rect x="108.328" y="28.206" fill="#9BDD7C" stroke="#000000" stroke-width="0.5" width="30.031" height="25.902"/>
					<rect x="109.094" y="228.312" fill="#9BDD7C" stroke="#000000" stroke-width="0.5" width="28.317" height="25.902"/>
				</g>
			</g>
		</g>
	</g><g id="VP1">
		<g id="highlight:enterovirus_virion:VP1">
			<g id="css:colorshift" class="colorshift">
				<g id="Layer_18">
					<rect x="179.063" y="28.206" fill="#69B0AC" stroke="#00005E" stroke-width="0.5" width="40.098" height="25.902"/>
					<rect x="180.063" y="162.863" fill="#69B0AC" stroke="#00005E" stroke-width="0.5" width="36.719" height="25.902"/>
				</g>
			</g>
		</g>
	</g><rect x="84.327" y="130.125" fill="#D8D8D8" stroke="#000000" stroke-width="0.5" width="132.454" height="25.902"/><rect x="84.327" y="162.863" fill="#D8D8D8" stroke="#000000" stroke-width="0.5" width="94.454" height="25.902"/><rect x="360.904" y="181.363" fill="#ACADAC" stroke="#000000" stroke-width="0.5" width="27.422" height="25.902"/><rect x="391.603" y="181.363" fill="#ACADAC" stroke="#000000" stroke-width="0.5" width="115.392" height="25.902"/><rect x="84.327" y="195.83" fill="#9BDD7C" stroke="#000000" stroke-width="0.5" width="54.121" height="25.902"/><rect x="253.994" y="195.83" fill="#8FB0E5" stroke="#000000" stroke-width="0.5" width="17.5" height="25.902"/><g>
		<rect x="273.328" y="195.83" fill="#8FB0E5" stroke="#000000" stroke-width="0.5" width="82.689" height="25.902"/>
	</g><rect x="542.662" y="217.83" fill="#D8D8D8" stroke="#000000" stroke-width="0.5" width="42.665" height="25.902"/><rect x="587.995" y="217.83" fill="#ACADAC" stroke="#000000" stroke-width="0.5" width="84.666" height="25.902"/><rect x="527.329" y="181.83" fill="#ACADAC" stroke="#000000" stroke-width="0.5" width="14.133" height="25.902"/><rect x="221.66" y="130.125" fill="#D8D8D8" stroke="#000000" stroke-width="0.5" width="133.787" height="25.902"/><rect x="253.328" y="162.863" fill="#D8D8D8" stroke="#000000" stroke-width="0.5" width="102.379" height="25.902"/><rect x="359.66" y="130.125" fill="#D8D8D8" stroke="#000000" stroke-width="0.5" width="146.454" height="25.902"/><rect x="557.329" y="248.496" fill="#C7A9E0" stroke="#000000" stroke-width="0.5" width="27.998" height="25.902"/><rect x="221.661" y="162.863" fill="#8FB0E5" stroke="#000000" stroke-width="0.5" width="27.954" height="25.902"/><rect x="544.937" y="181.363" fill="#D8D8D8" stroke="#000000" stroke-width="0.5" width="128.724" height="25.902"/><line fill="none" stroke="#000000" x1="39.861" y1="54.418" x2="517.326" y2="54.418"/><rect x="219.16" y="28.206" fill="#8FB0E5" stroke="#000000" stroke-width="0.5" width="31.334" height="25.902"/><rect x="250.494" y="28.206" fill="#8FB0E5" stroke="#000000" stroke-width="0.5" width="21.834" height="25.902"/><g>
		<rect x="272.328" y="28.206" fill="#8FB0E5" stroke="#000000" stroke-width="0.5" width="86.668" height="25.902"/>
	</g><rect x="389.662" y="28.206" fill="#C7A9E0" stroke="#000000" stroke-width="0.5" width="30.667" height="25.902"/><rect x="420.329" y="28.206" fill="#ACADAC" stroke="#000000" stroke-width="0.5" width="84.666" height="25.902"/><rect x="358.996" y="28.206" fill="#ACADAC" stroke="#000000" stroke-width="0.5" width="15.417" height="25.902"/><rect x="64.66" y="54.206" fill="#D8ADE0" stroke="#000000" stroke-width="0.5" width="22.167" height="13.402"/></a></g>
<g id="Layer_14">
	<g>
		<path d="M350.042,77.176c-0.372,0.192-1.151,0.384-2.135,0.384c-2.279,0-3.982-1.439-3.982-4.102c0-2.542,1.715-4.246,4.222-4.246&#10;&#9;&#9;&#9;c0.995,0,1.644,0.216,1.919,0.36l-0.264,0.852c-0.384-0.192-0.947-0.336-1.619-0.336c-1.895,0-3.154,1.211-3.154,3.334&#10;&#9;&#9;&#9;c0,1.991,1.14,3.25,3.095,3.25c0.647,0,1.295-0.132,1.715-0.336L350.042,77.176z"/>
		<path d="M351.292,68.913h1.055v8.515h-1.055V68.913z"/>
		<path d="M354.7,74.706c0.023,1.427,0.923,2.015,1.979,2.015c0.756,0,1.224-0.132,1.607-0.288l0.191,0.744&#10;&#9;&#9;&#9;c-0.372,0.168-1.02,0.372-1.942,0.372c-1.775,0-2.854-1.188-2.854-2.927c0-1.763,1.043-3.142,2.734-3.142&#10;&#9;&#9;&#9;c1.895,0,2.387,1.667,2.387,2.734c0,0.216-0.012,0.384-0.036,0.504L354.7,74.706z M357.782,73.95&#10;&#9;&#9;&#9;c0.012-0.66-0.276-1.715-1.451-1.715c-1.079,0-1.535,0.984-1.619,1.715H357.782z"/>
		<path d="M364.201,76.037c0,0.503,0.024,0.995,0.084,1.391h-0.947l-0.096-0.731h-0.036c-0.312,0.456-0.947,0.863-1.775,0.863&#10;&#9;&#9;&#9;c-1.175,0-1.774-0.828-1.774-1.667c0-1.403,1.247-2.171,3.49-2.159v-0.12c0-0.479-0.132-1.355-1.319-1.343&#10;&#9;&#9;&#9;c-0.552,0-1.115,0.156-1.523,0.432l-0.24-0.708c0.48-0.3,1.188-0.503,1.919-0.503c1.787,0,2.219,1.211,2.219,2.375V76.037z&#10;&#9;&#9;&#9; M363.169,74.466c-1.151-0.024-2.458,0.18-2.458,1.307c0,0.696,0.455,1.008,0.983,1.008c0.768,0,1.259-0.48,1.427-0.972&#10;&#9;&#9;&#9;c0.036-0.108,0.048-0.228,0.048-0.336V74.466z"/>
		<path d="M366.148,71.624l1.14,3.25c0.191,0.54,0.348,1.02,0.468,1.499h0.036c0.132-0.479,0.3-0.959,0.491-1.499l1.128-3.25h1.103&#10;&#9;&#9;&#9;l-2.278,5.805h-1.008l-2.206-5.805H366.148z"/>
		<path d="M375.433,76.037c0,0.503,0.024,0.995,0.084,1.391h-0.947l-0.096-0.731h-0.036c-0.312,0.456-0.947,0.863-1.775,0.863&#10;&#9;&#9;&#9;c-1.175,0-1.774-0.828-1.774-1.667c0-1.403,1.247-2.171,3.49-2.159v-0.12c0-0.479-0.132-1.355-1.319-1.343&#10;&#9;&#9;&#9;c-0.552,0-1.115,0.156-1.523,0.432l-0.24-0.708c0.48-0.3,1.188-0.503,1.919-0.503c1.787,0,2.219,1.211,2.219,2.375V76.037z&#10;&#9;&#9;&#9; M374.402,74.466c-1.151-0.024-2.458,0.18-2.458,1.307c0,0.696,0.455,1.008,0.983,1.008c0.768,0,1.259-0.48,1.427-0.972&#10;&#9;&#9;&#9;c0.036-0.108,0.048-0.228,0.048-0.336V74.466z"/>
		<path d="M382.093,76.577c0,1.343-0.276,2.147-0.827,2.663c-0.576,0.516-1.392,0.696-2.123,0.696c-0.696,0-1.464-0.168-1.932-0.48&#10;&#9;&#9;&#9;l0.265-0.815c0.384,0.252,0.983,0.468,1.703,0.468c1.079,0,1.87-0.564,1.87-2.039v-0.636h-0.023&#10;&#9;&#9;&#9;c-0.312,0.54-0.947,0.972-1.847,0.972c-1.439,0-2.471-1.223-2.471-2.842c0-1.967,1.283-3.07,2.626-3.07&#10;&#9;&#9;&#9;c1.008,0,1.548,0.516,1.812,0.995h0.023l0.036-0.863h0.936c-0.036,0.408-0.048,0.875-0.048,1.583V76.577z M381.038,73.902&#10;&#9;&#9;&#9;c0-0.168-0.012-0.324-0.06-0.468c-0.192-0.624-0.696-1.127-1.476-1.127c-1.007,0-1.727,0.852-1.727,2.207&#10;&#9;&#9;&#9;c0,1.127,0.588,2.087,1.715,2.087c0.659,0,1.247-0.408,1.463-1.091c0.061-0.168,0.084-0.372,0.084-0.563V73.902z"/>
		<path d="M384.436,74.706c0.023,1.427,0.923,2.015,1.979,2.015c0.756,0,1.224-0.132,1.607-0.288l0.191,0.744&#10;&#9;&#9;&#9;c-0.372,0.168-1.02,0.372-1.942,0.372c-1.775,0-2.854-1.188-2.854-2.927c0-1.763,1.043-3.142,2.734-3.142&#10;&#9;&#9;&#9;c1.895,0,2.387,1.667,2.387,2.734c0,0.216-0.012,0.384-0.036,0.504L384.436,74.706z M387.518,73.95&#10;&#9;&#9;&#9;c0.012-0.66-0.276-1.715-1.451-1.715c-1.079,0-1.535,0.984-1.619,1.715H387.518z"/>
		<path d="M389.704,76.361c0.324,0.192,0.876,0.408,1.403,0.408c0.756,0,1.115-0.372,1.115-0.863c0-0.504-0.3-0.78-1.067-1.068&#10;&#9;&#9;&#9;c-1.056-0.384-1.547-0.947-1.547-1.643c0-0.935,0.768-1.703,2.003-1.703c0.588,0,1.104,0.156,1.415,0.359l-0.252,0.756&#10;&#9;&#9;&#9;c-0.228-0.132-0.647-0.336-1.188-0.336c-0.623,0-0.959,0.36-0.959,0.792c0,0.492,0.336,0.708,1.091,0.996&#10;&#9;&#9;&#9;c0.996,0.372,1.523,0.875,1.523,1.751c0,1.031-0.804,1.751-2.159,1.751c-0.635,0-1.223-0.168-1.631-0.408L389.704,76.361z"/>
		<path d="M397.144,68.913h1.055v3.634h0.024c0.372-0.647,1.043-1.055,1.979-1.055c1.439,0,2.447,1.199,2.447,2.95&#10;&#9;&#9;&#9;c0,2.087-1.319,3.118-2.615,3.118c-0.839,0-1.499-0.324-1.942-1.091h-0.024l-0.06,0.959h-0.912&#10;&#9;&#9;&#9;c0.036-0.396,0.049-0.983,0.049-1.499V68.913z M398.199,75.102c0,0.132,0.013,0.264,0.036,0.384&#10;&#9;&#9;&#9;c0.204,0.731,0.828,1.235,1.583,1.235c1.115,0,1.764-0.899,1.764-2.231c0-1.175-0.6-2.171-1.728-2.171&#10;&#9;&#9;&#9;c-0.72,0-1.392,0.504-1.595,1.295c-0.036,0.132-0.061,0.276-0.061,0.444V75.102z"/>
		<path d="M404.26,71.624l1.259,3.43c0.144,0.384,0.288,0.839,0.384,1.187h0.024c0.107-0.348,0.228-0.792,0.371-1.211l1.151-3.406&#10;&#9;&#9;&#9;h1.115l-1.583,4.138c-0.755,1.991-1.271,3.01-1.99,3.646c-0.528,0.444-1.032,0.624-1.296,0.671l-0.264-0.887&#10;&#9;&#9;&#9;c0.264-0.072,0.611-0.24,0.924-0.516c0.288-0.228,0.636-0.635,0.888-1.175c0.048-0.108,0.084-0.18,0.084-0.251&#10;&#9;&#9;&#9;c0-0.06-0.024-0.144-0.084-0.264l-2.135-5.361H404.26z"/>
		<path d="M411.988,76.229c0.3,0.18,0.983,0.479,1.727,0.479c1.344,0,1.775-0.852,1.763-1.511c-0.012-1.091-0.995-1.559-2.015-1.559&#10;&#9;&#9;&#9;h-0.588v-0.792h0.588c0.768,0,1.739-0.396,1.739-1.319c0-0.624-0.396-1.175-1.367-1.175c-0.624,0-1.224,0.276-1.56,0.516&#10;&#9;&#9;&#9;l-0.287-0.768c0.419-0.3,1.211-0.6,2.051-0.6c1.535,0,2.23,0.912,2.23,1.859c0,0.816-0.492,1.5-1.439,1.847v0.024&#10;&#9;&#9;&#9;c0.96,0.18,1.739,0.899,1.739,1.991c0,1.248-0.983,2.339-2.843,2.339c-0.875,0-1.643-0.276-2.026-0.528L411.988,76.229z"/>
		<path d="M423.901,77.176c-0.372,0.192-1.151,0.384-2.135,0.384c-2.279,0-3.982-1.439-3.982-4.102c0-2.542,1.715-4.246,4.222-4.246&#10;&#9;&#9;&#9;c0.995,0,1.644,0.216,1.919,0.36l-0.264,0.852c-0.384-0.192-0.947-0.336-1.619-0.336c-1.895,0-3.154,1.211-3.154,3.334&#10;&#9;&#9;&#9;c0,1.991,1.14,3.25,3.095,3.25c0.647,0,1.295-0.132,1.715-0.336L423.901,77.176z"/>
		<path d="M427.732,73.519c0-0.744-0.013-1.343-0.049-1.895h0.948l0.06,0.995h0.024c0.419-0.719,1.115-1.127,2.051-1.127&#10;&#9;&#9;&#9;c1.415,0,2.471,1.187,2.471,2.95c0,2.087-1.283,3.118-2.639,3.118c-0.78,0-1.439-0.336-1.787-0.912h-0.024v3.154h-1.055V73.519z&#10;&#9;&#9;&#9; M428.787,75.065c0,0.144,0.013,0.3,0.048,0.432c0.181,0.732,0.828,1.235,1.571,1.235c1.115,0,1.764-0.911,1.764-2.243&#10;&#9;&#9;&#9;c0-1.163-0.6-2.159-1.716-2.159c-0.719,0-1.403,0.504-1.606,1.295c-0.024,0.144-0.061,0.3-0.061,0.432V75.065z"/>
		<path d="M434.572,73.435c0-0.684-0.012-1.271-0.048-1.811h0.923l0.048,1.139h0.036c0.265-0.779,0.912-1.271,1.619-1.271&#10;&#9;&#9;&#9;c0.108,0,0.192,0.012,0.288,0.036v0.983c-0.12-0.012-0.228-0.024-0.372-0.024c-0.743,0-1.271,0.564-1.415,1.343&#10;&#9;&#9;&#9;c-0.023,0.156-0.036,0.324-0.036,0.504v3.094h-1.055L434.572,73.435z"/>
		<path d="M440.775,77.56c-1.56,0-2.782-1.151-2.782-2.986c0-1.943,1.283-3.082,2.878-3.082c1.667,0,2.795,1.211,2.795,2.974&#10;&#9;&#9;&#9;c0,2.159-1.499,3.094-2.879,3.094H440.775z M440.811,76.769c1.007,0,1.763-0.947,1.763-2.267c0-0.983-0.491-2.219-1.739-2.219&#10;&#9;&#9;&#9;c-1.235,0-1.774,1.151-1.774,2.254c0,1.271,0.72,2.231,1.739,2.231H440.811z"/>
	</g>
	<g>
		<g>
			<line fill="none" stroke="#000000" stroke-width="0.5" x1="435.325" y1="158.002" x2="427.346" y2="173.867"/>
			<g>
				<path d="M425.991,176.563c0.167-1.505,0.155-3.483-0.204-4.887l1.737,1.837l2.512,0.3&#10;&#9;&#9;&#9;&#9;&#9;C428.695,174.361,427.099,175.531,425.991,176.563z"/>
			</g>
		</g>
	</g>
	<g>
		<g>
			<line fill="none" stroke="#000000" stroke-width="0.5" x1="435.325" y1="158.002" x2="522.577" y2="181.068"/>
			<g>
				<path d="M525.495,181.839c-1.508,0.146-3.441,0.565-4.74,1.207l1.44-2.079l-0.225-2.519&#10;&#9;&#9;&#9;&#9;&#9;C522.783,179.648,524.256,180.967,525.495,181.839z"/>
			</g>
		</g>
	</g>
	<g>
		<path d="M406.049,169.79c-0.06-1.128-0.132-2.495-0.132-3.49h-0.024c-0.287,0.936-0.611,1.955-1.019,3.07l-1.428,3.922h-0.791&#10;&#9;&#9;&#9;l-1.319-3.85c-0.384-1.151-0.696-2.184-0.924-3.143h-0.024c-0.023,1.008-0.084,2.351-0.155,3.574l-0.216,3.466h-0.996l0.564-8.084&#10;&#9;&#9;&#9;h1.331l1.379,3.91c0.336,0.995,0.6,1.883,0.815,2.723h0.024c0.216-0.815,0.504-1.703,0.863-2.723l1.439-3.91h1.331l0.504,8.084&#10;&#9;&#9;&#9;h-1.031L406.049,169.79z"/>
		<path d="M413.01,171.948c0,0.504,0.024,0.996,0.084,1.392h-0.947l-0.096-0.731h-0.036c-0.312,0.456-0.947,0.863-1.775,0.863&#10;&#9;&#9;&#9;c-1.175,0-1.774-0.827-1.774-1.667c0-1.403,1.247-2.171,3.49-2.159v-0.119c0-0.48-0.132-1.355-1.319-1.344&#10;&#9;&#9;&#9;c-0.552,0-1.115,0.156-1.523,0.432l-0.24-0.707c0.48-0.3,1.188-0.504,1.919-0.504c1.787,0,2.219,1.211,2.219,2.374V171.948z&#10;&#9;&#9;&#9; M411.979,170.377c-1.151-0.024-2.458,0.18-2.458,1.307c0,0.695,0.455,1.008,0.983,1.008c0.768,0,1.259-0.479,1.427-0.972&#10;&#9;&#9;&#9;c0.036-0.108,0.048-0.228,0.048-0.336V170.377z"/>
		<path d="M413.278,175.042c0.492-0.036,0.899-0.168,1.151-0.443c0.288-0.324,0.408-0.792,0.408-2.184v-4.881h1.055v5.289&#10;&#9;&#9;&#9;c0,1.127-0.18,1.858-0.695,2.387c-0.468,0.468-1.235,0.659-1.799,0.659L413.278,175.042z M415.34,166.467&#10;&#9;&#9;&#9;c-0.396,0-0.659-0.312-0.659-0.684s0.275-0.672,0.684-0.672s0.672,0.3,0.672,0.672s-0.252,0.684-0.684,0.684H415.34z"/>
		<path d="M419.984,173.471c-1.56,0-2.782-1.151-2.782-2.986c0-1.943,1.283-3.082,2.878-3.082c1.667,0,2.795,1.211,2.795,2.975&#10;&#9;&#9;&#9;c0,2.158-1.499,3.094-2.879,3.094H419.984z M420.02,172.68c1.007,0,1.763-0.948,1.763-2.268c0-0.983-0.491-2.219-1.739-2.219&#10;&#9;&#9;&#9;c-1.235,0-1.774,1.151-1.774,2.255c0,1.271,0.72,2.231,1.739,2.231H420.02z"/>
		<path d="M424.221,169.345c0-0.684-0.012-1.271-0.048-1.811h0.923l0.048,1.14h0.036c0.264-0.78,0.912-1.271,1.619-1.271&#10;&#9;&#9;&#9;c0.108,0,0.192,0.012,0.288,0.036v0.983c-0.12-0.013-0.228-0.024-0.372-0.024c-0.743,0-1.271,0.563-1.415,1.344&#10;&#9;&#9;&#9;c-0.023,0.155-0.036,0.323-0.036,0.503v3.095h-1.055L424.221,169.345z"/>
	</g>
	<g>
		<path d="M507.381,169.79c-0.06-1.128-0.132-2.495-0.132-3.49h-0.024c-0.287,0.936-0.611,1.955-1.019,3.07l-1.428,3.922h-0.791&#10;&#9;&#9;&#9;l-1.319-3.85c-0.384-1.151-0.696-2.184-0.924-3.143h-0.024c-0.023,1.008-0.084,2.351-0.155,3.574l-0.216,3.466h-0.996l0.564-8.084&#10;&#9;&#9;&#9;h1.331l1.379,3.91c0.336,0.995,0.6,1.883,0.815,2.723h0.024c0.216-0.815,0.504-1.703,0.863-2.723l1.439-3.91h1.331l0.504,8.084&#10;&#9;&#9;&#9;h-1.031L507.381,169.79z"/>
		<path d="M510.84,166.467c-0.396,0-0.659-0.312-0.659-0.684s0.275-0.672,0.684-0.672c0.407,0,0.672,0.3,0.672,0.672&#10;&#9;&#9;&#9;s-0.265,0.684-0.684,0.684H510.84z M510.337,173.339v-5.805h1.055v5.805H510.337z"/>
		<path d="M513.145,169.106c0-0.612-0.013-1.092-0.049-1.571h0.936l0.061,0.947h0.023c0.288-0.54,0.96-1.079,1.919-1.079&#10;&#9;&#9;&#9;c0.804,0,2.051,0.479,2.051,2.471v3.466h-1.055v-3.346c0-0.936-0.349-1.728-1.344-1.728c-0.684,0-1.224,0.492-1.415,1.079&#10;&#9;&#9;&#9;c-0.048,0.132-0.072,0.324-0.072,0.492v3.502h-1.055V169.106z"/>
		<path d="M522.167,173.471c-1.56,0-2.782-1.151-2.782-2.986c0-1.943,1.283-3.082,2.878-3.082c1.667,0,2.795,1.211,2.795,2.975&#10;&#9;&#9;&#9;c0,2.158-1.499,3.094-2.879,3.094H522.167z M522.204,172.68c1.007,0,1.763-0.948,1.763-2.268c0-0.983-0.491-2.219-1.739-2.219&#10;&#9;&#9;&#9;c-1.235,0-1.774,1.151-1.774,2.255c0,1.271,0.72,2.231,1.739,2.231H522.204z"/>
		<path d="M526.405,169.345c0-0.684-0.012-1.271-0.048-1.811h0.923l0.048,1.14h0.036c0.264-0.78,0.912-1.271,1.619-1.271&#10;&#9;&#9;&#9;c0.108,0,0.192,0.012,0.288,0.036v0.983c-0.12-0.013-0.228-0.024-0.372-0.024c-0.743,0-1.271,0.563-1.415,1.344&#10;&#9;&#9;&#9;c-0.023,0.155-0.036,0.323-0.036,0.503v3.095h-1.055L526.405,169.345z"/>
	</g>
	<g>
		<path d="M89.968,44.679l-2.65-8.083h1.14l1.259,3.982c0.336,1.091,0.636,2.087,0.863,3.022h0.024&#10;&#9;&#9;&#9;c0.228-0.936,0.552-1.955,0.924-3.011l1.367-3.994h1.115l-2.891,8.083H89.968z"/>
		<path d="M94.889,36.704c0.504-0.096,1.164-0.168,2.003-0.168c1.032,0,1.787,0.24,2.268,0.672c0.443,0.384,0.719,0.971,0.719,1.69&#10;&#9;&#9;&#9;c0,0.732-0.216,1.308-0.636,1.728c-0.551,0.588-1.451,0.888-2.47,0.888c-0.313,0-0.601-0.013-0.84-0.072v3.238h-1.044V36.704z&#10;&#9;&#9;&#9; M95.933,40.589c0.228,0.06,0.527,0.084,0.863,0.084c1.271,0,2.027-0.624,2.027-1.715c0-1.08-0.756-1.595-1.907-1.595&#10;&#9;&#9;&#9;c-0.456,0-0.804,0.048-0.983,0.084V40.589z"/>
		<path d="M104.164,44.679v-2.123h-3.622v-0.684l3.479-4.989h1.14v4.857h1.091v0.815h-1.091v2.123H104.164z M104.164,41.741v-2.614&#10;&#9;&#9;&#9;c0-0.408,0.012-0.816,0.036-1.224h-0.036c-0.239,0.456-0.432,0.792-0.647,1.163l-1.907,2.651v0.023H104.164z"/>
	</g>
	<g>
		<path d="M69.518,62.779c0,0.6,0.009,1.127,0.036,1.583h-0.711l-0.046-0.947h-0.018c-0.201,0.468-0.675,1.079-1.46,1.079&#10;&#9;&#9;&#9;c-0.693,0-1.524-0.516-1.524-2.542v-3.394h0.803v3.202c0,1.104,0.265,1.859,0.985,1.859c0.538,0,0.913-0.492,1.059-0.971&#10;&#9;&#9;&#9;c0.045-0.144,0.073-0.336,0.073-0.54v-3.55h0.803V62.779z"/>
		<path d="M73.28,64.494c-1.633,0-2.765-1.655-2.765-4.102c0-2.567,1.204-4.246,2.847-4.246c1.688,0,2.774,1.691,2.774,4.089&#10;&#9;&#9;&#9;c0,2.771-1.287,4.258-2.847,4.258H73.28z M73.317,63.642c1.259,0,1.971-1.523,1.971-3.358c0-1.607-0.639-3.286-1.961-3.286&#10;&#9;&#9;&#9;c-1.323,0-1.98,1.619-1.98,3.37c0,1.703,0.712,3.274,1.962,3.274H73.317z"/>
		<path d="M77.171,56.398c0.401-0.108,0.985-0.18,1.524-0.18c0.849,0,1.405,0.216,1.789,0.672c0.301,0.348,0.483,0.899,0.483,1.535&#10;&#9;&#9;&#9;c0,1.055-0.52,1.763-1.159,2.051v0.036c0.465,0.216,0.748,0.792,0.903,1.631c0.201,1.127,0.347,1.907,0.465,2.219h-0.821&#10;&#9;&#9;&#9;c-0.1-0.228-0.237-0.923-0.401-1.931c-0.183-1.115-0.52-1.535-1.241-1.571h-0.748v3.502h-0.794V56.398z M77.965,60.068h0.812&#10;&#9;&#9;&#9;c0.849,0,1.387-0.612,1.387-1.535c0-1.043-0.575-1.5-1.415-1.5c-0.383,0-0.648,0.048-0.785,0.096V60.068z"/>
		<path d="M82.074,56.278h3.312v0.875h-2.509v2.687h2.318v0.863h-2.318v3.658h-0.803V56.278z"/>
	</g>
	<g>
		<path d="M143.237,1.974c0.503-0.096,1.163-0.168,2.003-0.168c1.031,0,1.787,0.24,2.267,0.672c0.444,0.384,0.72,0.971,0.72,1.691&#10;&#9;&#9;&#9;c0,0.731-0.216,1.307-0.636,1.727c-0.552,0.587-1.451,0.887-2.471,0.887c-0.312,0-0.6-0.012-0.839-0.072v3.238h-1.043V1.974z&#10;&#9;&#9;&#9; M144.281,5.859c0.228,0.06,0.527,0.084,0.863,0.084c1.271,0,2.027-0.624,2.027-1.715c0-1.08-0.755-1.595-1.907-1.595&#10;&#9;&#9;&#9;c-0.456,0-0.804,0.048-0.983,0.084V5.859z"/>
		<path d="M151.54,3.137h-0.024l-1.355,0.731l-0.204-0.804l1.703-0.912h0.9v7.796h-1.02V3.137z"/>
	</g>
	<g>
		<path d="M284.571,1.975c0.503-0.096,1.163-0.168,2.003-0.168c1.031,0,1.787,0.24,2.267,0.672c0.444,0.384,0.72,0.971,0.72,1.691&#10;&#9;&#9;&#9;c0,0.731-0.216,1.307-0.636,1.727c-0.552,0.587-1.451,0.887-2.471,0.887c-0.312,0-0.6-0.012-0.839-0.072V9.95h-1.043V1.975z&#10;&#9;&#9;&#9; M285.614,5.86c0.228,0.06,0.527,0.084,0.863,0.084c1.271,0,2.027-0.624,2.027-1.715c0-1.08-0.755-1.595-1.907-1.595&#10;&#9;&#9;&#9;c-0.456,0-0.804,0.048-0.983,0.084V5.86z"/>
		<path d="M290.583,9.95V9.303l0.828-0.804c1.991-1.895,2.902-2.902,2.902-4.078c0-0.792-0.372-1.523-1.535-1.523&#10;&#9;&#9;&#9;c-0.708,0-1.295,0.36-1.655,0.66l-0.336-0.744c0.528-0.443,1.307-0.792,2.207-0.792c1.667,0,2.375,1.151,2.375,2.267&#10;&#9;&#9;&#9;c0,1.439-1.043,2.603-2.687,4.186l-0.612,0.576v0.024h3.49V9.95H290.583z"/>
	</g>
	<g>
		<path d="M426.57,1.974c0.504-0.096,1.164-0.168,2.003-0.168c1.032,0,1.787,0.24,2.268,0.672c0.443,0.384,0.719,0.971,0.719,1.691&#10;&#9;&#9;&#9;c0,0.731-0.216,1.307-0.636,1.727c-0.551,0.587-1.451,0.888-2.47,0.888c-0.313,0-0.601-0.012-0.84-0.072V9.95h-1.044V1.974z&#10;&#9;&#9;&#9; M427.614,5.86c0.228,0.06,0.527,0.084,0.863,0.084c1.271,0,2.027-0.624,2.027-1.715c0-1.08-0.756-1.595-1.907-1.595&#10;&#9;&#9;&#9;c-0.456,0-0.804,0.048-0.983,0.084V5.86z"/>
		<path d="M432.834,8.75c0.3,0.18,0.983,0.479,1.727,0.479c1.344,0,1.775-0.852,1.763-1.511c-0.012-1.091-0.995-1.559-2.015-1.559&#10;&#9;&#9;&#9;h-0.588V5.368h0.588c0.768,0,1.739-0.396,1.739-1.319c0-0.624-0.396-1.175-1.367-1.175c-0.624,0-1.224,0.276-1.56,0.516&#10;&#9;&#9;&#9;l-0.287-0.768c0.419-0.3,1.211-0.6,2.051-0.6c1.535,0,2.23,0.912,2.23,1.859c0,0.816-0.492,1.5-1.439,1.847v0.024&#10;&#9;&#9;&#9;c0.96,0.18,1.739,0.899,1.739,1.991c0,1.248-0.983,2.339-2.843,2.339c-0.875,0-1.643-0.276-2.026-0.528L432.834,8.75z"/>
	</g>
	<g>
		<g>
			<line fill="#FFFFFF" x1="77.328" y1="18.006" x2="213.994" y2="18.006"/>
			<path fill="#FFFFFF" d="M220.029,18.006c-2.84,1.054-6.363,2.852-8.547,4.755l1.72-4.755l-1.72-4.755&#10;&#9;&#9;&#9;&#9;C213.666,15.154,217.189,16.953,220.029,18.006z"/>
			<path fill="#FFFFFF" d="M71.292,18.006c2.84-1.054,6.363-2.852,8.547-4.755l-1.72,4.755l1.72,4.755&#10;&#9;&#9;&#9;&#9;C77.656,20.857,74.132,19.059,71.292,18.006z"/>
		</g>
		<g>
			<line fill="none" stroke="#000000" x1="77.328" y1="18.006" x2="213.994" y2="18.006"/>
			<path d="M220.029,18.006c-2.84,1.054-6.363,2.852-8.547,4.755l1.72-4.755l-1.72-4.755&#10;&#9;&#9;&#9;&#9;C213.666,15.154,217.189,16.953,220.029,18.006z"/>
			<path d="M71.292,18.006c2.84-1.054,6.363-2.852,8.547-4.755l-1.72,4.755l1.72,4.755C77.656,20.857,74.132,19.059,71.292,18.006z"/>
		</g>
	</g>
	<g>
		<g>
			<line fill="#FFFFFF" x1="227.328" y1="18.006" x2="351.328" y2="18.006"/>
			<path fill="#FFFFFF" d="M357.363,18.006c-2.84,1.054-6.363,2.852-8.547,4.755l1.72-4.755l-1.72-4.755&#10;&#9;&#9;&#9;&#9;C351,15.154,354.523,16.953,357.363,18.006z"/>
			<path fill="#FFFFFF" d="M221.292,18.006c2.84-1.054,6.363-2.852,8.547-4.755l-1.72,4.755l1.72,4.755&#10;&#9;&#9;&#9;&#9;C227.656,20.857,224.132,19.059,221.292,18.006z"/>
		</g>
		<g>
			<line fill="none" stroke="#000000" x1="227.328" y1="18.006" x2="351.328" y2="18.006"/>
			<path d="M357.363,18.006c-2.84,1.054-6.363,2.852-8.547,4.755l1.72-4.755l-1.72-4.755C351,15.154,354.523,16.953,357.363,18.006z&#10;&#9;&#9;&#9;&#9;"/>
			<path d="M221.292,18.006c2.84-1.054,6.363-2.852,8.547-4.755l-1.72,4.755l1.72,4.755&#10;&#9;&#9;&#9;&#9;C227.656,20.857,224.132,19.059,221.292,18.006z"/>
		</g>
	</g>
	<g>
		<g>
			<line fill="#FFFFFF" x1="364.995" y1="18.006" x2="497.995" y2="18.006"/>
			<path fill="#FFFFFF" d="M504.029,18.006c-2.839,1.054-6.363,2.852-8.546,4.755l1.719-4.755l-1.719-4.755&#10;&#9;&#9;&#9;&#9;C497.666,15.154,501.19,16.953,504.029,18.006z"/>
			<path fill="#FFFFFF" d="M358.959,18.006c2.84-1.054,6.364-2.852,8.547-4.755l-1.72,4.755l1.72,4.755&#10;&#9;&#9;&#9;&#9;C365.323,20.857,361.799,19.059,358.959,18.006z"/>
		</g>
		<g>
			<line fill="none" stroke="#000000" x1="364.995" y1="18.006" x2="497.995" y2="18.006"/>
			<path d="M504.029,18.006c-2.839,1.054-6.363,2.852-8.546,4.755l1.719-4.755l-1.719-4.755&#10;&#9;&#9;&#9;&#9;C497.666,15.154,501.19,16.953,504.029,18.006z"/>
			<path d="M358.959,18.006c2.84-1.054,6.364-2.852,8.547-4.755l-1.72,4.755l1.72,4.755&#10;&#9;&#9;&#9;&#9;C365.323,20.857,361.799,19.059,358.959,18.006z"/>
		</g>
	</g>
	<g>
		<path fill="none" stroke="#000000" d="M236.558,55.096c0,13.215-4.034,23.908-9.017,23.908"/>
		<g>
			<g>
				<path fill="none" stroke="#000000" d="M218.527,61.731c0,9.547,4.029,17.273,9.014,17.273"/>
				<path d="M218.527,55.696c1.054,2.84,2.852,6.363,4.755,8.547l-4.755-1.72l-4.755,1.72&#10;&#9;&#9;&#9;&#9;&#9;C215.675,62.059,217.474,58.536,218.527,55.696z"/>
			</g>
		</g>
	</g>
	<g>
		<path fill="none" stroke="#000000" d="M94.527,54.763c0,13.215,3.31,23.908,7.399,23.908"/>
		<g>
			<g>
				<path fill="none" stroke="#000000" d="M109.323,61.398c0,9.547-3.307,17.273-7.397,17.273"/>
				<path d="M109.323,55.363c1.054,2.84,2.852,6.363,4.755,8.547l-4.755-1.72l-4.755,1.72&#10;&#9;&#9;&#9;&#9;&#9;C106.471,61.726,108.27,58.203,109.323,55.363z"/>
			</g>
		</g>
	</g>
	<polygon fill="#C7A9E0" stroke="#000000" stroke-width="0.5" points="277.934,64.508 267.819,64.508 272.875,54.108 &#9;"/>
	<polygon fill="#C7A9E0" stroke="#000000" stroke-width="0.5" points="365.186,64.508 355.071,64.508 360.128,54.108 &#9;"/>
	<polygon fill="#C7A9E0" stroke="#000000" stroke-width="0.5" points="379.753,64.508 369.641,64.508 374.7,54.108 &#9;"/>
	<polygon fill="#C7A9E0" stroke="#000000" stroke-width="0.5" points="395.293,64.508 385.181,64.508 390.235,54.108 &#9;"/>
	<polygon fill="#C7A9E0" stroke="#000000" stroke-width="0.5" points="425.966,65.113 415.853,65.113 420.912,54.713 &#9;"/>
	<polygon fill="#C7A9E0" stroke="#000000" stroke-width="0.5" points="184.646,65.113 174.532,65.113 179.589,54.713 &#9;"/>
	<polygon fill="#C7A9E0" stroke="#000000" stroke-width="0.5" points="256.094,64.508 245.98,64.508 251.037,54.108 &#9;"/>
	<polygon fill="#FFFFFF" stroke="#000000" points="113.896,65.113 103.782,65.113 108.838,54.713 &#9;"/>
	<polygon fill="#C7A9E0" stroke="#000000" stroke-width="0.5" points="143.933,65.113 133.82,65.113 138.876,54.713 &#9;"/>
	<g>
		<path d="M190.464,44.679l-2.65-8.083h1.14l1.259,3.982c0.336,1.091,0.636,2.087,0.863,3.022h0.024&#10;&#9;&#9;&#9;c0.228-0.936,0.552-1.955,0.924-3.011l1.367-3.994h1.115l-2.891,8.083H190.464z"/>
		<path d="M195.385,36.704c0.504-0.096,1.164-0.168,2.003-0.168c1.032,0,1.787,0.24,2.268,0.672c0.443,0.384,0.719,0.971,0.719,1.69&#10;&#9;&#9;&#9;c0,0.732-0.216,1.308-0.636,1.728c-0.551,0.588-1.451,0.888-2.47,0.888c-0.313,0-0.601-0.013-0.84-0.072v3.238h-1.044V36.704z&#10;&#9;&#9;&#9; M196.429,40.589c0.228,0.06,0.527,0.084,0.863,0.084c1.271,0,2.027-0.624,2.027-1.715c0-1.08-0.756-1.595-1.907-1.595&#10;&#9;&#9;&#9;c-0.456,0-0.804,0.048-0.983,0.084V40.589z"/>
		<path d="M203.688,37.867h-0.023l-1.355,0.731l-0.204-0.803l1.703-0.912h0.899v7.796h-1.02V37.867z"/>
	</g>
	<g>
		<path d="M114.634,44.679l-2.65-8.083h1.14l1.259,3.982c0.336,1.091,0.636,2.087,0.863,3.022h0.024&#10;&#9;&#9;&#9;c0.228-0.936,0.552-1.955,0.924-3.011l1.367-3.994h1.115l-2.891,8.083H114.634z"/>
		<path d="M119.555,36.704c0.504-0.096,1.164-0.168,2.003-0.168c1.032,0,1.787,0.24,2.268,0.672c0.443,0.384,0.719,0.971,0.719,1.69&#10;&#9;&#9;&#9;c0,0.732-0.216,1.308-0.636,1.728c-0.551,0.588-1.451,0.888-2.47,0.888c-0.313,0-0.601-0.013-0.84-0.072v3.238h-1.044V36.704z&#10;&#9;&#9;&#9; M120.599,40.589c0.228,0.06,0.527,0.084,0.863,0.084c1.271,0,2.027-0.624,2.027-1.715c0-1.08-0.756-1.595-1.907-1.595&#10;&#9;&#9;&#9;c-0.456,0-0.804,0.048-0.983,0.084V40.589z"/>
		<path d="M125.567,44.679v-0.647l0.827-0.804c1.991-1.895,2.902-2.902,2.902-4.078c0-0.791-0.372-1.523-1.535-1.523&#10;&#9;&#9;&#9;c-0.707,0-1.295,0.36-1.655,0.66l-0.336-0.744c0.528-0.444,1.308-0.792,2.207-0.792c1.667,0,2.375,1.151,2.375,2.267&#10;&#9;&#9;&#9;c0,1.439-1.044,2.603-2.687,4.186l-0.611,0.576v0.023h3.489v0.876H125.567z"/>
	</g>
	<g>
		<path d="M398.792,39.98c0.299,0.18,0.982,0.479,1.727,0.479c1.344,0,1.775-0.852,1.762-1.511c-0.012-1.092-0.994-1.56-2.014-1.56&#10;&#9;&#9;&#9;h-0.588v-0.791h0.588c0.768,0,1.738-0.396,1.738-1.319c0-0.624-0.395-1.176-1.367-1.176c-0.623,0-1.223,0.276-1.559,0.516&#10;&#9;&#9;&#9;l-0.287-0.768c0.418-0.3,1.211-0.6,2.051-0.6c1.535,0,2.23,0.912,2.23,1.859c0,0.815-0.492,1.499-1.439,1.847v0.024&#10;&#9;&#9;&#9;c0.959,0.18,1.738,0.899,1.738,1.99c0,1.247-0.982,2.339-2.842,2.339c-0.875,0-1.643-0.275-2.027-0.527L398.792,39.98z"/>
		<path d="M410.704,40.927c-0.371,0.192-1.15,0.384-2.135,0.384c-2.279,0-3.982-1.439-3.982-4.102c0-2.542,1.715-4.246,4.223-4.246&#10;&#9;&#9;&#9;c0.994,0,1.643,0.216,1.918,0.36l-0.264,0.852c-0.383-0.192-0.947-0.336-1.619-0.336c-1.895,0-3.154,1.211-3.154,3.334&#10;&#9;&#9;&#9;c0,1.991,1.141,3.25,3.096,3.25c0.646,0,1.295-0.132,1.715-0.336L410.704,40.927z"/>
		<path d="M396.799,44.269c0-0.743-0.014-1.343-0.049-1.895h0.947l0.061,0.995h0.023c0.42-0.72,1.115-1.127,2.051-1.127&#10;&#9;&#9;&#9;c1.416,0,2.471,1.188,2.471,2.95c0,2.087-1.283,3.118-2.639,3.118c-0.779,0-1.439-0.336-1.787-0.911h-0.023v3.154h-1.055V44.269z&#10;&#9;&#9;&#9; M397.854,45.817c0,0.144,0.012,0.3,0.047,0.432c0.182,0.731,0.828,1.235,1.572,1.235c1.115,0,1.764-0.912,1.764-2.243&#10;&#9;&#9;&#9;c0-1.163-0.6-2.159-1.717-2.159c-0.719,0-1.402,0.504-1.605,1.296c-0.025,0.144-0.061,0.3-0.061,0.432V45.817z"/>
		<path d="M403.639,44.185c0-0.684-0.012-1.271-0.049-1.811h0.924l0.047,1.14h0.037c0.264-0.78,0.912-1.271,1.619-1.271&#10;&#9;&#9;&#9;c0.107,0,0.191,0.012,0.287,0.036v0.983c-0.119-0.013-0.227-0.024-0.371-0.024c-0.744,0-1.271,0.563-1.416,1.344&#10;&#9;&#9;&#9;c-0.023,0.155-0.035,0.323-0.035,0.503v3.095h-1.055L403.639,44.185z"/>
		<path d="M409.84,48.311c-1.559,0-2.781-1.151-2.781-2.986c0-1.943,1.283-3.082,2.877-3.082c1.668,0,2.795,1.211,2.795,2.975&#10;&#9;&#9;&#9;c0,2.158-1.498,3.094-2.879,3.094H409.84z M409.877,47.52c1.006,0,1.762-0.948,1.762-2.268c0-0.983-0.49-2.219-1.738-2.219&#10;&#9;&#9;&#9;c-1.236,0-1.775,1.151-1.775,2.255c0,1.271,0.721,2.231,1.738,2.231H409.877z"/>
	</g>
	<g>
		<path d="M360.352,43.48c0.3,0.18,0.983,0.479,1.727,0.479c1.344,0,1.775-0.852,1.762-1.511c-0.012-1.092-0.994-1.56-2.014-1.56&#10;&#9;&#9;&#9;h-0.588v-0.791h0.588c0.768,0,1.739-0.396,1.739-1.319c0-0.624-0.395-1.176-1.367-1.176c-0.624,0-1.223,0.276-1.559,0.516&#10;&#9;&#9;&#9;l-0.287-0.768c0.419-0.3,1.211-0.6,2.051-0.6c1.535,0,2.23,0.912,2.23,1.859c0,0.815-0.492,1.499-1.439,1.847v0.024&#10;&#9;&#9;&#9;c0.959,0.18,1.738,0.899,1.738,1.99c0,1.247-0.982,2.339-2.842,2.339c-0.875,0-1.643-0.275-2.027-0.527L360.352,43.48z"/>
		<path d="M367.934,42.136l-0.84,2.543h-1.078l2.746-8.083h1.26l2.758,8.083h-1.115l-0.863-2.543H367.934z M370.584,41.321&#10;&#9;&#9;&#9;l-0.803-2.326c-0.168-0.528-0.287-1.008-0.408-1.476h-0.035c-0.109,0.468-0.24,0.972-0.396,1.463l-0.791,2.339H370.584z"/>
	</g>
	<g>
		<path d="M377.845,44.679l-1.848-8.083h0.794l0.878,3.982c0.234,1.091,0.443,2.087,0.603,3.022h0.017&#10;&#9;&#9;&#9;c0.159-0.935,0.385-1.955,0.644-3.01l0.953-3.994h0.778l-2.016,8.083H377.845z"/>
		<path d="M381.274,36.704c0.351-0.096,0.811-0.168,1.396-0.168c0.719,0,1.246,0.24,1.58,0.672c0.31,0.384,0.502,0.971,0.502,1.691&#10;&#9;&#9;&#9;c0,0.731-0.15,1.307-0.443,1.727c-0.385,0.587-1.012,0.888-1.723,0.888c-0.218,0-0.418-0.012-0.585-0.072v3.238h-0.728V36.704z&#10;&#9;&#9;&#9; M382.001,40.589c0.158,0.06,0.367,0.084,0.602,0.084c0.887,0,1.413-0.624,1.413-1.715c0-1.08-0.526-1.595-1.329-1.595&#10;&#9;&#9;&#9;c-0.318,0-0.561,0.048-0.686,0.084V40.589z"/>
		<path d="M389.159,43.828c0,1.343-0.192,2.147-0.577,2.663c-0.401,0.516-0.97,0.696-1.479,0.696c-0.485,0-1.021-0.168-1.347-0.48&#10;&#9;&#9;&#9;l0.184-0.815c0.268,0.252,0.687,0.468,1.188,0.468c0.753,0,1.305-0.564,1.305-2.039v-0.636h-0.017&#10;&#9;&#9;&#9;c-0.218,0.54-0.661,0.972-1.288,0.972c-1.003,0-1.723-1.223-1.723-2.842c0-1.967,0.896-3.07,1.832-3.07&#10;&#9;&#9;&#9;c0.702,0,1.078,0.516,1.263,0.995h0.017l0.024-0.863h0.652c-0.025,0.408-0.033,0.875-0.033,1.583V43.828z M388.422,41.153&#10;&#9;&#9;&#9;c0-0.168-0.008-0.324-0.041-0.468c-0.134-0.624-0.485-1.127-1.029-1.127c-0.702,0-1.204,0.852-1.204,2.207&#10;&#9;&#9;&#9;c0,1.127,0.41,2.087,1.196,2.087c0.46,0,0.869-0.408,1.02-1.091c0.042-0.168,0.059-0.372,0.059-0.563V41.153z"/>
	</g>
	<g>
		<path d="M448.803,36.715c0.527-0.108,1.295-0.18,2.002-0.18c1.117,0,1.848,0.216,2.352,0.672c0.396,0.348,0.635,0.899,0.635,1.535&#10;&#9;&#9;&#9;c0,1.056-0.684,1.763-1.521,2.051v0.036c0.611,0.216,0.982,0.791,1.188,1.631c0.264,1.127,0.455,1.907,0.611,2.219h-1.08&#10;&#9;&#9;&#9;c-0.133-0.228-0.313-0.924-0.527-1.931c-0.24-1.115-0.684-1.535-1.631-1.571h-0.984v3.502h-1.043V36.715z M449.846,40.385h1.068&#10;&#9;&#9;&#9;c1.115,0,1.822-0.611,1.822-1.535c0-1.043-0.756-1.499-1.859-1.499c-0.504,0-0.852,0.048-1.031,0.096V40.385z"/>
		<path d="M460.284,36.164v7.016c0,0.516,0.012,1.104,0.049,1.499h-0.947l-0.049-1.008h-0.023c-0.324,0.648-1.02,1.14-1.967,1.14&#10;&#9;&#9;&#9;c-1.404,0-2.494-1.188-2.494-2.95c-0.014-1.943,1.199-3.118,2.602-3.118c0.9,0,1.5,0.42,1.752,0.875h0.023v-3.454H460.284z&#10;&#9;&#9;&#9; M459.229,41.237c0-0.144-0.012-0.312-0.049-0.455c-0.154-0.66-0.73-1.212-1.521-1.212c-1.092,0-1.74,0.96-1.74,2.231&#10;&#9;&#9;&#9;c0,1.187,0.588,2.158,1.715,2.158c0.709,0,1.355-0.479,1.547-1.259c0.037-0.145,0.049-0.288,0.049-0.456V41.237z"/>
		<path d="M462.075,36.715c0.527-0.108,1.295-0.18,2.002-0.18c1.117,0,1.848,0.216,2.352,0.672c0.396,0.348,0.635,0.899,0.635,1.535&#10;&#9;&#9;&#9;c0,1.056-0.684,1.763-1.521,2.051v0.036c0.611,0.216,0.982,0.791,1.188,1.631c0.264,1.127,0.455,1.907,0.611,2.219h-1.08&#10;&#9;&#9;&#9;c-0.133-0.228-0.313-0.924-0.527-1.931c-0.24-1.115-0.684-1.535-1.631-1.571h-0.984v3.502h-1.043V36.715z M463.118,40.385h1.068&#10;&#9;&#9;&#9;c1.115,0,1.822-0.611,1.822-1.535c0-1.043-0.756-1.499-1.859-1.499c-0.504,0-0.852,0.048-1.031,0.096V40.385z"/>
		<path d="M468.495,40.769c0-0.743-0.012-1.343-0.049-1.895h0.949l0.059,0.995h0.025c0.418-0.72,1.115-1.127,2.051-1.127&#10;&#9;&#9;&#9;c1.414,0,2.471,1.188,2.471,2.95c0,2.087-1.283,3.118-2.639,3.118c-0.781,0-1.439-0.336-1.787-0.911h-0.025v3.154h-1.055V40.769z&#10;&#9;&#9;&#9; M469.549,42.317c0,0.144,0.014,0.3,0.049,0.432c0.18,0.731,0.828,1.235,1.57,1.235c1.115,0,1.764-0.912,1.764-2.243&#10;&#9;&#9;&#9;c0-1.163-0.6-2.159-1.715-2.159c-0.719,0-1.404,0.504-1.607,1.296c-0.023,0.144-0.061,0.3-0.061,0.432V42.317z"/>
	</g>
	<g>
		<path d="M301.739,44.679v-0.647l0.827-0.804c1.991-1.895,2.902-2.902,2.902-4.078c0-0.791-0.372-1.523-1.535-1.523&#10;&#9;&#9;&#9;c-0.707,0-1.295,0.36-1.655,0.66l-0.336-0.744c0.528-0.444,1.308-0.792,2.207-0.792c1.667,0,2.375,1.151,2.375,2.267&#10;&#9;&#9;&#9;c0,1.439-1.044,2.603-2.687,4.186l-0.611,0.576v0.023h3.489v0.876H301.739z"/>
		<path d="M313.904,44.427c-0.372,0.192-1.151,0.384-2.136,0.384c-2.278,0-3.981-1.439-3.981-4.102c0-2.542,1.715-4.246,4.222-4.246&#10;&#9;&#9;&#9;c0.995,0,1.644,0.216,1.919,0.36l-0.264,0.852c-0.384-0.192-0.947-0.336-1.619-0.336c-1.895,0-3.154,1.211-3.154,3.334&#10;&#9;&#9;&#9;c0,1.991,1.14,3.25,3.095,3.25c0.647,0,1.295-0.132,1.715-0.336L313.904,44.427z"/>
	</g>
	<g>
		<path d="M256.074,44.679v-0.647l0.827-0.804c1.991-1.895,2.902-2.902,2.902-4.078c0-0.791-0.372-1.523-1.535-1.523&#10;&#9;&#9;&#9;c-0.707,0-1.295,0.36-1.655,0.66l-0.336-0.744c0.528-0.444,1.308-0.792,2.207-0.792c1.667,0,2.375,1.151,2.375,2.267&#10;&#9;&#9;&#9;c0,1.439-1.044,2.603-2.687,4.186l-0.611,0.576v0.023h3.489v0.876H256.074z"/>
		<path d="M262.602,36.715c0.456-0.108,1.188-0.18,1.907-0.18c1.044,0,1.715,0.18,2.207,0.588c0.42,0.312,0.684,0.792,0.684,1.427&#10;&#9;&#9;&#9;c0,0.792-0.528,1.476-1.367,1.775v0.036c0.768,0.18,1.667,0.815,1.667,2.015c0,0.695-0.276,1.224-0.695,1.619&#10;&#9;&#9;&#9;c-0.552,0.516-1.464,0.756-2.783,0.756c-0.72,0-1.271-0.048-1.619-0.097V36.715z M263.646,40.026h0.947&#10;&#9;&#9;&#9;c1.092,0,1.739-0.588,1.739-1.367c0-0.936-0.708-1.319-1.764-1.319c-0.479,0-0.755,0.036-0.923,0.072V40.026z M263.646,43.887&#10;&#9;&#9;&#9;c0.216,0.036,0.504,0.049,0.875,0.049c1.08,0,2.075-0.396,2.075-1.571c0-1.092-0.947-1.56-2.087-1.56h-0.863V43.887z"/>
	</g>
	<g>
		<path d="M229.761,44.679v-0.647l0.827-0.804c1.991-1.895,2.902-2.902,2.902-4.078c0-0.791-0.372-1.523-1.535-1.523&#10;&#9;&#9;&#9;c-0.707,0-1.295,0.36-1.655,0.66l-0.336-0.744c0.528-0.444,1.308-0.792,2.207-0.792c1.667,0,2.375,1.151,2.375,2.267&#10;&#9;&#9;&#9;c0,1.439-1.044,2.603-2.687,4.186l-0.611,0.576v0.023h3.489v0.876H229.761z"/>
		<path d="M237.596,42.136l-0.84,2.543h-1.079l2.746-8.083h1.26l2.759,8.083h-1.116l-0.863-2.543H237.596z M240.247,41.321&#10;&#9;&#9;&#9;l-0.804-2.326c-0.168-0.528-0.287-1.008-0.407-1.476H239c-0.108,0.468-0.24,0.972-0.396,1.463l-0.792,2.339H240.247z"/>
	</g>
	<g>
		<path d="M150.344,44.679l-2.65-8.083h1.14l1.259,3.982c0.336,1.091,0.636,2.087,0.863,3.022h0.024&#10;&#9;&#9;&#9;c0.228-0.936,0.552-1.955,0.924-3.011l1.367-3.994h1.115l-2.891,8.083H150.344z"/>
		<path d="M155.265,36.704c0.504-0.096,1.164-0.168,2.003-0.168c1.032,0,1.787,0.24,2.268,0.672c0.443,0.384,0.719,0.971,0.719,1.69&#10;&#9;&#9;&#9;c0,0.732-0.216,1.308-0.636,1.728c-0.551,0.588-1.451,0.888-2.47,0.888c-0.313,0-0.601-0.013-0.84-0.072v3.238h-1.044V36.704z&#10;&#9;&#9;&#9; M156.309,40.589c0.228,0.06,0.527,0.084,0.863,0.084c1.271,0,2.027-0.624,2.027-1.715c0-1.08-0.756-1.595-1.907-1.595&#10;&#9;&#9;&#9;c-0.456,0-0.804,0.048-0.983,0.084V40.589z"/>
		<path d="M161.53,43.48c0.3,0.18,0.983,0.479,1.727,0.479c1.344,0,1.775-0.852,1.763-1.511c-0.012-1.092-0.995-1.56-2.015-1.56&#10;&#9;&#9;&#9;h-0.588v-0.791h0.588c0.768,0,1.739-0.396,1.739-1.319c0-0.624-0.396-1.176-1.367-1.176c-0.624,0-1.224,0.276-1.56,0.516&#10;&#9;&#9;&#9;l-0.287-0.768c0.419-0.3,1.211-0.6,2.051-0.6c1.535,0,2.23,0.912,2.23,1.859c0,0.815-0.492,1.499-1.439,1.847v0.024&#10;&#9;&#9;&#9;c0.96,0.18,1.739,0.899,1.739,1.99c0,1.247-0.983,2.339-2.843,2.339c-0.875,0-1.643-0.275-2.026-0.527L161.53,43.48z"/>
	</g>
	<g>
		<path d="M22.18,55.693l-2.61-6.706h1.122l1.24,3.303c0.331,0.905,0.626,1.731,0.851,2.507h0.023&#10;&#9;&#9;&#9;c0.225-0.776,0.543-1.622,0.909-2.497l1.347-3.313h1.098l-2.846,6.706H22.18z"/>
		<path d="M27.024,49.077c0.496-0.08,1.146-0.14,1.973-0.14c1.016,0,1.759,0.199,2.232,0.557c0.437,0.318,0.708,0.806,0.708,1.403&#10;&#9;&#9;&#9;c0,0.607-0.212,1.084-0.626,1.433c-0.543,0.488-1.429,0.736-2.433,0.736c-0.307,0-0.591-0.01-0.827-0.06v2.686h-1.028V49.077z&#10;&#9;&#9;&#9; M28.052,52.3c0.224,0.05,0.52,0.07,0.85,0.07c1.252,0,1.996-0.518,1.996-1.423c0-0.896-0.744-1.323-1.878-1.323&#10;&#9;&#9;&#9;c-0.449,0-0.792,0.04-0.968,0.07V52.3z"/>
		<path d="M38.164,54.986c0,1.114-0.271,1.781-0.815,2.209c-0.567,0.428-1.37,0.577-2.09,0.577c-0.685,0-1.441-0.139-1.901-0.398&#10;&#9;&#9;&#9;l0.26-0.676c0.378,0.209,0.969,0.388,1.677,0.388c1.063,0,1.842-0.467,1.842-1.691v-0.527h-0.023&#10;&#9;&#9;&#9;c-0.307,0.448-0.933,0.806-1.819,0.806c-1.417,0-2.433-1.015-2.433-2.358c0-1.631,1.264-2.547,2.586-2.547&#10;&#9;&#9;&#9;c0.992,0,1.523,0.428,1.784,0.826h0.023l0.035-0.717h0.921c-0.036,0.338-0.047,0.727-0.047,1.313V54.986z M37.125,52.768&#10;&#9;&#9;&#9;c0-0.14-0.012-0.269-0.059-0.388c-0.189-0.517-0.685-0.935-1.453-0.935c-0.992,0-1.701,0.706-1.701,1.831&#10;&#9;&#9;&#9;c0,0.935,0.579,1.731,1.689,1.731c0.649,0,1.228-0.338,1.44-0.905c0.059-0.139,0.083-0.309,0.083-0.468V52.768z"/>
	</g>
	<path fill="#FFFFFF" stroke="#338424" d="M61.73,30.028c-1.179,0-2.179,0.753-2.55,1.804h-5.276l0.016-4.554&#10;&#9;&#9;c1.053-0.368,1.81-1.364,1.815-2.542c0.005-1.494-1.203-2.711-2.697-2.717s-2.711,1.201-2.716,2.696&#10;&#9;&#9;c-0.003,1.062,0.606,1.981,1.495,2.428l-0.017,4.688h-4.661c-0.373-1.051-1.372-1.804-2.549-1.804&#10;&#9;&#9;c-1.494,0-2.707,1.212-2.707,2.706c0,1.495,1.213,2.706,2.707,2.706c1.062,0,1.978-0.612,2.421-1.503h4.78l-0.019,20.449&#10;&#9;&#9;l2.105-0.011l0.02-20.438h5.412c0.443,0.891,1.359,1.503,2.423,1.503c1.495,0,2.706-1.211,2.706-2.706&#10;&#9;&#9;C64.436,31.24,63.225,30.028,61.73,30.028z"/>
	<g>
		<path d="M42.743,6.765v9.462h-1.235V6.765H42.743z"/>
		<path d="M44.878,6.906c0.618-0.126,1.516-0.21,2.344-0.21c1.306,0,2.162,0.252,2.751,0.786c0.463,0.407,0.744,1.053,0.744,1.797&#10;&#9;&#9;&#9;c0,1.235-0.8,2.063-1.783,2.4v0.042c0.716,0.253,1.151,0.927,1.39,1.909c0.309,1.32,0.533,2.232,0.716,2.597h-1.263&#10;&#9;&#9;&#9;c-0.155-0.267-0.365-1.081-0.618-2.26c-0.281-1.305-0.8-1.797-1.909-1.839h-1.151v4.099h-1.221V6.906z M46.099,11.202h1.25&#10;&#9;&#9;&#9;c1.306,0,2.134-0.716,2.134-1.797c0-1.222-0.884-1.755-2.176-1.755c-0.59,0-0.997,0.056-1.208,0.112V11.202z"/>
		<path d="M57.318,11.791h-3.664v3.411h4.099v1.025h-5.334V6.765h5.124V7.79h-3.889v2.99h3.664V11.791z"/>
		<path d="M59.188,14.739c0.547,0.351,1.333,0.618,2.176,0.618c1.25,0,1.979-0.646,1.979-1.615c0-0.87-0.505-1.39-1.783-1.867&#10;&#9;&#9;&#9;c-1.544-0.562-2.499-1.376-2.499-2.695c0-1.474,1.221-2.569,3.06-2.569c0.955,0,1.671,0.225,2.078,0.463l-0.337,0.997&#10;&#9;&#9;&#9;c-0.295-0.183-0.927-0.449-1.783-0.449c-1.292,0-1.783,0.772-1.783,1.418c0,0.884,0.576,1.319,1.881,1.825&#10;&#9;&#9;&#9;c1.6,0.631,2.4,1.39,2.4,2.779c0,1.46-1.067,2.737-3.299,2.737c-0.913,0-1.909-0.281-2.415-0.618L59.188,14.739z"/>
	</g>
	<g>
		<path d="M90.112,237.973h-0.023l-1.355,0.731l-0.204-0.803l1.703-0.912h0.899v7.796h-1.02V237.973z"/>
		<path d="M95.657,242.243l-0.84,2.543h-1.079l2.746-8.083h1.26l2.759,8.083h-1.116l-0.863-2.543H95.657z M98.307,241.427&#10;&#9;&#9;&#9;l-0.804-2.326c-0.168-0.528-0.287-1.008-0.407-1.476H97.06c-0.108,0.468-0.24,0.972-0.396,1.463l-0.792,2.339H98.307z"/>
	</g>
	<g>
		<path d="M152.488,205.49h-0.023l-1.355,0.731l-0.204-0.804l1.703-0.911h0.899v7.796h-1.02V205.49z"/>
		<path d="M162.363,212.05c-0.372,0.192-1.151,0.384-2.136,0.384c-2.278,0-3.981-1.439-3.981-4.102c0-2.542,1.715-4.245,4.222-4.245&#10;&#9;&#9;&#9;c0.995,0,1.644,0.215,1.919,0.359l-0.264,0.852c-0.384-0.192-0.947-0.336-1.619-0.336c-1.895,0-3.154,1.211-3.154,3.334&#10;&#9;&#9;&#9;c0,1.991,1.14,3.25,3.095,3.25c0.647,0,1.295-0.132,1.715-0.336L162.363,212.05z"/>
	</g>
	<g>
		<path d="M12.75,50.437H9.775l-0.3,1.979c0.18-0.024,0.348-0.048,0.636-0.048c0.611,0,1.199,0.132,1.679,0.419&#10;&#9;&#9;&#9;c0.611,0.336,1.115,1.02,1.115,2.027c0,1.523-1.211,2.663-2.902,2.663c-0.852,0-1.559-0.24-1.943-0.479l0.264-0.804&#10;&#9;&#9;&#9;c0.324,0.192,0.959,0.432,1.679,0.432c0.983,0,1.847-0.647,1.835-1.703c0-1.031-0.684-1.739-2.231-1.739&#10;&#9;&#9;&#9;c-0.456,0-0.804,0.036-1.091,0.084l0.504-3.718h3.73V50.437z"/>
		<path d="M15.907,49.045c-0.276,1.007-0.792,2.303-1.115,2.854l-0.672,0.072c0.252-0.708,0.576-1.943,0.708-2.807L15.907,49.045z"/>
	</g>
	<g>
		<path d="M597.348,196.637c0.301,0.18,0.984,0.479,1.727,0.479c1.344,0,1.775-0.852,1.764-1.511&#10;&#9;&#9;&#9;c-0.012-1.092-0.996-1.56-2.016-1.56h-0.588v-0.791h0.588c0.768,0,1.74-0.396,1.74-1.319c0-0.624-0.396-1.176-1.367-1.176&#10;&#9;&#9;&#9;c-0.625,0-1.225,0.276-1.561,0.516l-0.287-0.768c0.42-0.3,1.211-0.6,2.051-0.6c1.535,0,2.23,0.911,2.23,1.859&#10;&#9;&#9;&#9;c0,0.815-0.492,1.499-1.439,1.847v0.024c0.961,0.18,1.74,0.899,1.74,1.99c0,1.247-0.984,2.339-2.844,2.339&#10;&#9;&#9;&#9;c-0.875,0-1.643-0.275-2.025-0.527L597.348,196.637z"/>
		<path d="M603.624,189.873c0.457-0.107,1.188-0.18,1.908-0.18c1.043,0,1.715,0.18,2.207,0.588c0.42,0.312,0.684,0.791,0.684,1.427&#10;&#9;&#9;&#9;c0,0.792-0.529,1.476-1.367,1.775v0.036c0.768,0.18,1.666,0.815,1.666,2.015c0,0.695-0.275,1.224-0.695,1.619&#10;&#9;&#9;&#9;c-0.551,0.516-1.463,0.756-2.783,0.756c-0.719,0-1.27-0.048-1.619-0.097V189.873z M604.668,193.183h0.947&#10;&#9;&#9;&#9;c1.092,0,1.738-0.588,1.738-1.367c0-0.936-0.707-1.319-1.764-1.319c-0.479,0-0.754,0.036-0.922,0.071V193.183z M604.668,197.044&#10;&#9;&#9;&#9;c0.215,0.036,0.504,0.049,0.875,0.049c1.08,0,2.074-0.396,2.074-1.571c0-1.092-0.947-1.56-2.086-1.56h-0.863V197.044z"/>
		<path d="M615.766,197.584c-0.373,0.192-1.152,0.384-2.137,0.384c-2.277,0-3.98-1.439-3.98-4.102c0-2.543,1.715-4.246,4.221-4.246&#10;&#9;&#9;&#9;c0.996,0,1.645,0.217,1.92,0.36l-0.264,0.852c-0.385-0.192-0.947-0.336-1.619-0.336c-1.895,0-3.154,1.211-3.154,3.334&#10;&#9;&#9;&#9;c0,1.991,1.139,3.25,3.094,3.25c0.648,0,1.295-0.132,1.715-0.336L615.766,197.584z"/>
		<path d="M617.077,189.861c0.646-0.096,1.402-0.168,2.23-0.168c1.5,0,2.566,0.336,3.273,0.996c0.732,0.659,1.152,1.606,1.152,2.914&#10;&#9;&#9;&#9;c0,1.319-0.42,2.398-1.164,3.142c-0.768,0.756-2.014,1.164-3.586,1.164c-0.756,0-1.367-0.024-1.906-0.097V189.861z&#10;&#9;&#9;&#9; M618.131,197.021c0.264,0.048,0.648,0.048,1.057,0.048c2.23,0.012,3.441-1.247,3.441-3.43c0.012-1.932-1.068-3.118-3.273-3.118&#10;&#9;&#9;&#9;c-0.541,0-0.949,0.047-1.225,0.107V197.021z"/>
	</g>
	<g>
		<path d="M122.111,172.524h-0.023l-1.355,0.731l-0.204-0.803l1.703-0.912h0.899v7.796h-1.02V172.524z"/>
		<path d="M127.656,176.793l-0.84,2.543h-1.079l2.746-8.083h1.26l2.759,8.083h-1.116l-0.863-2.543H127.656z M130.306,175.978&#10;&#9;&#9;&#9;l-0.804-2.326c-0.168-0.528-0.287-1.008-0.407-1.476h-0.036c-0.108,0.468-0.24,0.972-0.396,1.463l-0.792,2.339H130.306z"/>
		<path d="M133.692,171.373c0.456-0.107,1.188-0.18,1.907-0.18c1.044,0,1.715,0.18,2.207,0.588c0.42,0.312,0.684,0.791,0.684,1.427&#10;&#9;&#9;&#9;c0,0.792-0.528,1.476-1.367,1.775v0.036c0.768,0.18,1.667,0.815,1.667,2.015c0,0.695-0.276,1.224-0.695,1.619&#10;&#9;&#9;&#9;c-0.552,0.516-1.464,0.756-2.783,0.756c-0.72,0-1.271-0.048-1.619-0.097V171.373z M134.736,174.683h0.947&#10;&#9;&#9;&#9;c1.092,0,1.739-0.588,1.739-1.367c0-0.936-0.708-1.319-1.764-1.319c-0.479,0-0.755,0.036-0.923,0.071V174.683z M134.736,178.544&#10;&#9;&#9;&#9;c0.216,0.036,0.504,0.049,0.875,0.049c1.08,0,2.075-0.396,2.075-1.571c0-1.092-0.947-1.56-2.087-1.56h-0.863V178.544z"/>
		<path d="M145.833,179.084c-0.372,0.192-1.151,0.384-2.136,0.384c-2.278,0-3.981-1.439-3.981-4.102&#10;&#9;&#9;&#9;c0-2.543,1.715-4.246,4.222-4.246c0.995,0,1.644,0.217,1.919,0.36l-0.264,0.852c-0.384-0.192-0.947-0.336-1.619-0.336&#10;&#9;&#9;&#9;c-1.895,0-3.154,1.211-3.154,3.334c0,1.991,1.14,3.25,3.095,3.25c0.647,0,1.295-0.132,1.715-0.336L145.833,179.084z"/>
	</g>
	<g>
		<path d="M229.761,179.336v-0.647l0.827-0.804c1.991-1.895,2.902-2.902,2.902-4.078c0-0.791-0.372-1.522-1.535-1.522&#10;&#9;&#9;&#9;c-0.707,0-1.295,0.359-1.655,0.659l-0.336-0.743c0.528-0.444,1.308-0.792,2.207-0.792c1.667,0,2.375,1.151,2.375,2.267&#10;&#9;&#9;&#9;c0,1.439-1.044,2.603-2.687,4.186l-0.611,0.576v0.023h3.489v0.876H229.761z"/>
		<path d="M237.596,176.793l-0.84,2.543h-1.079l2.746-8.083h1.26l2.759,8.083h-1.116l-0.863-2.543H237.596z M240.247,175.978&#10;&#9;&#9;&#9;l-0.804-2.326c-0.168-0.528-0.287-1.008-0.407-1.476H239c-0.108,0.468-0.24,0.972-0.396,1.463l-0.792,2.339H240.247z"/>
	</g>
	<g>
		<path d="M366.012,196.637c0.301,0.18,0.984,0.479,1.727,0.479c1.344,0,1.775-0.852,1.764-1.511&#10;&#9;&#9;&#9;c-0.012-1.092-0.996-1.56-2.016-1.56h-0.588v-0.791h0.588c0.768,0,1.74-0.396,1.74-1.319c0-0.624-0.396-1.176-1.367-1.176&#10;&#9;&#9;&#9;c-0.625,0-1.225,0.276-1.561,0.516l-0.287-0.768c0.42-0.3,1.211-0.6,2.051-0.6c1.535,0,2.23,0.911,2.23,1.859&#10;&#9;&#9;&#9;c0,0.815-0.492,1.499-1.439,1.847v0.024c0.961,0.18,1.74,0.899,1.74,1.99c0,1.247-0.984,2.339-2.844,2.339&#10;&#9;&#9;&#9;c-0.875,0-1.643-0.275-2.025-0.527L366.012,196.637z"/>
		<path d="M373.596,195.293l-0.84,2.543h-1.08l2.746-8.083h1.26l2.76,8.083h-1.117l-0.863-2.543H373.596z M376.247,194.478&#10;&#9;&#9;&#9;l-0.805-2.326c-0.168-0.528-0.287-1.008-0.406-1.476h-0.037c-0.107,0.468-0.24,0.972-0.395,1.463l-0.793,2.339H376.247z"/>
		<path d="M379.631,189.873c0.457-0.107,1.188-0.18,1.908-0.18c1.043,0,1.715,0.18,2.207,0.588c0.42,0.312,0.684,0.791,0.684,1.427&#10;&#9;&#9;&#9;c0,0.792-0.529,1.476-1.367,1.775v0.036c0.768,0.18,1.666,0.815,1.666,2.015c0,0.695-0.275,1.224-0.695,1.619&#10;&#9;&#9;&#9;c-0.551,0.516-1.463,0.756-2.783,0.756c-0.719,0-1.27-0.048-1.619-0.097V189.873z M380.676,193.183h0.947&#10;&#9;&#9;&#9;c1.092,0,1.738-0.588,1.738-1.367c0-0.936-0.707-1.319-1.764-1.319c-0.479,0-0.754,0.036-0.922,0.071V193.183z M380.676,197.044&#10;&#9;&#9;&#9;c0.215,0.036,0.504,0.049,0.875,0.049c1.08,0,2.074-0.396,2.074-1.571c0-1.092-0.947-1.56-2.086-1.56h-0.863V197.044z"/>
	</g>
	<g>
		<path d="M564.014,263.77c0.301,0.18,0.984,0.479,1.727,0.479c1.344,0,1.775-0.852,1.764-1.511c-0.012-1.092-0.996-1.56-2.016-1.56&#10;&#9;&#9;&#9;h-0.588v-0.791h0.588c0.768,0,1.74-0.396,1.74-1.319c0-0.624-0.396-1.176-1.367-1.176c-0.625,0-1.225,0.276-1.561,0.516&#10;&#9;&#9;&#9;l-0.287-0.768c0.42-0.3,1.211-0.6,2.051-0.6c1.535,0,2.23,0.911,2.23,1.859c0,0.815-0.492,1.499-1.439,1.847v0.024&#10;&#9;&#9;&#9;c0.961,0.18,1.74,0.899,1.74,1.99c0,1.247-0.984,2.339-2.844,2.339c-0.875,0-1.643-0.275-2.025-0.527L564.014,263.77z"/>
		<path d="M575.928,264.717c-0.373,0.192-1.152,0.384-2.137,0.384c-2.277,0-3.98-1.439-3.98-4.102c0-2.543,1.715-4.246,4.221-4.246&#10;&#9;&#9;&#9;c0.996,0,1.645,0.217,1.92,0.36l-0.264,0.852c-0.385-0.192-0.947-0.336-1.619-0.336c-1.895,0-3.154,1.211-3.154,3.334&#10;&#9;&#9;&#9;c0,1.991,1.139,3.25,3.094,3.25c0.648,0,1.295-0.132,1.715-0.336L575.928,264.717z"/>
	</g>
	<g>
		<path d="M542.93,263.77c0.301,0.18,0.984,0.479,1.727,0.479c1.344,0,1.775-0.852,1.764-1.511c-0.012-1.092-0.996-1.56-2.016-1.56&#10;&#9;&#9;&#9;h-0.588v-0.791h0.588c0.768,0,1.74-0.396,1.74-1.319c0-0.624-0.396-1.176-1.367-1.176c-0.625,0-1.225,0.276-1.561,0.516&#10;&#9;&#9;&#9;l-0.287-0.768c0.42-0.3,1.211-0.6,2.051-0.6c1.535,0,2.23,0.911,2.23,1.859c0,0.815-0.492,1.499-1.439,1.847v0.024&#10;&#9;&#9;&#9;c0.961,0.18,1.74,0.899,1.74,1.99c0,1.247-0.984,2.339-2.844,2.339c-0.875,0-1.643-0.275-2.025-0.527L542.93,263.77z"/>
		<path d="M549.206,257.005c0.457-0.107,1.188-0.18,1.908-0.18c1.043,0,1.715,0.18,2.207,0.588c0.42,0.312,0.684,0.791,0.684,1.427&#10;&#9;&#9;&#9;c0,0.792-0.529,1.476-1.367,1.775v0.036c0.768,0.18,1.666,0.815,1.666,2.015c0,0.695-0.275,1.224-0.695,1.619&#10;&#9;&#9;&#9;c-0.551,0.516-1.463,0.756-2.783,0.756c-0.719,0-1.27-0.048-1.619-0.097V257.005z M550.25,260.316h0.947&#10;&#9;&#9;&#9;c1.092,0,1.738-0.588,1.738-1.367c0-0.936-0.707-1.319-1.764-1.319c-0.479,0-0.754,0.036-0.922,0.071V260.316z M550.25,264.177&#10;&#9;&#9;&#9;c0.215,0.036,0.504,0.049,0.875,0.049c1.08,0,2.074-0.396,2.074-1.571c0-1.092-0.947-1.56-2.086-1.56h-0.863V264.177z"/>
	</g>
	<g>
		<path d="M302.739,212.303v-0.647l0.827-0.804c1.991-1.895,2.902-2.902,2.902-4.078c0-0.791-0.372-1.522-1.535-1.522&#10;&#9;&#9;&#9;c-0.707,0-1.295,0.359-1.655,0.659l-0.336-0.743c0.528-0.444,1.308-0.792,2.207-0.792c1.667,0,2.375,1.151,2.375,2.267&#10;&#9;&#9;&#9;c0,1.439-1.044,2.603-2.687,4.186l-0.611,0.576v0.023h3.489v0.876H302.739z"/>
		<path d="M314.904,212.051c-0.372,0.192-1.151,0.384-2.136,0.384c-2.278,0-3.981-1.439-3.981-4.102&#10;&#9;&#9;&#9;c0-2.543,1.715-4.246,4.222-4.246c0.995,0,1.644,0.217,1.919,0.36l-0.264,0.852c-0.384-0.192-0.947-0.336-1.619-0.336&#10;&#9;&#9;&#9;c-1.895,0-3.154,1.211-3.154,3.334c0,1.991,1.14,3.25,3.095,3.25c0.647,0,1.295-0.132,1.715-0.336L314.904,212.051z"/>
	</g>
	<g>
		<path d="M257.074,212.303v-0.647l0.827-0.804c1.991-1.895,2.902-2.902,2.902-4.078c0-0.791-0.372-1.522-1.535-1.522&#10;&#9;&#9;&#9;c-0.707,0-1.295,0.359-1.655,0.659l-0.336-0.743c0.528-0.444,1.308-0.792,2.207-0.792c1.667,0,2.375,1.151,2.375,2.267&#10;&#9;&#9;&#9;c0,1.439-1.044,2.603-2.687,4.186l-0.611,0.576v0.023h3.489v0.876H257.074z"/>
		<path d="M263.602,204.339c0.456-0.107,1.188-0.18,1.907-0.18c1.044,0,1.715,0.18,2.207,0.588c0.42,0.312,0.684,0.791,0.684,1.427&#10;&#9;&#9;&#9;c0,0.792-0.528,1.476-1.367,1.775v0.036c0.768,0.18,1.667,0.815,1.667,2.015c0,0.695-0.276,1.224-0.695,1.619&#10;&#9;&#9;&#9;c-0.552,0.516-1.464,0.756-2.783,0.756c-0.72,0-1.271-0.048-1.619-0.097V204.339z M264.646,207.65h0.947&#10;&#9;&#9;&#9;c1.092,0,1.739-0.588,1.739-1.367c0-0.936-0.708-1.319-1.764-1.319c-0.479,0-0.755,0.036-0.923,0.071V207.65z M264.646,211.511&#10;&#9;&#9;&#9;c0.216,0.036,0.504,0.049,0.875,0.049c1.08,0,2.075-0.396,2.075-1.571c0-1.092-0.947-1.56-2.087-1.56h-0.863V211.511z"/>
	</g>
	<g>
		<path d="M191.608,172.524h-0.023l-1.355,0.731l-0.204-0.803l1.703-0.912h0.899v7.796h-1.02V172.524z"/>
		<path d="M195.833,171.361c0.647-0.096,1.403-0.168,2.23-0.168c1.5,0,2.567,0.336,3.274,0.996c0.731,0.659,1.151,1.606,1.151,2.914&#10;&#9;&#9;&#9;c0,1.319-0.42,2.398-1.163,3.142c-0.768,0.756-2.015,1.164-3.586,1.164c-0.756,0-1.367-0.024-1.907-0.097V171.361z&#10;&#9;&#9;&#9; M196.889,178.521c0.264,0.048,0.647,0.048,1.056,0.048c2.23,0.012,3.441-1.247,3.441-3.43c0.013-1.932-1.067-3.118-3.273-3.118&#10;&#9;&#9;&#9;c-0.54,0-0.948,0.047-1.224,0.107V178.521z"/>
	</g>
	<g>
		<path d="M117.777,237.973h-0.023l-1.355,0.731l-0.204-0.803l1.703-0.912h0.899v7.796h-1.02V237.973z"/>
		<path d="M122.015,236.822c0.456-0.107,1.188-0.18,1.907-0.18c1.044,0,1.715,0.18,2.207,0.588c0.42,0.312,0.684,0.791,0.684,1.427&#10;&#9;&#9;&#9;c0,0.792-0.528,1.476-1.367,1.775v0.036c0.768,0.18,1.667,0.815,1.667,2.015c0,0.695-0.276,1.224-0.695,1.619&#10;&#9;&#9;&#9;c-0.552,0.516-1.464,0.756-2.783,0.756c-0.72,0-1.271-0.048-1.619-0.097V236.822z M123.059,240.132h0.947&#10;&#9;&#9;&#9;c1.092,0,1.739-0.588,1.739-1.367c0-0.936-0.708-1.319-1.764-1.319c-0.479,0-0.755,0.036-0.923,0.071V240.132z M123.059,243.994&#10;&#9;&#9;&#9;c0.216,0.036,0.504,0.049,0.875,0.049c1.08,0,2.075-0.396,2.075-1.571c0-1.092-0.947-1.56-2.087-1.56h-0.863V243.994z"/>
	</g>
	<g>
		<path d="M104.968,212.302l-2.65-8.084h1.14l1.259,3.982c0.336,1.091,0.636,2.087,0.863,3.022h0.024&#10;&#9;&#9;&#9;c0.228-0.936,0.552-1.955,0.924-3.011l1.367-3.994h1.115l-2.891,8.084H104.968z"/>
		<path d="M109.889,204.327c0.504-0.097,1.164-0.168,2.003-0.168c1.032,0,1.787,0.239,2.268,0.672&#10;&#9;&#9;&#9;c0.443,0.384,0.719,0.972,0.719,1.69c0,0.732-0.216,1.308-0.636,1.728c-0.551,0.588-1.451,0.888-2.47,0.888&#10;&#9;&#9;&#9;c-0.313,0-0.601-0.013-0.84-0.072v3.238h-1.044V204.327z M110.933,208.212c0.228,0.06,0.527,0.084,0.863,0.084&#10;&#9;&#9;&#9;c1.271,0,2.027-0.624,2.027-1.715c0-1.08-0.756-1.596-1.907-1.596c-0.456,0-0.804,0.049-0.983,0.084V208.212z"/>
		<path d="M118.384,212.434c-1.523,0-2.566-1.427-2.591-4.006c0-2.626,1.14-4.054,2.723-4.054c1.631,0,2.578,1.463,2.578,3.946&#10;&#9;&#9;&#9;c0,2.65-0.995,4.113-2.698,4.113H118.384z M118.432,211.619c1.067,0,1.583-1.26,1.583-3.25c0-1.919-0.479-3.179-1.583-3.179&#10;&#9;&#9;&#9;c-0.96,0-1.583,1.224-1.583,3.179c-0.024,2.026,0.6,3.25,1.571,3.25H118.432z"/>
	</g>
	<g>
		<path d="M136.611,140.271h-0.023l-1.355,0.731l-0.204-0.804l1.703-0.911h0.899v7.796h-1.02V140.271z"/>
		<path d="M142.156,144.541l-0.84,2.543h-1.079l2.746-8.084h1.26l2.759,8.084h-1.116l-0.863-2.543H142.156z M144.806,143.725&#10;&#9;&#9;&#9;l-0.804-2.326c-0.168-0.528-0.287-1.008-0.407-1.476h-0.036c-0.108,0.468-0.24,0.972-0.396,1.463l-0.792,2.339H144.806z"/>
		<path d="M148.192,139.12c0.456-0.108,1.188-0.18,1.907-0.18c1.044,0,1.715,0.18,2.207,0.588c0.42,0.312,0.684,0.792,0.684,1.427&#10;&#9;&#9;&#9;c0,0.792-0.528,1.476-1.367,1.775v0.036c0.768,0.18,1.667,0.815,1.667,2.015c0,0.695-0.276,1.224-0.695,1.619&#10;&#9;&#9;&#9;c-0.552,0.516-1.464,0.756-2.783,0.756c-0.72,0-1.271-0.048-1.619-0.097V139.12z M149.236,142.43h0.947&#10;&#9;&#9;&#9;c1.092,0,1.739-0.588,1.739-1.367c0-0.936-0.708-1.319-1.764-1.319c-0.479,0-0.755,0.035-0.923,0.072V142.43z M149.236,146.292&#10;&#9;&#9;&#9;c0.216,0.036,0.504,0.049,0.875,0.049c1.08,0,2.075-0.396,2.075-1.571c0-1.092-0.947-1.56-2.087-1.56h-0.863V146.292z"/>
		<path d="M160.333,146.832c-0.372,0.192-1.151,0.384-2.136,0.384c-2.278,0-3.981-1.439-3.981-4.102&#10;&#9;&#9;&#9;c0-2.542,1.715-4.245,4.222-4.245c0.995,0,1.644,0.215,1.919,0.359l-0.264,0.852c-0.384-0.192-0.947-0.336-1.619-0.336&#10;&#9;&#9;&#9;c-1.895,0-3.154,1.211-3.154,3.334c0,1.991,1.14,3.25,3.095,3.25c0.647,0,1.295-0.132,1.715-0.336L160.333,146.832z"/>
		<path d="M161.644,139.108c0.647-0.097,1.403-0.168,2.23-0.168c1.5,0,2.567,0.336,3.274,0.995c0.731,0.66,1.151,1.607,1.151,2.915&#10;&#9;&#9;&#9;c0,1.319-0.42,2.398-1.163,3.142c-0.768,0.756-2.015,1.164-3.586,1.164c-0.756,0-1.367-0.024-1.907-0.097V139.108z M162.7,146.268&#10;&#9;&#9;&#9;c0.264,0.048,0.647,0.048,1.056,0.048c2.23,0.012,3.441-1.247,3.441-3.43c0.013-1.932-1.067-3.119-3.273-3.119&#10;&#9;&#9;&#9;c-0.54,0-0.948,0.049-1.224,0.108V146.268z"/>
	</g>
	<g>
		<path d="M274.429,147.083v-0.647l0.827-0.804c1.991-1.895,2.902-2.902,2.902-4.078c0-0.791-0.372-1.523-1.535-1.523&#10;&#9;&#9;&#9;c-0.707,0-1.295,0.36-1.655,0.66l-0.336-0.744c0.528-0.443,1.308-0.791,2.207-0.791c1.667,0,2.375,1.151,2.375,2.267&#10;&#9;&#9;&#9;c0,1.439-1.044,2.603-2.687,4.186l-0.611,0.576v0.023h3.489v0.876H274.429z"/>
		<path d="M282.264,144.541l-0.84,2.543h-1.079l2.746-8.084h1.26l2.759,8.084h-1.116l-0.863-2.543H282.264z M284.914,143.725&#10;&#9;&#9;&#9;l-0.804-2.326c-0.168-0.528-0.287-1.008-0.407-1.476h-0.036c-0.108,0.468-0.24,0.972-0.396,1.463l-0.792,2.339H284.914z"/>
		<path d="M288.3,139.12c0.456-0.108,1.188-0.18,1.907-0.18c1.044,0,1.715,0.18,2.207,0.588c0.42,0.312,0.684,0.792,0.684,1.427&#10;&#9;&#9;&#9;c0,0.792-0.528,1.476-1.367,1.775v0.036c0.768,0.18,1.667,0.815,1.667,2.015c0,0.695-0.276,1.224-0.695,1.619&#10;&#9;&#9;&#9;c-0.552,0.516-1.464,0.756-2.783,0.756c-0.72,0-1.271-0.048-1.619-0.097V139.12z M289.344,142.43h0.947&#10;&#9;&#9;&#9;c1.092,0,1.739-0.588,1.739-1.367c0-0.936-0.708-1.319-1.764-1.319c-0.479,0-0.755,0.035-0.923,0.072V142.43z M289.344,146.292&#10;&#9;&#9;&#9;c0.216,0.036,0.504,0.049,0.875,0.049c1.08,0,2.075-0.396,2.075-1.571c0-1.092-0.947-1.56-2.087-1.56h-0.863V146.292z"/>
		<path d="M300.441,146.832c-0.372,0.192-1.151,0.384-2.136,0.384c-2.278,0-3.981-1.439-3.981-4.102&#10;&#9;&#9;&#9;c0-2.542,1.715-4.245,4.222-4.245c0.995,0,1.644,0.215,1.919,0.359l-0.264,0.852c-0.384-0.192-0.947-0.336-1.619-0.336&#10;&#9;&#9;&#9;c-1.895,0-3.154,1.211-3.154,3.334c0,1.991,1.14,3.25,3.095,3.25c0.647,0,1.295-0.132,1.715-0.336L300.441,146.832z"/>
	</g>
	<g>
		<path d="M418.68,146.622c0.301,0.18,0.984,0.479,1.727,0.479c1.344,0,1.775-0.852,1.764-1.511c-0.012-1.092-0.996-1.56-2.016-1.56&#10;&#9;&#9;&#9;h-0.588v-0.791h0.588c0.768,0,1.74-0.396,1.74-1.319c0-0.624-0.396-1.176-1.367-1.176c-0.625,0-1.225,0.276-1.561,0.516&#10;&#9;&#9;&#9;l-0.287-0.768c0.42-0.3,1.211-0.6,2.051-0.6c1.535,0,2.23,0.911,2.23,1.859c0,0.815-0.492,1.499-1.439,1.847v0.024&#10;&#9;&#9;&#9;c0.961,0.18,1.74,0.899,1.74,1.99c0,1.247-0.984,2.339-2.844,2.339c-0.875,0-1.643-0.275-2.025-0.527L418.68,146.622z"/>
		<path d="M426.264,145.278l-0.84,2.543h-1.08l2.746-8.083h1.26l2.76,8.083h-1.117l-0.863-2.543H426.264z M428.915,144.462&#10;&#9;&#9;&#9;l-0.805-2.326c-0.168-0.528-0.287-1.008-0.406-1.476h-0.037c-0.107,0.468-0.24,0.972-0.395,1.463l-0.793,2.339H428.915z"/>
		<path d="M432.299,139.857c0.457-0.107,1.188-0.18,1.908-0.18c1.043,0,1.715,0.18,2.207,0.588c0.42,0.312,0.684,0.791,0.684,1.427&#10;&#9;&#9;&#9;c0,0.792-0.529,1.476-1.367,1.775v0.036c0.768,0.18,1.666,0.815,1.666,2.015c0,0.695-0.275,1.224-0.695,1.619&#10;&#9;&#9;&#9;c-0.551,0.516-1.463,0.756-2.783,0.756c-0.719,0-1.27-0.048-1.619-0.097V139.857z M433.344,143.167h0.947&#10;&#9;&#9;&#9;c1.092,0,1.738-0.588,1.738-1.367c0-0.936-0.707-1.319-1.764-1.319c-0.479,0-0.754,0.036-0.922,0.071V143.167z M433.344,147.029&#10;&#9;&#9;&#9;c0.215,0.036,0.504,0.049,0.875,0.049c1.08,0,2.074-0.396,2.074-1.571c0-1.092-0.947-1.56-2.086-1.56h-0.863V147.029z"/>
		<path d="M444.442,147.569c-0.373,0.192-1.152,0.384-2.137,0.384c-2.277,0-3.98-1.439-3.98-4.102c0-2.543,1.715-4.246,4.221-4.246&#10;&#9;&#9;&#9;c0.996,0,1.645,0.217,1.92,0.36l-0.264,0.852c-0.385-0.192-0.947-0.336-1.619-0.336c-1.895,0-3.154,1.211-3.154,3.334&#10;&#9;&#9;&#9;c0,1.991,1.139,3.25,3.094,3.25c0.648,0,1.295-0.132,1.715-0.336L444.442,147.569z"/>
		<path d="M445.752,139.845c0.646-0.096,1.402-0.168,2.23-0.168c1.5,0,2.566,0.336,3.273,0.996c0.732,0.659,1.152,1.606,1.152,2.914&#10;&#9;&#9;&#9;c0,1.319-0.42,2.398-1.164,3.142c-0.768,0.756-2.014,1.164-3.586,1.164c-0.756,0-1.367-0.024-1.906-0.097V139.845z&#10;&#9;&#9;&#9; M446.807,147.005c0.264,0.048,0.648,0.048,1.057,0.048c2.23,0.012,3.441-1.247,3.441-3.43c0.012-1.932-1.068-3.118-3.273-3.118&#10;&#9;&#9;&#9;c-0.541,0-0.949,0.047-1.225,0.107V147.005z"/>
	</g>
	<g>
		<path d="M294.429,179.336v-0.647l0.827-0.804c1.991-1.895,2.902-2.902,2.902-4.078c0-0.791-0.372-1.522-1.535-1.522&#10;&#9;&#9;&#9;c-0.707,0-1.295,0.359-1.655,0.659l-0.336-0.743c0.528-0.444,1.308-0.792,2.207-0.792c1.667,0,2.375,1.151,2.375,2.267&#10;&#9;&#9;&#9;c0,1.439-1.044,2.603-2.687,4.186l-0.611,0.576v0.023h3.489v0.876H294.429z"/>
		<path d="M300.956,171.373c0.456-0.107,1.188-0.18,1.907-0.18c1.044,0,1.715,0.18,2.207,0.588c0.42,0.312,0.684,0.791,0.684,1.427&#10;&#9;&#9;&#9;c0,0.792-0.528,1.476-1.367,1.775v0.036c0.768,0.18,1.667,0.815,1.667,2.015c0,0.695-0.276,1.224-0.695,1.619&#10;&#9;&#9;&#9;c-0.552,0.516-1.464,0.756-2.783,0.756c-0.72,0-1.271-0.048-1.619-0.097V171.373z M302,174.683h0.947&#10;&#9;&#9;&#9;c1.092,0,1.739-0.588,1.739-1.367c0-0.936-0.708-1.319-1.764-1.319c-0.479,0-0.755,0.036-0.923,0.071V174.683z M302,178.544&#10;&#9;&#9;&#9;c0.216,0.036,0.504,0.049,0.875,0.049c1.08,0,2.075-0.396,2.075-1.571c0-1.092-0.947-1.56-2.087-1.56H302V178.544z"/>
		<path d="M313.098,179.084c-0.372,0.192-1.151,0.384-2.136,0.384c-2.278,0-3.981-1.439-3.981-4.102&#10;&#9;&#9;&#9;c0-2.543,1.715-4.246,4.222-4.246c0.995,0,1.644,0.217,1.919,0.36l-0.264,0.852c-0.384-0.192-0.947-0.336-1.619-0.336&#10;&#9;&#9;&#9;c-1.895,0-3.154,1.211-3.154,3.334c0,1.991,1.14,3.25,3.095,3.25c0.647,0,1.295-0.132,1.715-0.336L313.098,179.084z"/>
	</g>
	<g>
		<path d="M430.682,196.637c0.299,0.18,0.982,0.479,1.727,0.479c1.344,0,1.775-0.852,1.762-1.511&#10;&#9;&#9;&#9;c-0.012-1.092-0.994-1.56-2.014-1.56h-0.588v-0.791h0.588c0.768,0,1.738-0.396,1.738-1.319c0-0.624-0.395-1.176-1.367-1.176&#10;&#9;&#9;&#9;c-0.623,0-1.223,0.276-1.559,0.516l-0.287-0.768c0.418-0.3,1.211-0.6,2.051-0.6c1.535,0,2.23,0.911,2.23,1.859&#10;&#9;&#9;&#9;c0,0.815-0.492,1.499-1.439,1.847v0.024c0.959,0.18,1.738,0.899,1.738,1.99c0,1.247-0.982,2.339-2.842,2.339&#10;&#9;&#9;&#9;c-0.875,0-1.643-0.275-2.027-0.527L430.682,196.637z"/>
		<path d="M442.594,197.584c-0.371,0.192-1.15,0.384-2.135,0.384c-2.279,0-3.982-1.439-3.982-4.102c0-2.543,1.715-4.246,4.223-4.246&#10;&#9;&#9;&#9;c0.994,0,1.643,0.217,1.918,0.36l-0.264,0.852c-0.383-0.192-0.947-0.336-1.619-0.336c-1.895,0-3.154,1.211-3.154,3.334&#10;&#9;&#9;&#9;c0,1.991,1.141,3.25,3.096,3.25c0.646,0,1.295-0.132,1.715-0.336L442.594,197.584z"/>
		<path d="M443.905,189.861c0.648-0.096,1.404-0.168,2.23-0.168c1.5,0,2.568,0.336,3.275,0.996c0.73,0.659,1.15,1.606,1.15,2.914&#10;&#9;&#9;&#9;c0,1.319-0.42,2.398-1.162,3.142c-0.768,0.756-2.016,1.164-3.586,1.164c-0.756,0-1.367-0.024-1.908-0.097V189.861z&#10;&#9;&#9;&#9; M444.961,197.021c0.264,0.048,0.646,0.048,1.055,0.048c2.23,0.012,3.441-1.247,3.441-3.43c0.014-1.932-1.066-3.118-3.273-3.118&#10;&#9;&#9;&#9;c-0.539,0-0.947,0.047-1.223,0.107V197.021z"/>
	</g>
	<g>
		<path d="M558.014,233.104c0.301,0.18,0.984,0.479,1.727,0.479c1.344,0,1.775-0.852,1.764-1.511&#10;&#9;&#9;&#9;c-0.012-1.092-0.996-1.56-2.016-1.56h-0.588v-0.791h0.588c0.768,0,1.74-0.396,1.74-1.319c0-0.624-0.396-1.176-1.367-1.176&#10;&#9;&#9;&#9;c-0.625,0-1.225,0.276-1.561,0.516l-0.287-0.768c0.42-0.3,1.211-0.6,2.051-0.6c1.535,0,2.23,0.911,2.23,1.859&#10;&#9;&#9;&#9;c0,0.815-0.492,1.499-1.439,1.847v0.024c0.961,0.18,1.74,0.899,1.74,1.99c0,1.247-0.984,2.339-2.844,2.339&#10;&#9;&#9;&#9;c-0.875,0-1.643-0.275-2.025-0.527L558.014,233.104z"/>
		<path d="M564.29,226.339c0.457-0.107,1.188-0.18,1.908-0.18c1.043,0,1.715,0.18,2.207,0.588c0.42,0.312,0.684,0.791,0.684,1.427&#10;&#9;&#9;&#9;c0,0.792-0.529,1.476-1.367,1.775v0.036c0.768,0.18,1.666,0.815,1.666,2.015c0,0.695-0.275,1.224-0.695,1.619&#10;&#9;&#9;&#9;c-0.551,0.516-1.463,0.756-2.783,0.756c-0.719,0-1.27-0.048-1.619-0.097V226.339z M565.334,229.65h0.947&#10;&#9;&#9;&#9;c1.092,0,1.738-0.588,1.738-1.367c0-0.936-0.707-1.319-1.764-1.319c-0.479,0-0.754,0.036-0.922,0.071V229.65z M565.334,233.511&#10;&#9;&#9;&#9;c0.215,0.036,0.504,0.049,0.875,0.049c1.08,0,2.074-0.396,2.074-1.571c0-1.092-0.947-1.56-2.086-1.56h-0.863V233.511z"/>
		<path d="M576.432,234.051c-0.373,0.192-1.152,0.384-2.137,0.384c-2.277,0-3.98-1.439-3.98-4.102c0-2.543,1.715-4.246,4.221-4.246&#10;&#9;&#9;&#9;c0.996,0,1.645,0.217,1.92,0.36l-0.264,0.852c-0.385-0.192-0.947-0.336-1.619-0.336c-1.895,0-3.154,1.211-3.154,3.334&#10;&#9;&#9;&#9;c0,1.991,1.139,3.25,3.094,3.25c0.648,0,1.295-0.132,1.715-0.336L576.432,234.051z"/>
	</g>
	<g>
		<path d="M528.684,197.104c0.301,0.18,0.984,0.479,1.727,0.479c1.344,0,1.775-0.852,1.764-1.511&#10;&#9;&#9;&#9;c-0.012-1.092-0.996-1.56-2.016-1.56h-0.588v-0.791h0.588c0.768,0,1.74-0.396,1.74-1.319c0-0.624-0.396-1.176-1.367-1.176&#10;&#9;&#9;&#9;c-0.625,0-1.225,0.276-1.561,0.516l-0.287-0.768c0.42-0.3,1.211-0.6,2.051-0.6c1.535,0,2.23,0.911,2.23,1.859&#10;&#9;&#9;&#9;c0,0.815-0.492,1.499-1.439,1.847v0.024c0.961,0.18,1.74,0.899,1.74,1.99c0,1.247-0.984,2.339-2.844,2.339&#10;&#9;&#9;&#9;c-0.875,0-1.643-0.275-2.025-0.527L528.684,197.104z"/>
		<path d="M536.268,195.76l-0.84,2.543h-1.08l2.746-8.083h1.26l2.76,8.083h-1.117l-0.863-2.543H536.268z M538.918,194.945&#10;&#9;&#9;&#9;l-0.805-2.326c-0.168-0.528-0.287-1.008-0.406-1.476h-0.037c-0.107,0.468-0.24,0.972-0.395,1.463l-0.793,2.339H538.918z"/>
	</g>
	<g>
		<path d="M616.35,233.104c0.299,0.18,0.982,0.479,1.727,0.479c1.344,0,1.775-0.852,1.762-1.511c-0.012-1.092-0.994-1.56-2.014-1.56&#10;&#9;&#9;&#9;h-0.588v-0.791h0.588c0.768,0,1.738-0.396,1.738-1.319c0-0.624-0.395-1.176-1.367-1.176c-0.623,0-1.223,0.276-1.559,0.516&#10;&#9;&#9;&#9;l-0.287-0.768c0.418-0.3,1.211-0.6,2.051-0.6c1.535,0,2.23,0.911,2.23,1.859c0,0.815-0.492,1.499-1.439,1.847v0.024&#10;&#9;&#9;&#9;c0.959,0.18,1.738,0.899,1.738,1.99c0,1.247-0.982,2.339-2.842,2.339c-0.875,0-1.643-0.275-2.027-0.527L616.35,233.104z"/>
		<path d="M622.614,226.328c0.646-0.096,1.402-0.168,2.23-0.168c1.5,0,2.566,0.336,3.273,0.996c0.732,0.659,1.152,1.606,1.152,2.914&#10;&#9;&#9;&#9;c0,1.319-0.42,2.398-1.164,3.142c-0.768,0.756-2.014,1.164-3.586,1.164c-0.756,0-1.367-0.024-1.906-0.097V226.328z&#10;&#9;&#9;&#9; M623.668,233.488c0.264,0.048,0.648,0.048,1.057,0.048c2.23,0.012,3.441-1.247,3.441-3.43c0.012-1.932-1.068-3.118-3.273-3.118&#10;&#9;&#9;&#9;c-0.541,0-0.949,0.047-1.225,0.107V233.488z"/>
	</g>
	<g>
		<path d="M246.67,104.635c0.639-0.122,1.475-0.213,2.538-0.213c1.307,0,2.265,0.304,2.873,0.851&#10;&#9;&#9;&#9;c0.563,0.486,0.912,1.231,0.912,2.143c0,0.927-0.273,1.656-0.805,2.188c-0.699,0.744-1.839,1.125-3.131,1.125&#10;&#9;&#9;&#9;c-0.395,0-0.76-0.016-1.064-0.092v4.104h-1.322V104.635z M247.993,109.559c0.289,0.076,0.669,0.106,1.094,0.106&#10;&#9;&#9;&#9;c1.611,0,2.569-0.79,2.569-2.173c0-1.368-0.958-2.021-2.417-2.021c-0.578,0-1.019,0.061-1.247,0.106V109.559z"/>
		<path d="M257.323,114.909c-1.976,0-3.526-1.459-3.526-3.784c0-2.462,1.626-3.906,3.647-3.906c2.112,0,3.541,1.535,3.541,3.769&#10;&#9;&#9;&#9;c0,2.736-1.9,3.921-3.647,3.921H257.323z M257.369,113.906c1.277,0,2.234-1.201,2.234-2.872c0-1.247-0.624-2.812-2.204-2.812&#10;&#9;&#9;&#9;c-1.565,0-2.249,1.459-2.249,2.858c0,1.61,0.912,2.826,2.204,2.826H257.369z"/>
		<path d="M262.671,103.951h1.337v10.791h-1.337V103.951z"/>
		<path d="M266.713,107.386l1.596,4.346c0.183,0.486,0.365,1.064,0.486,1.506h0.03c0.137-0.441,0.289-1.004,0.471-1.535l1.459-4.316&#10;&#9;&#9;&#9;h1.414l-2.006,5.243c-0.958,2.522-1.611,3.814-2.523,4.62c-0.669,0.563-1.307,0.79-1.642,0.852l-0.334-1.125&#10;&#9;&#9;&#9;c0.334-0.092,0.775-0.305,1.17-0.654c0.365-0.288,0.806-0.805,1.125-1.488c0.061-0.137,0.106-0.229,0.106-0.32&#10;&#9;&#9;&#9;c0-0.075-0.03-0.182-0.106-0.334l-2.705-6.793H266.713z"/>
		<path d="M273.384,109.787c0-0.941-0.015-1.702-0.061-2.4h1.201l0.076,1.261h0.03c0.532-0.912,1.414-1.429,2.599-1.429&#10;&#9;&#9;&#9;c1.793,0,3.131,1.504,3.131,3.739c0,2.645-1.626,3.951-3.344,3.951c-0.988,0-1.824-0.425-2.265-1.155h-0.03v3.998h-1.337V109.787z&#10;&#9;&#9;&#9; M274.721,111.748c0,0.183,0.015,0.38,0.061,0.547c0.228,0.928,1.048,1.566,1.991,1.566c1.414,0,2.234-1.156,2.234-2.843&#10;&#9;&#9;&#9;c0-1.474-0.76-2.735-2.173-2.735c-0.912,0-1.778,0.638-2.036,1.641c-0.03,0.184-0.076,0.381-0.076,0.548V111.748z"/>
		<path d="M282.045,109.681c0-0.867-0.015-1.611-0.061-2.295h1.17l0.061,1.443h0.045c0.334-0.988,1.155-1.611,2.052-1.611&#10;&#9;&#9;&#9;c0.137,0,0.243,0.015,0.365,0.045v1.247c-0.152-0.015-0.289-0.031-0.471-0.031c-0.942,0-1.611,0.714-1.793,1.702&#10;&#9;&#9;&#9;c-0.03,0.198-0.045,0.411-0.045,0.639v3.921h-1.337L282.045,109.681z"/>
		<path d="M289.902,114.909c-1.976,0-3.526-1.459-3.526-3.784c0-2.462,1.626-3.906,3.647-3.906c2.113,0,3.541,1.535,3.541,3.769&#10;&#9;&#9;&#9;c0,2.736-1.899,3.921-3.647,3.921H289.902z M289.947,113.906c1.277,0,2.234-1.201,2.234-2.872c0-1.247-0.623-2.812-2.204-2.812&#10;&#9;&#9;&#9;c-1.565,0-2.249,1.459-2.249,2.858c0,1.61,0.912,2.826,2.204,2.826H289.947z"/>
		<path d="M296.861,105.623v1.763h1.915v1.018h-1.915v3.966c0,0.912,0.258,1.429,1.003,1.429c0.364,0,0.577-0.03,0.775-0.091&#10;&#9;&#9;&#9;l0.061,1.018c-0.259,0.092-0.669,0.183-1.186,0.183c-0.623,0-1.125-0.212-1.444-0.562c-0.364-0.411-0.517-1.064-0.517-1.931&#10;&#9;&#9;&#9;v-4.012h-1.14v-1.018h1.14v-1.353L296.861,105.623z"/>
		<path d="M300.948,111.292c0.03,1.808,1.17,2.553,2.508,2.553c0.957,0,1.55-0.168,2.036-0.365l0.243,0.942&#10;&#9;&#9;&#9;c-0.471,0.213-1.291,0.472-2.462,0.472c-2.249,0-3.617-1.505-3.617-3.709c0-2.234,1.322-3.981,3.466-3.981&#10;&#9;&#9;&#9;c2.4,0,3.024,2.112,3.024,3.465c0,0.274-0.016,0.486-0.046,0.639L300.948,111.292z M304.854,110.334&#10;&#9;&#9;&#9;c0.015-0.836-0.35-2.173-1.839-2.173c-1.368,0-1.945,1.247-2.052,2.173H304.854z"/>
		<path d="M308.439,106.033c-0.502,0-0.836-0.395-0.836-0.866s0.35-0.851,0.866-0.851s0.851,0.38,0.851,0.851&#10;&#9;&#9;&#9;s-0.334,0.866-0.866,0.866H308.439z M307.8,114.742v-7.355h1.338v7.355H307.8z"/>
		<path d="M311.356,109.376c0-0.774-0.016-1.383-0.061-1.99h1.186l0.076,1.2h0.03c0.364-0.684,1.216-1.368,2.432-1.368&#10;&#9;&#9;&#9;c1.018,0,2.599,0.608,2.599,3.13v4.393h-1.338v-4.24c0-1.186-0.44-2.188-1.702-2.188c-0.866,0-1.55,0.623-1.793,1.368&#10;&#9;&#9;&#9;c-0.061,0.167-0.091,0.41-0.091,0.623v4.438h-1.338V109.376z"/>
	</g>
	<g>
		<g>
			<line fill="none" stroke="#000000" x1="281.556" y1="72.05" x2="281.556" y2="82.807"/>
			<path d="M281.556,81.787l3.603-2.19l0.082,0.123l-2.334,5.875c-0.45,2.047-0.9,4.094-1.351,6.141&#10;&#9;&#9;&#9;&#9;c-0.45-2.047-0.9-4.094-1.352-6.141l-2.333-5.875l0.062-0.123L281.556,81.787z"/>
		</g>
	</g>
	<g>
		<path d="M563.784,55.523c0.301,0.18,0.984,0.479,1.728,0.479c1.343,0,1.774-0.852,1.763-1.511&#10;&#9;&#9;&#9;c-0.012-1.091-0.995-1.559-2.015-1.559h-0.587v-0.792h0.587c0.768,0,1.739-0.396,1.739-1.319c0-0.624-0.396-1.175-1.367-1.175&#10;&#9;&#9;&#9;c-0.624,0-1.224,0.276-1.559,0.516l-0.289-0.768c0.42-0.3,1.212-0.6,2.051-0.6c1.535,0,2.231,0.912,2.231,1.859&#10;&#9;&#9;&#9;c0,0.816-0.491,1.5-1.439,1.847v0.024c0.96,0.18,1.739,0.899,1.739,1.991c0,1.247-0.983,2.338-2.842,2.338&#10;&#9;&#9;&#9;c-0.876,0-1.644-0.276-2.027-0.528L563.784,55.523z"/>
		<path d="M571.343,48.423c-0.276,1.007-0.792,2.303-1.115,2.854l-0.672,0.072c0.252-0.708,0.575-1.943,0.708-2.807L571.343,48.423z&#10;&#9;&#9;&#9;"/>
	</g>
	<g>
		<g>
			<path d="M516.901,54.338c-0.14,0.19-0.28,0.376-0.42,0.556c-0.18-0.084-0.359-0.172-0.539-0.263&#10;&#9;&#9;&#9;&#9;c0.458-0.537,0.915-1.13,1.373-1.778c0.21,0.071,0.419,0.139,0.629,0.203c0.46,0.961,0.92,1.939,1.38,2.938&#10;&#9;&#9;&#9;&#9;c-0.186-0.057-0.372-0.117-0.558-0.179c-0.144-0.313-0.288-0.625-0.432-0.935C517.857,54.719,517.378,54.539,516.901,54.338z&#10;&#9;&#9;&#9;&#9; M518.226,54.592c-0.134-0.283-0.268-0.565-0.401-0.845c-0.084-0.188-0.145-0.354-0.204-0.515&#10;&#9;&#9;&#9;&#9;c-0.006-0.002-0.013-0.004-0.019-0.006c-0.054,0.123-0.119,0.252-0.197,0.371c-0.132,0.186-0.265,0.367-0.396,0.544&#10;&#9;&#9;&#9;&#9;C517.415,54.307,517.82,54.457,518.226,54.592z"/>
			<path d="M520.573,55.494c-0.14,0.25-0.28,0.495-0.42,0.735c-0.18-0.047-0.359-0.097-0.539-0.149&#10;&#9;&#9;&#9;&#9;c0.458-0.732,0.915-1.517,1.373-2.354c0.21,0.03,0.419,0.056,0.629,0.079c0.46,0.969,0.92,1.959,1.38,2.973&#10;&#9;&#9;&#9;&#9;c-0.186-0.024-0.372-0.05-0.558-0.078c-0.144-0.317-0.288-0.633-0.432-0.946C521.529,55.684,521.05,55.598,520.573,55.494z&#10;&#9;&#9;&#9;&#9; M521.898,55.458c-0.134-0.286-0.268-0.569-0.401-0.852c-0.084-0.191-0.145-0.362-0.204-0.528c-0.006,0-0.013-0.001-0.019-0.002&#10;&#9;&#9;&#9;&#9;c-0.054,0.15-0.119,0.311-0.197,0.463c-0.132,0.241-0.265,0.477-0.396,0.708C521.086,55.329,521.492,55.399,521.898,55.458z"/>
			<path d="M524.245,55.972c-0.14,0.304-0.28,0.603-0.42,0.897c-0.18-0.017-0.359-0.036-0.539-0.056&#10;&#9;&#9;&#9;&#9;c0.458-0.91,0.915-1.869,1.373-2.876c0.21-0.004,0.419-0.011,0.629-0.02c0.46,0.996,0.92,2.016,1.38,3.063&#10;&#9;&#9;&#9;&#9;c-0.186,0.002-0.372,0.002-0.558,0.001c-0.144-0.328-0.288-0.652-0.432-0.975C525.201,56.007,524.722,55.997,524.245,55.972z&#10;&#9;&#9;&#9;&#9; M525.57,55.697c-0.134-0.293-0.268-0.585-0.401-0.874c-0.084-0.198-0.145-0.375-0.204-0.549c-0.006,0-0.013,0-0.019,0&#10;&#9;&#9;&#9;&#9;c-0.054,0.176-0.119,0.365-0.197,0.547c-0.132,0.29-0.265,0.575-0.396,0.856C524.758,55.693,525.164,55.7,525.57,55.697z"/>
			<path d="M527.917,55.917c-0.14,0.352-0.28,0.699-0.42,1.042c-0.18,0.007-0.359,0.012-0.539,0.016&#10;&#9;&#9;&#9;&#9;c0.458-1.069,0.915-2.185,1.373-3.345c0.21-0.029,0.419-0.061,0.629-0.094c0.46,1.04,0.92,2.108,1.38,3.206&#10;&#9;&#9;&#9;&#9;c-0.186,0.021-0.372,0.04-0.558,0.059c-0.144-0.343-0.288-0.683-0.432-1.02C528.873,55.835,528.394,55.881,527.917,55.917z&#10;&#9;&#9;&#9;&#9; M529.242,55.454c-0.134-0.306-0.268-0.61-0.401-0.912c-0.084-0.207-0.145-0.396-0.204-0.578c-0.006,0-0.013,0.001-0.019,0.002&#10;&#9;&#9;&#9;&#9;c-0.054,0.199-0.119,0.414-0.197,0.623c-0.132,0.334-0.265,0.664-0.396,0.99C528.43,55.544,528.835,55.502,529.242,55.454z"/>
			<path d="M531.588,55.471c-0.14,0.395-0.28,0.785-0.42,1.171c-0.18,0.023-0.359,0.045-0.539,0.066&#10;&#9;&#9;&#9;&#9;c0.458-1.21,0.915-2.464,1.373-3.759c0.21-0.046,0.419-0.094,0.629-0.143c0.46,1.103,0.92,2.237,1.38,3.404&#10;&#9;&#9;&#9;&#9;c-0.186,0.032-0.372,0.063-0.558,0.094c-0.144-0.364-0.288-0.724-0.432-1.082C532.544,55.311,532.066,55.394,531.588,55.471z&#10;&#9;&#9;&#9;&#9; M532.914,54.874c-0.134-0.325-0.268-0.646-0.401-0.966c-0.084-0.219-0.145-0.42-0.204-0.616&#10;&#9;&#9;&#9;&#9;c-0.006,0.001-0.013,0.002-0.019,0.004c-0.054,0.22-0.119,0.458-0.197,0.692c-0.132,0.373-0.265,0.741-0.396,1.107&#10;&#9;&#9;&#9;&#9;C532.102,55.025,532.507,54.952,532.914,54.874z"/>
			<path d="M535.26,54.781c-0.14,0.431-0.28,0.859-0.42,1.283c-0.18,0.033-0.359,0.064-0.539,0.096&#10;&#9;&#9;&#9;&#9;c0.458-1.334,0.915-2.708,1.373-4.119c0.21-0.056,0.419-0.112,0.629-0.168c0.46,1.183,0.92,2.402,1.38,3.656&#10;&#9;&#9;&#9;&#9;c-0.186,0.036-0.372,0.072-0.558,0.107c-0.144-0.39-0.288-0.777-0.432-1.16C536.216,54.579,535.738,54.681,535.26,54.781z&#10;&#9;&#9;&#9;&#9; M536.585,54.101c-0.134-0.348-0.268-0.693-0.401-1.036c-0.084-0.234-0.145-0.451-0.204-0.661&#10;&#9;&#9;&#9;&#9;c-0.006,0.002-0.013,0.003-0.019,0.005c-0.054,0.239-0.119,0.498-0.197,0.753c-0.132,0.406-0.265,0.809-0.396,1.208&#10;&#9;&#9;&#9;&#9;C535.774,54.282,536.179,54.192,536.585,54.101z"/>
			<path d="M538.932,53.989c-0.14,0.463-0.28,0.923-0.42,1.38c-0.18,0.035-0.359,0.069-0.539,0.104&#10;&#9;&#9;&#9;&#9;c0.458-1.44,0.915-2.916,1.373-4.426c0.21-0.057,0.419-0.113,0.629-0.168c0.46,1.282,0.92,2.603,1.38,3.963&#10;&#9;&#9;&#9;&#9;c-0.186,0.032-0.372,0.065-0.558,0.099c-0.144-0.422-0.288-0.841-0.432-1.256C539.888,53.784,539.41,53.886,538.932,53.989z&#10;&#9;&#9;&#9;&#9; M540.257,53.279c-0.134-0.377-0.268-0.751-0.401-1.122c-0.084-0.254-0.145-0.488-0.204-0.715&#10;&#9;&#9;&#9;&#9;c-0.006,0.002-0.013,0.003-0.019,0.005c-0.054,0.256-0.119,0.533-0.197,0.806c-0.132,0.435-0.265,0.866-0.396,1.295&#10;&#9;&#9;&#9;&#9;C539.446,53.458,539.851,53.368,540.257,53.279z"/>
			<path d="M542.604,53.241c-0.14,0.49-0.28,0.976-0.42,1.459c-0.18,0.029-0.359,0.06-0.539,0.091&#10;&#9;&#9;&#9;&#9;c0.458-1.527,0.915-3.087,1.373-4.678c0.21-0.049,0.419-0.097,0.629-0.144c0.46,1.398,0.92,2.839,1.38,4.323&#10;&#9;&#9;&#9;&#9;c-0.186,0.022-0.372,0.045-0.558,0.068c-0.144-0.46-0.288-0.917-0.432-1.369C543.56,53.069,543.082,53.153,542.604,53.241z&#10;&#9;&#9;&#9;&#9; M543.929,52.553c-0.134-0.411-0.268-0.819-0.401-1.223c-0.084-0.277-0.145-0.53-0.204-0.776&#10;&#9;&#9;&#9;&#9;c-0.006,0.001-0.013,0.003-0.019,0.004c-0.054,0.271-0.119,0.563-0.197,0.851c-0.132,0.458-0.265,0.913-0.396,1.366&#10;&#9;&#9;&#9;&#9;C543.118,52.697,543.523,52.623,543.929,52.553z"/>
			<path d="M546.276,52.681c-0.14,0.51-0.28,1.017-0.42,1.522c-0.18,0.018-0.359,0.037-0.539,0.057&#10;&#9;&#9;&#9;&#9;c0.458-1.597,0.915-3.223,1.373-4.877c0.21-0.033,0.419-0.064,0.629-0.094c0.46,1.534,0.92,3.112,1.38,4.738&#10;&#9;&#9;&#9;&#9;c-0.186,0.004-0.372,0.01-0.558,0.017c-0.144-0.504-0.288-1.004-0.432-1.499C547.232,52.58,546.753,52.626,546.276,52.681z&#10;&#9;&#9;&#9;&#9; M547.601,52.066c-0.134-0.451-0.268-0.897-0.401-1.34c-0.084-0.303-0.145-0.578-0.204-0.846&#10;&#9;&#9;&#9;&#9;c-0.006,0.001-0.013,0.002-0.019,0.003c-0.054,0.284-0.119,0.589-0.197,0.889c-0.132,0.476-0.265,0.949-0.396,1.42&#10;&#9;&#9;&#9;&#9;C546.79,52.144,547.195,52.102,547.601,52.066z"/>
			<path d="M549.948,52.452c-0.14,0.525-0.28,1.048-0.42,1.568c-0.18-0.001-0.359,0-0.539,0.001&#10;&#9;&#9;&#9;&#9;c0.458-1.648,0.915-3.322,1.373-5.021c0.21-0.009,0.419-0.016,0.629-0.02c0.46,1.687,0.92,3.422,1.38,5.207&#10;&#9;&#9;&#9;&#9;c-0.186-0.021-0.372-0.041-0.558-0.058c-0.144-0.554-0.288-1.103-0.432-1.646C550.904,52.46,550.425,52.45,549.948,52.452z&#10;&#9;&#9;&#9;&#9; M551.273,51.963c-0.134-0.495-0.268-0.986-0.401-1.473c-0.084-0.332-0.145-0.632-0.204-0.923c-0.006,0-0.013,0-0.019,0&#10;&#9;&#9;&#9;&#9;c-0.054,0.294-0.119,0.611-0.197,0.918c-0.132,0.489-0.265,0.975-0.396,1.46C550.461,51.943,550.867,51.948,551.273,51.963z"/>
			<path d="M553.62,52.7c-0.14,0.535-0.28,1.068-0.42,1.599c-0.18-0.027-0.359-0.052-0.539-0.075&#10;&#9;&#9;&#9;&#9;c0.458-1.682,0.915-3.386,1.373-5.112c0.21,0.023,0.419,0.05,0.629,0.079c0.46,1.857,0.92,3.767,1.38,5.73&#10;&#9;&#9;&#9;&#9;c-0.186-0.054-0.372-0.105-0.558-0.154c-0.144-0.608-0.288-1.212-0.432-1.81C554.576,52.854,554.097,52.77,553.62,52.7z&#10;&#9;&#9;&#9;&#9; M554.945,52.389c-0.134-0.545-0.268-1.085-0.401-1.622c-0.084-0.364-0.145-0.69-0.204-1.008&#10;&#9;&#9;&#9;&#9;c-0.006-0.001-0.013-0.001-0.019-0.002c-0.054,0.302-0.119,0.627-0.197,0.94c-0.132,0.497-0.265,0.991-0.396,1.484&#10;&#9;&#9;&#9;&#9;C554.133,52.239,554.539,52.308,554.945,52.389z"/>
			<path d="M557.292,53.568c-0.14,0.539-0.28,1.077-0.42,1.612c-0.18-0.06-0.359-0.118-0.539-0.173&#10;&#9;&#9;&#9;&#9;c0.458-1.697,0.915-3.414,1.373-5.148c0.21,0.064,0.419,0.131,0.629,0.203c0.46,2.047,0.92,4.149,1.38,6.308&#10;&#9;&#9;&#9;&#9;c-0.186-0.094-0.372-0.185-0.558-0.272c-0.144-0.669-0.288-1.333-0.432-1.991C558.248,53.907,557.769,53.728,557.292,53.568z&#10;&#9;&#9;&#9;&#9; M558.617,53.488c-0.134-0.6-0.268-1.195-0.401-1.786c-0.084-0.4-0.145-0.756-0.204-1.102c-0.006-0.002-0.013-0.004-0.019-0.006&#10;&#9;&#9;&#9;&#9;c-0.054,0.309-0.119,0.638-0.197,0.955c-0.132,0.499-0.265,0.996-0.396,1.492C557.805,53.175,558.21,53.324,558.617,53.488z"/>
		</g>
	</g>
</g>
<g>
</g>
<g>
</g>
<g>
</g>
<g>
</g>
<g>
</g>
<g>
</g>
</svg>