<?xml version="1.0" encoding="UTF-8" standalone="no"?>
<svg
   xmlns:dc="http://purl.org/dc/elements/1.1/"
   xmlns:cc="http://creativecommons.org/ns#"
   xmlns:rdf="http://www.w3.org/1999/02/22-rdf-syntax-ns#"
   xmlns:svg="http://www.w3.org/2000/svg"
   xmlns="http://www.w3.org/2000/svg"
   xmlns:sodipodi="http://sodipodi.sourceforge.net/DTD/sodipodi-0.dtd"
   xmlns:inkscape="http://www.inkscape.org/namespaces/inkscape"
   width="134.0582mm"
   height="131.49608mm"
   viewBox="0 0 134.0582 131.49608"
   version="1.1"
   id="svg2003"
   inkscape:version="1.0.2-2 (e86c870879, 2021-01-15)"
   sodipodi:docname="logo1.svg"
   inkscape:export-filename="C:\Users\Emma\Pictures\Inkscape\EVE\EmmaMod\eve-Logo1_sm.png"
   inkscape:export-xdpi="100.22961"
   inkscape:export-ydpi="100.22961">
  <defs
     id="defs1997" />
  <sodipodi:namedview
     id="base"
     pagecolor="#ffffff"
     bordercolor="#666666"
     borderopacity="1.0"
     inkscape:pageopacity="0.0"
     inkscape:pageshadow="2"
     inkscape:zoom="0.35"
     inkscape:cx="247.62402"
     inkscape:cy="402.78225"
     inkscape:document-units="mm"
     inkscape:current-layer="layer1"
     inkscape:document-rotation="0"
     showgrid="false"
     fit-margin-top="0"
     fit-margin-left="0"
     fit-margin-right="0"
     fit-margin-bottom="0"
     inkscape:window-width="1267"
     inkscape:window-height="967"
     inkscape:window-x="940"
     inkscape:window-y="1594"
     inkscape:window-maximized="0" />
  <metadata
     id="metadata2000">
    <rdf:RDF>
      <cc:Work
         rdf:about="">
        <dc:format>image/svg+xml</dc:format>
        <dc:type
           rdf:resource="http://purl.org/dc/dcmitype/StillImage" />
        <dc:title></dc:title>
      </cc:Work>
    </rdf:RDF>
  </metadata>
  <g
     inkscape:label="Layer 1"
     inkscape:groupmode="layer"
     id="layer1"
     transform="translate(-40.316145,200.30757)">
    <path
       d="m 97.76674,-160.38504 h 10.47679 v -2.90689 H 97.76674 Z"
       style="fill:#80b974;fill-opacity:1;fill-rule:nonzero;stroke:none;stroke-width:0.352778"
       id="path843-0-1" />
    <path
       d="m 107.5528,-166.51844 h 8.05885 v -2.90689 h -8.05885 z"
       style="fill:#a6be55;fill-opacity:1;fill-rule:nonzero;stroke:none;stroke-width:0.352778"
       id="path845-1-7" />
    <path
       d="m 110.34327,-154.25165 h 8.05921 v -2.90689 h -8.05921 z"
       style="fill:#a6be55;fill-opacity:1;fill-rule:nonzero;stroke:none;stroke-width:0.352778"
       id="path847-6-7" />
    <path
       d="m 117.3385,-108.73661 h -10.4768 v 2.90689 h 10.4768 z"
       style="fill:#80b974;fill-opacity:1;fill-rule:nonzero;stroke:none;stroke-width:0.352778"
       id="path849-4-4" />
    <path
       d="m 107.5528,-102.60287 h -8.05921 v 2.906892 h 8.05921 z"
       style="fill:#a6be55;fill-opacity:1;fill-rule:nonzero;stroke:none;stroke-width:0.352778"
       id="path851-1-3" />
    <path
       d="m 107.5528,-114.87001 h -8.05921 v 2.90689 h 8.05921 z"
       style="fill:#a6be55;fill-opacity:1;fill-rule:nonzero;stroke:none;stroke-width:0.352778"
       id="path853-1-6" />
    <g
       id="g863-1-8"
       transform="matrix(0.35277777,0,0,-0.35277777,78.12863,-195.10025)"
       style="fill:#549db2;fill-opacity:1">
      <path
         d="m 0,0 15.546,-36.688 3.794,1.607 -1.753,3.729 C -8.735,-43.726 -30.997,-63.281 -46.687,-87.5 c -15.69,-24.215 -24.804,-53.115 -24.803,-84.108 h 4.12 v 4.12 h -39.815 v -8.24 h 43.935 v 4.12 c 0.002,29.371 8.624,56.693 23.479,79.629 14.856,22.932 35.949,41.459 60.864,53.169 l 3.588,1.687 L 7.587,3.215 Z"
         style="fill:#549db2;fill-opacity:1;fill-rule:nonzero;stroke:none"
         id="path865-4-7" />
    </g>
    <g
       id="g867-9-4"
       transform="matrix(0.35277777,0,0,-0.35277777,63.08389,-163.9185)"
       style="fill:#60aa9e;fill-opacity:1">
      <path
         d="m 0,0 28.884,-22.417 5.053,6.51 L 5.052,6.51 Z"
         style="fill:#60aa9e;fill-opacity:1;fill-rule:nonzero;stroke:none"
         id="path869-8-9" />
    </g>
    <g
       id="g871-1-6"
       transform="matrix(0.35277777,0,0,-0.35277777,67.41868,-79.974607)"
       style="fill:#549db2;fill-opacity:1">
      <path
         d="m 0,0 28.174,32.536 -3.554,2.65 C 13.101,43.768 2.08,54.545 -6.387,66.641 l -0.017,0.025 -0.021,0.029 c -8.667,11.953 -15.253,25.891 -19.602,39.581 l -1.343,4.226 -39.954,-16.002 3.064,-7.649 35.839,14.353 -1.532,3.825 -3.927,-1.248 C -29.291,89.349 -22.377,74.67 -13.098,61.86 l 3.336,2.417 -3.375,-2.363 C -4.06,48.959 7.555,37.631 19.695,28.579 l 2.463,3.303 -3.115,2.697 L -6.229,5.394 Z"
         style="fill:#549db2;fill-opacity:1;fill-rule:nonzero;stroke:none"
         id="path873-8-3" />
    </g>
    <g
       id="g875-1-7"
       transform="matrix(0.35277777,0,0,-0.35277777,64.86623,-101.50199)"
       style="fill:#60aa9e;fill-opacity:1">
      <path
         d="M 0,0 28.884,22.417 23.832,28.927 -5.052,6.51 Z"
         style="fill:#60aa9e;fill-opacity:1;fill-rule:nonzero;stroke:none"
         id="path877-3-5" />
    </g>
    <g
       id="g879-7-7"
       transform="matrix(0.35277777,0,0,-0.35277777,147.03159,-79.450979)"
       style="fill:#549db2;fill-opacity:1">
      <path
         d="m 0,0 -21.492,33.553 -3.47,-2.222 2.355,-3.382 c 40.851,28.451 66.459,75.655 66.462,127.018 0,8.647 -0.726,17.41 -2.227,26.216 l -4.062,-0.692 0.693,-4.062 39.248,6.692 -1.385,8.124 -43.31,-7.385 0.692,-4.062 c 1.424,-8.347 2.111,-16.645 2.111,-24.831 C 35.619,106.369 11.359,61.644 -27.316,34.711 l -3.253,-2.265 23.631,-36.891 z"
         style="fill:#549db2;fill-opacity:1;fill-rule:nonzero;stroke:none"
         id="path881-3-5" />
    </g>
    <g
       id="g883-2-7"
       transform="matrix(0.35277777,0,0,-0.35277777,156.62133,-112.71799)"
       style="fill:#60aa9e;fill-opacity:1">
      <path
         d="M 0,0 -32.241,17.243 -36.128,9.976 -3.887,-7.267 Z"
         style="fill:#60aa9e;fill-opacity:1;fill-rule:nonzero;stroke:none"
         id="path885-9-4" />
    </g>
    <g
       id="g887-4-2"
       transform="matrix(0.35277777,0,0,-0.35277777,138.23797,-194.73883)"
       style="fill:#549db2;fill-opacity:1">
      <path
         d="m 0,0 -22.305,-36.809 3.95,-2.014 c 12.796,-6.524 25.473,-15.296 35.853,-25.796 l 0.025,-0.027 0.022,-0.02 c 10.552,-10.327 19.387,-22.959 25.976,-35.724 l 2.034,-3.939 36.696,22.49 -4.306,7.026 -32.917,-20.173 2.154,-3.513 3.66,1.89 c -6.95,13.455 -16.233,26.763 -27.532,37.831 l -2.882,-2.944 2.929,2.897 c -11.125,11.245 -24.48,20.46 -37.968,27.343 l -1.872,-3.671 3.523,-2.135 20.008,33.017 z"
         style="fill:#549db2;fill-opacity:1;fill-rule:nonzero;stroke:none"
         id="path889-4-0" />
    </g>
    <g
       id="g891-6-1"
       transform="matrix(0.35277777,0,0,-0.35277777,144.37299,-173.94685)"
       style="fill:#60aa9e;fill-opacity:1;stroke:none;stroke-opacity:1">
      <path
         d="m 0,0 -24.707,-26.954 6.075,-5.567 24.706,26.953 z"
         style="fill:#60aa9e;fill-opacity:1;fill-rule:nonzero;stroke:none;stroke-opacity:1"
         id="path893-5-6" />
    </g>
    <g
       id="g895-3-1"
       transform="matrix(0.35277777,0,0,-0.35277777,105.48061,-95.636882)"
       style="fill:#a6be55;fill-opacity:1">
      <path
         d="m 0,0 -5.338,-6.285 c -6.939,5.872 -11.795,13.121 -14.86,20.956 -3.048,7.852 -4.357,16.289 -4.357,24.744 0,8.816 1.412,17.649 3.788,25.932 h 8.61 c -1.102,-3.513 -2.031,-7.146 -2.72,-10.831 -0.5,-2.738 -0.896,-5.493 -1.137,-8.231 -0.207,-2.307 -0.31,-4.597 -0.31,-6.87 0,-6.836 0.965,-13.518 3.065,-19.665 0.224,-0.706 0.465,-1.395 0.74,-2.083 0.844,-2.135 1.826,-4.202 2.945,-6.165 C -7.129,7.25 -3.995,3.375 0,0"
         style="fill:#a6be55;fill-opacity:1;fill-rule:nonzero;stroke:none"
         id="path897-7-6" />
    </g>
    <g
       id="g899-5-2"
       transform="matrix(0.35277777,0,0,-0.35277777,120.27213,-159.04318)"
       style="fill:#a6be55;fill-opacity:1">
      <path
         d="m 0,0 c 0,-7.318 -1.377,-14.585 -3.616,-21.696 -0.258,-0.81 -0.533,-1.619 -0.809,-2.429 h -8.782 c 0.62,1.654 1.205,3.29 1.722,4.925 0.602,1.877 1.119,3.754 1.549,5.614 0.672,2.772 1.155,5.527 1.413,8.248 0.207,1.791 0.293,3.564 0.293,5.338 0,5.114 -0.792,10.125 -2.549,15.049 -0.741,2.067 -1.636,4.116 -2.755,6.148 -1.482,2.772 -3.323,5.51 -5.579,8.23 -0.052,0.069 -0.12,0.138 -0.172,0.207 -3.272,3.908 -7.129,7.404 -11.314,10.59 l 5.011,6.543 c 4.528,-3.461 8.851,-7.335 12.622,-11.847 4.598,-5.476 7.852,-11.227 9.952,-17.098 C -0.913,11.95 0,5.958 0,0"
         style="fill:#a6be55;fill-opacity:1;fill-rule:nonzero;stroke:none"
         id="path901-2-3" />
    </g>
    <g
       id="g903-7-8"
       transform="matrix(0.35277777,0,0,-0.35277777,100.63923,-150.5326)"
       style="fill:#80b974;fill-opacity:1">
      <path
         d="m 0,0 h -8.902 c -2.359,5.992 -4.133,12.294 -5.098,18.976 -0.24,1.687 -0.396,3.34 -0.481,4.976 -0.018,0.327 -0.035,0.654 -0.052,0.982 -0.017,0.654 -0.034,1.308 -0.034,1.962 0,0.948 0.017,1.895 0.068,2.824 0.345,6.561 1.895,12.777 4.426,18.614 2.875,6.647 6.991,12.794 12.019,18.459 0.705,0.792 1.412,1.567 2.117,2.325 0.104,0.103 0.19,0.207 0.293,0.31 1.344,1.447 2.704,2.841 4.064,4.218 1.068,1.103 2.152,2.205 3.203,3.307 l 5.734,-5.545 C 16.513,70.358 15.601,69.29 14.636,68.24 13.207,66.759 11.761,65.278 10.383,63.797 10.263,63.677 10.142,63.539 10.021,63.418 9.384,62.712 8.73,62.023 8.11,61.318 7.8,60.956 7.49,60.612 7.18,60.25 3.065,55.446 -0.224,50.384 -2.514,45.063 -3.771,42.17 -4.718,39.208 -5.373,36.161 c -0.55,-2.669 -0.878,-5.408 -0.93,-8.231 -0.033,-0.345 -0.033,-0.689 -0.033,-1.034 0,-2.204 0.171,-4.442 0.499,-6.75 C -4.821,13.069 -2.772,6.406 0,0"
         style="fill:#80b974;fill-opacity:1;fill-rule:nonzero;stroke:none"
         id="path905-9-8" />
    </g>
    <g
       id="g907-0-0"
       transform="matrix(0.35277777,0,0,-0.35277777,119.85289,-111.01164)"
       style="fill:#80b974;fill-opacity:1">
      <path
         d="m 0,0 c 0,-2.514 -0.12,-5.028 -0.379,-7.542 -0.74,-7.164 -2.634,-14.585 -5.733,-21.49 -1.447,-3.22 -3.152,-6.337 -5.149,-9.247 -0.052,-0.068 -0.086,-0.155 -0.155,-0.223 0,-0.018 0,-0.018 -0.017,-0.035 -1.946,-2.824 -4.15,-5.458 -6.629,-7.8 -0.035,-0.069 -0.052,-0.086 -0.086,-0.086 -0.362,-0.379 -0.724,-0.706 -1.085,-1.033 l -5.459,6.112 -0.035,0.035 c 0.363,0.327 0.724,0.654 1.068,1.016 l 0.035,0.034 c 0.706,0.655 1.412,1.378 2.049,2.118 3.22,3.599 5.872,7.87 7.938,12.467 1.584,3.53 2.824,7.249 3.701,10.986 0.638,2.668 1.085,5.355 1.361,7.99 0,0.086 0.017,0.155 0.017,0.24 0.207,2.153 0.328,4.306 0.328,6.458 0,7.318 -1.206,14.619 -3.324,21.765 h 8.558 C -1.102,14.705 0,7.421 0,0"
         style="fill:#80b974;fill-opacity:1;fill-rule:nonzero;stroke:none"
         id="path909-9-5" />
    </g>
    <g
       id="g911-0-5"
       transform="matrix(0.35277777,0,0,-0.35277777,111.80409,-188.69906)"
       style="fill:#6eb389;fill-opacity:1">
      <path
         d="m 0,0 c 0.018,-6.664 -1.309,-13.827 -4.528,-21.163 -2.273,-5.148 -5.458,-10.365 -9.764,-15.617 -0.843,-1.051 -1.756,-2.118 -2.72,-3.169 -1.05,-1.188 -2.17,-2.359 -3.358,-3.547 l -5.838,5.82 c 1.051,1.051 2.05,2.101 2.979,3.134 5.235,5.769 8.8,11.365 11.142,16.703 2.772,6.285 3.857,12.243 3.857,17.839 0,4.907 -0.844,9.54 -2.187,13.827 -0.293,-1.412 -0.62,-2.824 -0.981,-4.219 -4.374,-16.926 -14.31,-31.821 -27.689,-42.893 l -41.998,-34.696 -0.017,-0.018 c -24.658,-20.077 -40.396,-50.642 -40.396,-84.908 0,-25.192 8.489,-48.334 22.764,-66.844 14.275,-18.494 34.352,-32.287 57.46,-38.675 l -2.187,-7.938 c -24.882,6.87 -46.44,21.714 -61.8,41.584 -15.342,19.871 -24.486,44.822 -24.486,71.873 0,36.832 16.944,69.738 43.445,91.314 l -0.017,-0.035 41.98,34.697 c 12.139,10.022 21.059,23.47 24.967,38.605 1.447,5.579 2.257,11.348 2.36,17.202 l 0.086,4.03 h 6.595 l 1.188,-2.015 C -6.801,26.948 -4.528,22.333 -2.823,17.15 -1.119,11.95 0,6.182 0,0"
         style="fill:#6eb389;fill-opacity:1;fill-rule:nonzero;stroke:none"
         id="path913-9-8"
         sodipodi:nodetypes="ccccccccscccccsccccscccccccccc" />
    </g>
    <g
       id="g915-5-2"
       transform="matrix(0.35277777,0,0,-0.35277777,149.07178,-134.36818)"
       style="fill:#6eb389;fill-opacity:1">
      <path
         d="m 0,0 c 0,-13.224 -2.188,-25.949 -6.217,-37.831 -0.826,-2.462 -1.739,-4.907 -2.755,-7.3 -1.049,-2.549 -2.204,-5.046 -3.426,-7.508 -7.525,-14.998 -18.149,-28.188 -31.046,-38.674 l -41.963,-34.663 c -12.14,-10.038 -21.06,-23.486 -24.969,-38.622 -1.446,-5.579 -2.238,-11.348 -2.358,-17.185 l -0.086,-4.047 h -6.578 l -1.206,2.015 c -2.341,3.943 -4.614,8.575 -6.319,13.758 -1.705,5.183 -2.824,10.952 -2.824,17.151 0,6.663 1.309,13.809 4.546,21.145 3.22,7.352 8.334,14.86 15.824,22.35 0.62,0.62 1.257,1.24 1.859,1.86 0.345,0.344 0.69,0.706 1.034,1.051 l 0.035,0.034 c 0.688,0.706 1.343,1.412 1.945,2.118 h 0.104 l 10.314,-0.138 h 0.017 c -0.051,-0.069 -0.103,-0.155 -0.172,-0.224 0,-0.017 0,-0.017 -0.017,-0.034 -1.877,-2.618 -4.15,-5.2 -6.63,-7.8 -0.034,-0.069 -0.051,-0.087 -0.086,-0.087 -0.827,-0.861 -1.687,-1.739 -2.566,-2.617 -6.888,-6.871 -11.364,-13.534 -14.119,-19.819 -2.773,-6.303 -3.84,-12.243 -3.858,-17.839 0,-4.925 0.862,-9.557 2.187,-13.844 0.293,1.412 0.621,2.823 0.982,4.218 4.373,16.944 14.309,31.838 27.705,42.893 l 41.981,34.697 0.017,0.017 c 13.277,10.814 23.953,24.658 30.995,40.482 0.964,2.17 1.86,4.374 2.669,6.612 4.356,11.778 6.733,24.538 6.733,37.831 0,13.827 -2.566,27.034 -7.232,39.208 -0.862,2.239 -1.791,4.443 -2.791,6.612 -3.46,7.491 -7.748,14.534 -12.741,21.008 -14.275,18.493 -34.336,32.286 -57.461,38.674 l 2.187,7.938 c 18.562,-5.131 35.3,-14.688 48.954,-27.464 1.998,-1.877 3.943,-3.806 5.803,-5.821 2.479,-2.652 4.822,-5.424 7.043,-8.299 6.13,-7.938 11.261,-16.668 15.221,-26.036 C -3.307,31.735 0,16.238 0,0"
         style="fill:#6eb389;fill-opacity:1;fill-rule:nonzero;stroke:none"
         id="path917-3-4" />
    </g>
    <g
       id="g919-4-4"
       transform="matrix(0.35277777,0,0,-0.35277777,95.15618,-145.05314)"
       style="fill:#e68634;fill-opacity:1">
      <path
         d="M 0,0 V 7.137 H -44.476 V -65.538 H 0 v 7.247 h -35.778 v 25.969 h 29.091 v 7.025 H -35.778 V 0 Z"
         style="fill:#e68634;fill-opacity:1;fill-rule:nonzero;stroke:none"
         id="path921-5-4" />
    </g>
    <g
       id="g923-0-4"
       transform="matrix(0.35277777,0,0,-0.35277777,140.25646,-145.05314)"
       style="fill:#e68634;fill-opacity:1">
      <path
         d="M 0,0 V 7.137 H -44.475 V -65.538 H 0 v 7.247 h -35.778 v 25.969 h 29.091 v 7.025 H -35.778 V 0 Z"
         style="fill:#e68634;fill-opacity:1;fill-rule:nonzero;stroke:none"
         id="path925-4-6" />
    </g>
    <g
       id="g927-4-3"
       transform="matrix(0.35277777,0,0,-0.35277777,116.77331,-147.23409)">
      <path
         d="M 0,0 V -0.086 C 0,-1.395 -0.034,-2.669 -0.086,-3.96 v -0.018 c -0.259,-5.665 -1.085,-11.244 -2.273,-16.736 -1.447,-6.733 -3.41,-13.26 -5.7,-19.613 -0.688,-1.929 -1.412,-3.823 -2.152,-5.7 -1.24,-3.22 -2.566,-6.371 -3.892,-9.436 -1.136,-2.669 -2.29,-5.269 -3.426,-7.8 v -0.035 l -0.362,-0.774 c -1.102,-2.325 -2.135,-4.581 -3.134,-6.768 l -0.827,-1.825 -0.74,-1.636 -0.774,1.636 -0.862,1.791 c -1.05,2.221 -2.1,4.46 -3.186,6.629 l -0.378,0.741 0.017,0.017 c -1.377,2.824 -2.738,5.613 -4.098,8.472 v 0.017 c -0.086,0.206 -0.19,0.414 -0.293,0.62 -1.309,2.703 -2.583,5.459 -3.822,8.282 -2.756,6.2 -5.287,12.674 -7.336,19.596 -1.894,6.509 -3.392,13.448 -4.132,20.887 -0.018,0.172 -0.035,0.344 -0.052,0.516 h -0.017 v 0.017 0.018 c -0.224,2.032 -0.327,4.063 -0.327,6.026 v 1.774 h 8.609 l 0.052,-1.705 c 0.068,-1.515 0.172,-3.099 0.327,-4.7 0.017,-0.138 0.034,-0.259 0.052,-0.396 0.654,-6.458 1.928,-12.519 3.702,-18.391 v -0.017 c 0.396,-1.343 0.809,-2.686 1.257,-4.012 1.171,-3.564 2.497,-7.06 3.943,-10.504 0.413,-0.981 0.844,-1.963 1.274,-2.944 0.878,-1.981 1.774,-3.926 2.704,-5.872 1.033,-2.17 2.083,-4.322 3.133,-6.491 0.913,2.083 1.825,4.149 2.738,6.267 0.242,0.551 0.465,1.102 0.707,1.653 1.015,2.514 2.014,5.045 2.927,7.611 1.222,3.358 2.359,6.733 3.34,10.125 v 0.017 c 0.896,3.014 1.671,6.01 2.308,9.006 1.085,4.942 1.791,9.866 1.98,14.688 v 0.017 c 0.052,0.93 0.069,1.86 0.069,2.79 l -0.156,2.858 h 8.748 l 0.086,-1.67 z"
         style="fill:#e04929;fill-opacity:1;fill-rule:nonzero;stroke:none"
         id="path929-1-7" />
    </g>
  </g>
</svg>
