<?xml version="1.0" encoding="UTF-8" standalone="no"?>
<!-- Generator: Adobe Illustrator 25.0.1, SVG Export Plug-In . SVG Version: 6.00 Build 0)  -->

<svg
   version="1.0"
   id="katman_1"
   x="0px"
   y="0px"
   viewBox="0 0 700 250"
   xml:space="preserve"
   sodipodi:docname="Universitat Basel.svg"
   width="700"
   height="250"
   inkscape:version="1.3.2 (091e20e, 2023-11-25, custom)"
   xmlns:inkscape="http://www.inkscape.org/namespaces/inkscape"
   xmlns:sodipodi="http://sodipodi.sourceforge.net/DTD/sodipodi-0.dtd"
   xmlns="http://www.w3.org/2000/svg"
   xmlns:svg="http://www.w3.org/2000/svg"><defs
   id="defs5" /><sodipodi:namedview
   id="namedview5"
   pagecolor="#ffffff"
   bordercolor="#000000"
   borderopacity="0.25"
   inkscape:showpageshadow="2"
   inkscape:pageopacity="0.0"
   inkscape:pagecheckerboard="0"
   inkscape:deskcolor="#d1d1d1"
   inkscape:zoom="1.955"
   inkscape:cx="400"
   inkscape:cy="95.396419"
   inkscape:window-width="3440"
   inkscape:window-height="1369"
   inkscape:window-x="-8"
   inkscape:window-y="-8"
   inkscape:window-maximized="1"
   inkscape:current-layer="katman_1" />
<style
   type="text/css"
   id="style1">
	.st0{fill:none;}
</style>
<path
   class="st0"
   d=""
   id="path1" />
<g
   id="Ebene_1_1"
   transform="translate(-49.8,-175)">
	<g
   id="g4">
		<path
   d="M 502.5,335.3 H 494 v 55 h 8.5 z m -40.8,32.2 c 0.1,-1.1 0.3,-2.1 0.6,-3.2 0.4,-1.4 2.6,-6.6 8.1,-6.7 0.8,0 2.4,0.1 4.2,1.3 3.2,2 3.7,5.1 3.9,8.6 z m 25.7,4.7 c -0.1,-1.4 0.1,-6.6 -2,-11 -3.9,-7.8 -12.1,-8.5 -14.7,-8.5 -2.4,0 -8.9,0.6 -13.6,6.1 -4.3,5.1 -4.6,11.6 -4.6,13.6 0,8.8 4.6,13.5 7.5,15.5 2,1.4 6,3.4 12.1,3.4 4.7,0 8.2,-1.1 9.8,-1.7 1.9,-0.7 3.4,-1.6 4.1,-1.9 v -7.2 c -1.6,1.6 -2.2,2.1 -3.2,2.9 -3.6,2.7 -7,3 -8.9,3 -3,0 -6.4,-0.9 -8.6,-3.1 -2.7,-2.6 -3.5,-6.5 -3.7,-7.5 -0.2,-1.3 -0.2,-2.2 -0.3,-3.6 z m -63.3,8.9 -0.1,8.1 c 1.9,0.7 4.8,2 9.6,2.1 5.5,0 8.4,-1.7 10.3,-3.4 3.6,-3.2 3.9,-7.1 3.9,-8.9 0,-1.3 -0.3,-5 -3.4,-7.6 -2.1,-1.7 -5.1,-2.6 -7.6,-3.6 -2.2,-0.9 -3.4,-1.5 -4.2,-2.3 -0.9,-0.7 -1.4,-1.9 -1.4,-3.1 0,-0.6 0.1,-1.8 1.1,-2.9 1.6,-1.9 4.9,-2.1 5.4,-2.1 2.5,0 4.6,1 6.5,2.5 0.6,0.4 1.2,0.9 1.8,1.4 v -7.2 c -2.8,-0.9 -5,-1.5 -8,-1.5 -2,0 -3.9,0.3 -4.6,0.4 -2.3,0.5 -3.8,1.3 -4.6,1.8 -3.1,2.1 -5.1,5.8 -5.1,9.5 0,1.1 0.2,4.2 2.4,6.6 2.1,2.3 6.1,3.5 6.6,3.7 3,1 7.5,2.3 7.5,6.3 0,0.5 -0.1,1.6 -0.9,2.6 -0.8,1.1 -2.3,2.6 -5.4,2.6 -4.6,0 -7.9,-2.8 -8.9,-3.7 z m -15.8,3 c -3.6,1.2 -5,1.4 -7,1.4 -0.9,0.1 -3.1,-0.1 -5.4,-1.1 -5,-2.3 -5.6,-7.6 -5.8,-9.2 -0.3,-1.7 -0.3,-3.1 -0.3,-3.9 0,-1.2 0,-9.1 5.5,-12.6 2.1,-1.4 4.2,-1.6 5.1,-1.6 4.7,0 6.7,3.3 7.3,4.9 0.6,1.5 0.6,3.2 0.6,3.7 z m 8.4,-30.9 -4.6,2.7 c -6.3,-2.6 -8.4,-3.2 -12.1,-3.2 -7.1,0 -13.8,3.6 -16.9,10 -1.9,3.9 -2.1,8 -2.1,9.4 0,4.9 1.6,8.4 2.5,10 1.2,2.1 2.6,3.4 3.2,4.1 4.7,4.1 10.6,4 12.5,4.1 1.3,0.1 2.5,0.1 3.7,0.1 h 13.7 z M 350,345.9 c 1.1,-0.6 2.9,-1.4 5.8,-1.4 3.9,0 8.1,1.7 10,5.3 0.3,0.5 0.9,1.7 0.9,3.4 0,2.7 -2,4.9 -2.4,5.3 -1.9,2.1 -4.4,4.1 -4.4,6.9 0,0.9 0.2,1.6 0.6,2.4 0.3,0.4 0.9,1.2 1.8,2.1 2.3,2.1 5.3,3.9 5.3,7.4 0,2.1 -0.8,4 -2.2,5.5 -2.1,2.4 -5.2,3.1 -8.3,3.1 -3.5,0 -5.6,-0.8 -7,-1.2 z m -8.7,44.4 h 15.8 c 3.6,-0.1 5.1,-0.3 6.9,-0.7 6.5,-1.6 9.7,-5.9 10.8,-8.2 1.1,-2.3 1.1,-4.5 1.1,-5.4 0,-4.6 -2,-7.1 -3.3,-8.4 -0.6,-0.6 -1.3,-1.1 -1.9,-1.8 l -2.8,-2.6 c 2.9,-3.1 6,-6.4 6,-10.9 0,-1.4 -0.4,-4.1 -2.6,-7 -4,-5.1 -9.4,-5.4 -11.7,-5.4 -1,-0.1 -2.1,-0.1 -3.1,0 h -15.1 z"
   id="path2" />
		<path
   d="m 686,281.2 h -6.4 v -12.6 c 0,-0.9 0.1,-2.2 -1.1,-2.2 -0.3,0 -0.8,0.1 -1,0.3 -0.4,0.3 -0.4,0.9 -0.5,1.8 -0.5,3.3 -1.4,6.5 -3.6,9 -2.9,3.6 -6.1,3.6 -7.9,3.8 v 5.6 h 5.6 v 31 h 8.6 v -31 h 6.4 v -5.7 z m -33.8,30.4 c -3.6,1.2 -5,1.4 -7,1.4 -0.9,0.1 -3.1,-0.1 -5.4,-1.1 -5,-2.3 -5.6,-7.6 -5.9,-9.2 -0.3,-1.7 -0.3,-3.1 -0.3,-3.9 0,-1.2 0,-9.1 5.5,-12.6 2.1,-1.4 4.2,-1.6 5.1,-1.6 4.7,0 6.7,3.3 7.3,4.8 0.6,1.5 0.6,3.2 0.6,3.7 v 18.5 z m 8.4,-30.9 -4.6,2.7 c -6.3,-2.6 -8.4,-3.2 -12.1,-3.2 -7.1,0 -13.8,3.6 -16.9,10 -1.9,3.9 -2.1,8 -2.1,9.4 0,4.9 1.6,8.4 2.5,10 1.2,2.1 2.6,3.4 3.2,4.1 4.7,4.1 10.6,4 12.5,4.1 1.3,0.1 2.5,0.1 3.7,0.1 h 13.7 v -37.2 z m -19,-10.4 c 0,-2.8 -2.2,-5.1 -5.1,-5.1 -1.8,0 -3.4,0.9 -4.3,2.4 -0.7,1.1 -0.8,2.1 -0.8,2.6 0,2.8 2.3,5.2 5.1,5.2 0.9,0 3,-0.3 4.3,-2.4 0.7,-1.1 0.8,-2.2 0.8,-2.7 z m 15.9,0.2 c 0.1,-2.9 -2.1,-5.3 -4.9,-5.3 -1,-0.1 -3.6,0.4 -4.7,3.3 -0.1,0.4 -0.4,0.9 -0.4,1.9 -0.1,2.8 2.2,5.1 5,5.1 2.8,0 4.9,-2.3 5,-5 z m -34.6,10.7 h -6.4 v -12.6 c 0,-0.9 0.1,-2.2 -1.1,-2.2 -0.3,0 -0.8,0.1 -1,0.3 -0.4,0.3 -0.4,0.9 -0.5,1.8 -0.5,3.3 -1.4,6.5 -3.6,9 -2.9,3.6 -6.1,3.6 -7.9,3.8 v 5.6 h 5.6 v 31 h 8.6 v -31 H 623 Z M 586.7,272 c 0,2.8 2.3,5 5,5 2.8,0 5.1,-2.2 5.1,-5 0,-2.8 -2.2,-5.1 -5,-5.1 -2.8,0.1 -5.1,2.4 -5.1,5.1 z m 9.3,9.2 h -8.5 v 36.7 h 8.5 z m -38.7,27.4 -0.1,8.1 c 1.9,0.7 4.9,2 9.6,2.1 5.5,0 8.3,-1.7 10.3,-3.3 3.6,-3.2 3.9,-7.1 3.9,-8.9 0,-1.3 -0.3,-5 -3.4,-7.6 -2.1,-1.7 -5.1,-2.6 -7.6,-3.6 -2.2,-0.9 -3.3,-1.5 -4.2,-2.3 -0.9,-0.7 -1.4,-1.9 -1.4,-3.1 0,-0.6 0.1,-1.8 1.1,-2.9 1.6,-1.9 4.9,-2.1 5.4,-2.1 2.5,0 4.6,1 6.5,2.5 0.6,0.4 1.2,0.9 1.8,1.4 v -7.2 c -2.8,-0.9 -5,-1.5 -8,-1.5 -2,0 -3.9,0.3 -4.6,0.4 -2.3,0.5 -3.8,1.3 -4.6,1.8 -3.1,2.1 -5.1,5.8 -5.1,9.5 0,1.1 0.2,4.2 2.4,6.6 2.1,2.3 6.1,3.5 6.6,3.7 3,1 7.5,2.3 7.5,6.3 0,0.5 -0.1,1.6 -0.9,2.6 -0.8,1.1 -2.3,2.6 -5.4,2.6 -4.6,0 -7.8,-2.8 -8.8,-3.7 z m -28.2,-27.4 v 36.7 h 8.5 v -31.2 c 1.4,-0.6 2.9,-1.3 6.1,-1.1 -0.3,0.4 -0.8,1 -0.8,2.2 0,1.1 0.3,1.8 0.4,2.1 0.8,1.8 2.5,2.8 4.5,2.8 3.2,0 5.1,-2.4 5.1,-5.4 0,-1.7 -0.7,-2.8 -1,-3.3 -1.7,-2.6 -5,-2.6 -7.8,-2.8 z M 496.7,295 c 0.1,-1.1 0.3,-2.1 0.6,-3.2 0.4,-1.4 2.6,-6.6 8.1,-6.7 0.8,0 2.4,0.1 4.2,1.3 3.2,2 3.7,5.1 3.9,8.6 z m 25.6,4.7 c -0.1,-1.4 0.1,-6.6 -2,-11 -3.9,-7.8 -12.1,-8.5 -14.7,-8.5 -2.4,0 -8.9,0.6 -13.6,6.1 -4.3,5.1 -4.6,11.6 -4.6,13.6 0,8.8 4.6,13.5 7.5,15.5 2,1.4 6,3.4 12.1,3.4 4.7,0 8.2,-1.1 9.8,-1.7 1.9,-0.7 3.4,-1.6 4.1,-1.9 V 308 c -1.6,1.6 -2.2,2.1 -3.2,2.9 -3.6,2.7 -7,3 -8.8,3 -3,0 -6.4,-0.9 -8.6,-3.1 -2.7,-2.6 -3.5,-6.5 -3.7,-7.5 -0.2,-1.3 -0.2,-2.2 -0.3,-3.6 z m -36.1,-18.5 h -7.6 L 468,310.4 c -0.5,1.6 -0.6,1.9 -1.7,1.9 L 455.2,281.1 H 446 l 13.6,36.7 h 4.4 c 2.6,-0.1 4.7,-0.1 7,-1.6 3,-1.9 4.4,-5.6 5.6,-8.7 z M 432.1,272 c 0,2.8 2.3,5 5,5 2.8,0 5.1,-2.2 5.1,-5 0,-2.8 -2.2,-5.1 -5,-5.1 -2.8,0.1 -5.1,2.4 -5.1,5.1 z m 9.3,9.2 h -8.5 v 36.7 h 8.5 z m -49.2,0 v 36.7 h 8.5 v -30.3 c 1.4,-0.7 3,-1.6 6.4,-1.6 5.5,0 7.6,2.5 8.4,4.9 0.4,1.1 0.5,2.3 0.6,4.8 v 22.2 h 8.4 v -22.2 c -0.3,-4.1 -0.6,-7.8 -3.9,-10.6 -4.1,-3.5 -9.4,-3.9 -19.8,-3.9 z m -8.7,-13.7 h -8.7 v 28.7 c 0.1,4.4 0,6.7 -0.6,8.8 -0.6,2.2 -1.8,3.6 -2.4,4.4 -1.1,1.3 -2.9,2.9 -6.6,3.5 -1.5,0.3 -2.7,0.3 -3.3,0.3 -7.5,0 -10.6,-4 -11.7,-6.9 -0.9,-2.3 -1.1,-5 -1,-10.1 v -28.7 h -8.7 v 26.8 c -0.1,5.9 0.1,9.1 1,11.8 0.9,3.1 2.9,6.1 5.6,8.1 2.3,1.9 7.3,4.6 14.8,4.6 6.8,0 11.6,-2.4 13.9,-3.7 5.2,-3.4 6.7,-8.4 7.2,-10.7 0.5,-2.4 0.6,-4.9 0.5,-10.1 z"
   id="path3" />
		<path
   d="m 211.2,362.4 c -1.6,-1.6 -4.1,0.8 -2.5,2.4 l 11.8,11.6 2.5,-2.4 c 0.1,0 -10.4,-10.2 -11.8,-11.6 z m -19.1,14 -2.5,-2.4 11.8,-11.6 c 1.6,-1.6 4.1,0.8 2.5,2.4 -1.4,1.4 -11.8,11.6 -11.8,11.6 z M 142,294.7 c 1.6,1.6 -0.8,4 -2.5,2.4 l -11.8,-11.6 2.5,-2.4 c 0,0.1 10.4,10.3 11.8,11.6 z m -14.3,18.7 2.5,2.4 11.8,-11.6 c 1.6,-1.6 -0.8,-4 -2.5,-2.4 -1.4,1.4 -11.8,11.6 -11.8,11.6 z m 73.8,-76.8 c 1.6,1.6 4.1,-0.8 2.5,-2.4 l -11.8,-11.6 -2.5,2.4 c -0.1,0 10.4,10.2 11.8,11.6 z m 19.1,-14 2.5,2.4 -11.8,11.6 c -1.6,1.6 -4.1,-0.8 -2.5,-2.4 1.4,-1.4 11.8,-11.6 11.8,-11.6 z m 50.1,72.1 c -1.6,1.6 0.8,4 2.5,2.4 l 11.8,-11.6 -2.5,-2.4 c 0,0 -10.4,10.2 -11.8,11.6 z m 14.3,18.7 -2.5,2.4 -11.8,-11.6 c -1.6,-1.6 0.8,-4 2.5,-2.4 1.4,1.4 11.8,11.6 11.8,11.6 z m -113.1,-50 c 1.6,1.6 -0.8,4 -2.5,2.4 l -41.7,-40.8 2.5,-2.4 c 0,0 40.3,39.4 41.7,40.8 z m 110.6,-40.8 2.5,2.4 -41.7,40.8 c -1.6,1.6 -4.1,-0.8 -2.5,-2.4 1.4,-1.4 41.7,-40.8 41.7,-40.8 z M 169.4,333.2 c 1.6,-1.6 4.1,0.8 2.5,2.4 l -41.7,40.8 -2.5,-2.4 c 0,0 40.3,-39.4 41.7,-40.8 z m 115.6,40.7 -2.5,2.4 -41.7,-40.8 c -1.6,-1.6 0.8,-4 2.5,-2.4 1.4,1.4 41.7,40.8 41.7,40.8 z M 171.7,323.7 c 1.6,1.6 -0.8,4 -2.5,2.4 0,0 -20.9,-20.5 -22.6,-22.1 -1.6,-1.6 0.8,-4 2.5,-2.4 0,0 21.2,20.7 22.6,22.1 z m 39.5,-82.4 c -1.6,-1.6 -4.1,0.8 -2.5,2.4 1.6,1.6 22.6,22.1 22.6,22.1 1.6,1.6 4.1,-0.8 2.5,-2.4 -1.4,-1.4 -22.6,-22.1 -22.6,-22.1 z m 22.6,82.6 c 1.6,1.6 -0.8,4 -2.5,2.4 0,0 -20.9,-20.5 -22.6,-22.1 -1.6,-1.6 0.8,-4 2.5,-2.4 0,0 21.2,20.7 22.6,22.1 z m 32.1,-19.7 c 1.6,-1.6 -0.8,-4 -2.5,-2.4 -1.6,1.6 -22.6,22.1 -22.6,22.1 -1.6,1.6 0.8,4 2.5,2.4 1.4,-1.3 22.6,-22.1 22.6,-22.1 z m -84.5,-38.4 c -1.6,1.6 -4.1,-0.8 -2.5,-2.4 0,0 20.9,-20.5 22.6,-22.1 1.6,-1.6 4.1,0.8 2.5,2.4 -0.1,0 -21.2,20.7 -22.6,22.1 z m 22.5,38.4 c 1.6,-1.6 -0.8,-4 -2.5,-2.4 -1.6,1.6 -22.6,22.1 -22.6,22.1 -1.6,1.6 0.8,4 2.5,2.4 1.5,-1.3 22.6,-22.1 22.6,-22.1 z m -32,-29.1 c 1.6,-1.6 -0.8,-4 -2.5,-2.4 0,0 -21,20.5 -22.6,22.1 -1.6,1.6 0.8,4 2.5,2.4 0,-0.1 21.2,-20.8 22.6,-22.1 z m 39.3,82.6 c -1.6,1.6 -4.1,-0.8 -2.5,-2.4 1.6,-1.6 22.6,-22.1 22.6,-22.1 1.6,-1.6 4.1,0.8 2.5,2.4 -1.4,1.4 -22.6,22.1 -22.6,22.1 z m 22.6,-82.6 c 1.6,-1.6 -0.8,-4 -2.5,-2.4 0,0 -20.9,20.5 -22.6,22.1 -1.6,1.6 0.8,4 2.5,2.4 0,-0.1 21.2,-20.8 22.6,-22.1 z m 32.1,19.6 c 1.6,1.6 -0.8,4 -2.5,2.4 -1.6,-1.6 -22.6,-22.1 -22.6,-22.1 -1.6,-1.6 0.8,-4 2.5,-2.4 1.4,1.4 22.6,22.1 22.6,22.1 z m -84.5,38.5 c -1.6,-1.6 -4.1,0.8 -2.5,2.4 0,0 20.9,20.5 22.6,22.1 1.6,1.6 4.1,-0.8 2.5,-2.4 -0.1,0 -21.2,-20.7 -22.6,-22.1 z m 22.5,-38.5 c 1.6,1.6 -0.8,4 -2.5,2.4 -1.6,-1.6 -22.6,-22.1 -22.6,-22.1 -1.6,-1.6 0.8,-4 2.5,-2.4 1.5,1.4 22.6,22.1 22.6,22.1 z m -90.4,33.4 v 3.4 h 55.2 c 2.3,0 2.3,-3.4 0,-3.4 z m 185.7,0 v 3.4 H 244 c -2.3,0 -2.3,-3.4 0,-3.4 z M 113.5,267.5 v 3.4 h 55.2 c 2.3,0 2.3,-3.4 0,-3.4 z m 185.7,0 v 3.4 H 244 c -2.3,0 -2.3,-3.4 0,-3.4 z m -117.1,60.6 c -2.3,0 -2.3,3.4 0,3.4 h 48.5 c 2.3,0 2.3,-3.4 0,-3.4 z m 48.5,-60.6 c 2.3,0 2.3,3.4 0,3.4 h -48.5 c -2.3,0 -2.3,-3.4 0,-3.4 z m 5,122.8 h 3.5 v -54 c 0,-2.3 -3.5,-2.3 -3.5,0 z m 0,-181.6 h 3.5 v 54 c 0,2.3 -3.5,2.3 -3.5,0 z m 0,114.5 c 0,2.3 3.5,2.3 3.5,0 v -47.5 c 0,-2.3 -3.5,-2.3 -3.5,0 z m -62,13.1 c 0,-2.3 3.5,-2.3 3.5,0 v 54 h -3.5 z m 0,-73.6 c 0,2.3 3.5,2.3 3.5,0 v -54 h -3.5 z m 0,13.1 c 0,-2.3 3.5,-2.3 3.5,0 v 47.5 c 0,2.3 -3.5,2.3 -3.5,0 z"
   id="path4" />
	</g>
</g>
<path
   class="st0"
   d=""
   id="path5" />
</svg>
