<?xml version="1.0" encoding="utf-8"?>
<!-- Generator: Adobe Illustrator 25.0.1, SVG Export Plug-In . SVG Version: 6.00 Build 0)  -->
<svg version="1.0" id="katman_1" xmlns="http://www.w3.org/2000/svg" xmlns:xlink="http://www.w3.org/1999/xlink" x="0px" y="0px"
	 viewBox="0 0 800 600" style="enable-background:new 0 0 800 600;" xml:space="preserve">
<style type="text/css">
	.st0{fill:none;}
</style>
<path class="st0" d="z"/>
<g id="Ebene_1_1">
	<g>
		<path d="M502.5,335.3H494v55h8.5V335.3L502.5,335.3z M461.7,367.5c0.1-1.1,0.3-2.1,0.6-3.2c0.4-1.4,2.6-6.6,8.1-6.7
			c0.8,0,2.4,0.1,4.2,1.3c3.2,2,3.7,5.1,3.9,8.6L461.7,367.5z M487.4,372.2c-0.1-1.4,0.1-6.6-2-11c-3.9-7.8-12.1-8.5-14.7-8.5
			c-2.4,0-8.9,0.6-13.6,6.1c-4.3,5.1-4.6,11.6-4.6,13.6c0,8.8,4.6,13.5,7.5,15.5c2,1.4,6,3.4,12.1,3.4c4.7,0,8.2-1.1,9.8-1.7
			c1.9-0.7,3.4-1.6,4.1-1.9v-7.2c-1.6,1.6-2.2,2.1-3.2,2.9c-3.6,2.7-7,3-8.9,3c-3,0-6.4-0.9-8.6-3.1c-2.7-2.6-3.5-6.5-3.7-7.5
			c-0.2-1.3-0.2-2.2-0.3-3.6H487.4z M424.1,381.1l-0.1,8.1c1.9,0.7,4.8,2,9.6,2.1c5.5,0,8.4-1.7,10.3-3.4c3.6-3.2,3.9-7.1,3.9-8.9
			c0-1.3-0.3-5-3.4-7.6c-2.1-1.7-5.1-2.6-7.6-3.6c-2.2-0.9-3.4-1.5-4.2-2.3c-0.9-0.7-1.4-1.9-1.4-3.1c0-0.6,0.1-1.8,1.1-2.9
			c1.6-1.9,4.9-2.1,5.4-2.1c2.5,0,4.6,1,6.5,2.5c0.6,0.4,1.2,0.9,1.8,1.4v-7.2c-2.8-0.9-5-1.5-8-1.5c-2,0-3.9,0.3-4.6,0.4
			c-2.3,0.5-3.8,1.3-4.6,1.8c-3.1,2.1-5.1,5.8-5.1,9.5c0,1.1,0.2,4.2,2.4,6.6c2.1,2.3,6.1,3.5,6.6,3.7c3,1,7.5,2.3,7.5,6.3
			c0,0.5-0.1,1.6-0.9,2.6c-0.8,1.1-2.3,2.6-5.4,2.6c-4.6,0-7.9-2.8-8.9-3.7L424.1,381.1z M408.3,384.1c-3.6,1.2-5,1.4-7,1.4
			c-0.9,0.1-3.1-0.1-5.4-1.1c-5-2.3-5.6-7.6-5.8-9.2c-0.3-1.7-0.3-3.1-0.3-3.9c0-1.2,0-9.1,5.5-12.6c2.1-1.4,4.2-1.6,5.1-1.6
			c4.7,0,6.7,3.3,7.3,4.9c0.6,1.5,0.6,3.2,0.6,3.7V384.1z M416.7,353.2l-4.6,2.7c-6.3-2.6-8.4-3.2-12.1-3.2c-7.1,0-13.8,3.6-16.9,10
			c-1.9,3.9-2.1,8-2.1,9.4c0,4.9,1.6,8.4,2.5,10c1.2,2.1,2.6,3.4,3.2,4.1c4.7,4.1,10.6,4,12.5,4.1c1.3,0.1,2.5,0.1,3.7,0.1h13.7
			L416.7,353.2L416.7,353.2z M350,345.9c1.1-0.6,2.9-1.4,5.8-1.4c3.9,0,8.1,1.7,10,5.3c0.3,0.5,0.9,1.7,0.9,3.4c0,2.7-2,4.9-2.4,5.3
			c-1.9,2.1-4.4,4.1-4.4,6.9c0,0.9,0.2,1.6,0.6,2.4c0.3,0.4,0.9,1.2,1.8,2.1c2.3,2.1,5.3,3.9,5.3,7.4c0,2.1-0.8,4-2.2,5.5
			c-2.1,2.4-5.2,3.1-8.3,3.1c-3.5,0-5.6-0.8-7-1.2L350,345.9z M341.3,390.3h15.8c3.6-0.1,5.1-0.3,6.9-0.7c6.5-1.6,9.7-5.9,10.8-8.2
			c1.1-2.3,1.1-4.5,1.1-5.4c0-4.6-2-7.1-3.3-8.4c-0.6-0.6-1.3-1.1-1.9-1.8l-2.8-2.6c2.9-3.1,6-6.4,6-10.9c0-1.4-0.4-4.1-2.6-7
			c-4-5.1-9.4-5.4-11.7-5.4c-1-0.1-2.1-0.1-3.1,0h-15.1L341.3,390.3L341.3,390.3z"/>
		<path d="M686,281.2h-6.4v-12.6c0-0.9,0.1-2.2-1.1-2.2c-0.3,0-0.8,0.1-1,0.3c-0.4,0.3-0.4,0.9-0.5,1.8c-0.5,3.3-1.4,6.5-3.6,9
			c-2.9,3.6-6.1,3.6-7.9,3.8v5.6h5.6v31h8.6v-31h6.4V281.2L686,281.2z M652.2,311.6c-3.6,1.2-5,1.4-7,1.4c-0.9,0.1-3.1-0.1-5.4-1.1
			c-5-2.3-5.6-7.6-5.9-9.2c-0.3-1.7-0.3-3.1-0.3-3.9c0-1.2,0-9.1,5.5-12.6c2.1-1.4,4.2-1.6,5.1-1.6c4.7,0,6.7,3.3,7.3,4.8
			c0.6,1.5,0.6,3.2,0.6,3.7V311.6z M660.6,280.7l-4.6,2.7c-6.3-2.6-8.4-3.2-12.1-3.2c-7.1,0-13.8,3.6-16.9,10
			c-1.9,3.9-2.1,8-2.1,9.4c0,4.9,1.6,8.4,2.5,10c1.2,2.1,2.6,3.4,3.2,4.1c4.7,4.1,10.6,4,12.5,4.1c1.3,0.1,2.5,0.1,3.7,0.1h13.7
			V280.7z M641.6,270.3c0-2.8-2.2-5.1-5.1-5.1c-1.8,0-3.4,0.9-4.3,2.4c-0.7,1.1-0.8,2.1-0.8,2.6c0,2.8,2.3,5.2,5.1,5.2
			c0.9,0,3-0.3,4.3-2.4C641.5,271.9,641.6,270.8,641.6,270.3L641.6,270.3z M657.5,270.5c0.1-2.9-2.1-5.3-4.9-5.3
			c-1-0.1-3.6,0.4-4.7,3.3c-0.1,0.4-0.4,0.9-0.4,1.9c-0.1,2.8,2.2,5.1,5,5.1C655.3,275.5,657.4,273.2,657.5,270.5L657.5,270.5z
			 M622.9,281.2h-6.4v-12.6c0-0.9,0.1-2.2-1.1-2.2c-0.3,0-0.8,0.1-1,0.3c-0.4,0.3-0.4,0.9-0.5,1.8c-0.5,3.3-1.4,6.5-3.6,9
			c-2.9,3.6-6.1,3.6-7.9,3.8v5.6h5.6v31h8.6v-31h6.4L622.9,281.2L622.9,281.2z M586.7,272c0,2.8,2.3,5,5,5c2.8,0,5.1-2.2,5.1-5
			c0-2.8-2.2-5.1-5-5.1C589,267,586.7,269.3,586.7,272L586.7,272z M596,281.2h-8.5v36.7h8.5V281.2z M557.3,308.6l-0.1,8.1
			c1.9,0.7,4.9,2,9.6,2.1c5.5,0,8.3-1.7,10.3-3.3c3.6-3.2,3.9-7.1,3.9-8.9c0-1.3-0.3-5-3.4-7.6c-2.1-1.7-5.1-2.6-7.6-3.6
			c-2.2-0.9-3.3-1.5-4.2-2.3c-0.9-0.7-1.4-1.9-1.4-3.1c0-0.6,0.1-1.8,1.1-2.9c1.6-1.9,4.9-2.1,5.4-2.1c2.5,0,4.6,1,6.5,2.5
			c0.6,0.4,1.2,0.9,1.8,1.4v-7.2c-2.8-0.9-5-1.5-8-1.5c-2,0-3.9,0.3-4.6,0.4c-2.3,0.5-3.8,1.3-4.6,1.8c-3.1,2.1-5.1,5.8-5.1,9.5
			c0,1.1,0.2,4.2,2.4,6.6c2.1,2.3,6.1,3.5,6.6,3.7c3,1,7.5,2.3,7.5,6.3c0,0.5-0.1,1.6-0.9,2.6c-0.8,1.1-2.3,2.6-5.4,2.6
			c-4.6,0-7.8-2.8-8.8-3.7L557.3,308.6z M529.1,281.2v36.7h8.5v-31.2c1.4-0.6,2.9-1.3,6.1-1.1c-0.3,0.4-0.8,1-0.8,2.2
			c0,1.1,0.3,1.8,0.4,2.1c0.8,1.8,2.5,2.8,4.5,2.8c3.2,0,5.1-2.4,5.1-5.4c0-1.7-0.7-2.8-1-3.3c-1.7-2.6-5-2.6-7.8-2.8L529.1,281.2
			L529.1,281.2z M496.7,295c0.1-1.1,0.3-2.1,0.6-3.2c0.4-1.4,2.6-6.6,8.1-6.7c0.8,0,2.4,0.1,4.2,1.3c3.2,2,3.7,5.1,3.9,8.6
			L496.7,295z M522.3,299.7c-0.1-1.4,0.1-6.6-2-11c-3.9-7.8-12.1-8.5-14.7-8.5c-2.4,0-8.9,0.6-13.6,6.1c-4.3,5.1-4.6,11.6-4.6,13.6
			c0,8.8,4.6,13.5,7.5,15.5c2,1.4,6,3.4,12.1,3.4c4.7,0,8.2-1.1,9.8-1.7c1.9-0.7,3.4-1.6,4.1-1.9V308c-1.6,1.6-2.2,2.1-3.2,2.9
			c-3.6,2.7-7,3-8.8,3c-3,0-6.4-0.9-8.6-3.1c-2.7-2.6-3.5-6.5-3.7-7.5c-0.2-1.3-0.2-2.2-0.3-3.6L522.3,299.7L522.3,299.7z
			 M486.2,281.2h-7.6L468,310.4c-0.5,1.6-0.6,1.9-1.7,1.9l-11.1-31.2h-9.2l13.6,36.7h4.4c2.6-0.1,4.7-0.1,7-1.6
			c3-1.9,4.4-5.6,5.6-8.7L486.2,281.2z M432.1,272c0,2.8,2.3,5,5,5c2.8,0,5.1-2.2,5.1-5c0-2.8-2.2-5.1-5-5.1
			C434.4,267,432.1,269.3,432.1,272L432.1,272z M441.4,281.2h-8.5v36.7h8.5V281.2L441.4,281.2z M392.2,281.2v36.7h8.5v-30.3
			c1.4-0.7,3-1.6,6.4-1.6c5.5,0,7.6,2.5,8.4,4.9c0.4,1.1,0.5,2.3,0.6,4.8v22.2h8.4v-22.2c-0.3-4.1-0.6-7.8-3.9-10.6
			c-4.1-3.5-9.4-3.9-19.8-3.9L392.2,281.2L392.2,281.2z M383.5,267.5h-8.7v28.7c0.1,4.4,0,6.7-0.6,8.8c-0.6,2.2-1.8,3.6-2.4,4.4
			c-1.1,1.3-2.9,2.9-6.6,3.5c-1.5,0.3-2.7,0.3-3.3,0.3c-7.5,0-10.6-4-11.7-6.9c-0.9-2.3-1.1-5-1-10.1v-28.7h-8.7v26.8
			c-0.1,5.9,0.1,9.1,1,11.8c0.9,3.1,2.9,6.1,5.6,8.1c2.3,1.9,7.3,4.6,14.8,4.6c6.8,0,11.6-2.4,13.9-3.7c5.2-3.4,6.7-8.4,7.2-10.7
			c0.5-2.4,0.6-4.9,0.5-10.1L383.5,267.5L383.5,267.5z"/>
		<path d="M211.2,362.4c-1.6-1.6-4.1,0.8-2.5,2.4l11.8,11.6l2.5-2.4C223.1,374,212.6,363.8,211.2,362.4L211.2,362.4z M192.1,376.4
			l-2.5-2.4l11.8-11.6c1.6-1.6,4.1,0.8,2.5,2.4C202.5,366.2,192.1,376.4,192.1,376.4L192.1,376.4z M142,294.7c1.6,1.6-0.8,4-2.5,2.4
			l-11.8-11.6l2.5-2.4C130.2,283.2,140.6,293.4,142,294.7L142,294.7z M127.7,313.4l2.5,2.4l11.8-11.6c1.6-1.6-0.8-4-2.5-2.4
			C138.1,303.2,127.7,313.4,127.7,313.4L127.7,313.4z M201.5,236.6c1.6,1.6,4.1-0.8,2.5-2.4l-11.8-11.6l-2.5,2.4
			C189.6,225,200.1,235.2,201.5,236.6L201.5,236.6z M220.6,222.6l2.5,2.4l-11.8,11.6c-1.6,1.6-4.1-0.8-2.5-2.4
			C210.2,232.8,220.6,222.6,220.6,222.6L220.6,222.6z M270.7,294.7c-1.6,1.6,0.8,4,2.5,2.4l11.8-11.6l-2.5-2.4
			C282.5,283.1,272.1,293.3,270.7,294.7L270.7,294.7z M285,313.4l-2.5,2.4l-11.8-11.6c-1.6-1.6,0.8-4,2.5-2.4
			C274.6,303.2,285,313.4,285,313.4L285,313.4z M171.9,263.4c1.6,1.6-0.8,4-2.5,2.4L127.7,225l2.5-2.4
			C130.2,222.6,170.5,262,171.9,263.4L171.9,263.4z M282.5,222.6l2.5,2.4l-41.7,40.8c-1.6,1.6-4.1-0.8-2.5-2.4
			C242.2,262,282.5,222.6,282.5,222.6L282.5,222.6z M169.4,333.2c1.6-1.6,4.1,0.8,2.5,2.4l-41.7,40.8l-2.5-2.4
			C127.7,374,168,334.6,169.4,333.2L169.4,333.2z M285,373.9l-2.5,2.4l-41.7-40.8c-1.6-1.6,0.8-4,2.5-2.4
			C244.7,334.5,285,373.9,285,373.9L285,373.9z M171.7,323.7c1.6,1.6-0.8,4-2.5,2.4c0,0-20.9-20.5-22.6-22.1c-1.6-1.6,0.8-4,2.5-2.4
			C149.1,301.6,170.3,322.3,171.7,323.7L171.7,323.7z M211.2,241.3c-1.6-1.6-4.1,0.8-2.5,2.4c1.6,1.6,22.6,22.1,22.6,22.1
			c1.6,1.6,4.1-0.8,2.5-2.4C232.4,262,211.2,241.3,211.2,241.3L211.2,241.3z M233.8,323.9c1.6,1.6-0.8,4-2.5,2.4
			c0,0-20.9-20.5-22.6-22.1c-1.6-1.6,0.8-4,2.5-2.4C211.2,301.8,232.4,322.5,233.8,323.9L233.8,323.9z M265.9,304.2
			c1.6-1.6-0.8-4-2.5-2.4c-1.6,1.6-22.6,22.1-22.6,22.1c-1.6,1.6,0.8,4,2.5,2.4C244.7,325,265.9,304.2,265.9,304.2L265.9,304.2z
			 M181.4,265.8c-1.6,1.6-4.1-0.8-2.5-2.4c0,0,20.9-20.5,22.6-22.1c1.6-1.6,4.1,0.8,2.5,2.4C203.9,243.7,182.8,264.4,181.4,265.8
			L181.4,265.8z M203.9,304.2c1.6-1.6-0.8-4-2.5-2.4c-1.6,1.6-22.6,22.1-22.6,22.1c-1.6,1.6,0.8,4,2.5,2.4
			C182.8,325,203.9,304.2,203.9,304.2L203.9,304.2z M171.9,275.1c1.6-1.6-0.8-4-2.5-2.4c0,0-21,20.5-22.6,22.1
			c-1.6,1.6,0.8,4,2.5,2.4C149.3,297.1,170.5,276.4,171.9,275.1L171.9,275.1z M211.2,357.7c-1.6,1.6-4.1-0.8-2.5-2.4
			c1.6-1.6,22.6-22.1,22.6-22.1c1.6-1.6,4.1,0.8,2.5,2.4C232.4,337,211.2,357.7,211.2,357.7L211.2,357.7z M233.8,275.1
			c1.6-1.6-0.8-4-2.5-2.4c0,0-20.9,20.5-22.6,22.1c-1.6,1.6,0.8,4,2.5,2.4C211.2,297.1,232.4,276.4,233.8,275.1L233.8,275.1z
			 M265.9,294.7c1.6,1.6-0.8,4-2.5,2.4c-1.6-1.6-22.6-22.1-22.6-22.1c-1.6-1.6,0.8-4,2.5-2.4C244.7,274,265.9,294.7,265.9,294.7
			L265.9,294.7z M181.4,333.2c-1.6-1.6-4.1,0.8-2.5,2.4c0,0,20.9,20.5,22.6,22.1c1.6,1.6,4.1-0.8,2.5-2.4
			C203.9,355.3,182.8,334.6,181.4,333.2L181.4,333.2z M203.9,294.7c1.6,1.6-0.8,4-2.5,2.4c-1.6-1.6-22.6-22.1-22.6-22.1
			c-1.6-1.6,0.8-4,2.5-2.4C182.8,274,203.9,294.7,203.9,294.7L203.9,294.7z M113.5,328.1v3.4h55.2c2.3,0,2.3-3.4,0-3.4H113.5z
			 M299.2,328.1v3.4H244c-2.3,0-2.3-3.4,0-3.4H299.2z M113.5,267.5v3.4h55.2c2.3,0,2.3-3.4,0-3.4H113.5z M299.2,267.5v3.4H244
			c-2.3,0-2.3-3.4,0-3.4H299.2z M182.1,328.1c-2.3,0-2.3,3.4,0,3.4h48.5c2.3,0,2.3-3.4,0-3.4H182.1z M230.6,267.5
			c2.3,0,2.3,3.4,0,3.4h-48.5c-2.3,0-2.3-3.4,0-3.4H230.6z M235.6,390.3h3.5v-54c0-2.3-3.5-2.3-3.5,0V390.3z M235.6,208.7h3.5v54
			c0,2.3-3.5,2.3-3.5,0V208.7z M235.6,323.2c0,2.3,3.5,2.3,3.5,0v-47.5c0-2.3-3.5-2.3-3.5,0V323.2z M173.6,336.3
			c0-2.3,3.5-2.3,3.5,0v54h-3.5V336.3z M173.6,262.7c0,2.3,3.5,2.3,3.5,0v-54h-3.5V262.7z M173.6,275.8c0-2.3,3.5-2.3,3.5,0v47.5
			c0,2.3-3.5,2.3-3.5,0V275.8z"/>
	</g>
</g>
<path class="st0" d="z"/>
</svg>
